<svg width="100" height="100" viewBox="0 0 100 100" fill="none" xmlns="http://www.w3.org/2000/svg">
<path d="M16.57 43.9171C16.5409 44.5691 16.5232 45.2261 16.532 45.8818C16.3914 46.1494 16.2609 46.4221 16.1431 46.6936C16.2457 45.7562 16.3914 44.8278 16.57 43.9171ZM29.9502 23.3607C29.3548 24.0253 28.8164 24.7673 28.3249 25.574C27.2062 26.1359 26.1751 26.746 25.2389 27.4017C26.6767 25.9152 28.2552 24.5555 29.9502 23.3607ZM72.7712 27.3979C71.835 26.7409 70.8 26.127 69.6801 25.5689C69.1886 24.7534 68.6401 24.0076 68.0409 23.3366C69.5775 24.4198 71.0344 25.6387 72.3873 26.9946C72.5178 27.1214 72.6445 27.2609 72.7712 27.3979ZM81.478 45.878C81.492 45.2121 81.473 44.5551 81.44 43.8994C81.6186 44.8088 81.7542 45.7233 81.8568 46.6517C81.7453 46.393 81.6186 46.1304 81.478 45.878ZM81.3463 57.3288C81.2766 56.0769 80.9257 54.858 80.3075 53.6708C80.9257 51.4905 81.3045 49.2722 81.4312 47.0551C81.7631 47.8516 81.9645 48.6633 82.0544 49.484C82.0582 49.7884 82.0722 50.0979 82.0722 50.4073C82.0722 52.7614 81.8239 55.0775 81.3463 57.3288ZM71.6424 74.5291C71.7223 74.4112 71.7919 74.2894 71.8629 74.1676C72.1251 73.971 72.3785 73.7643 72.6356 73.5576C72.5508 73.6425 72.4709 73.7364 72.3873 73.8201C72.1441 74.0649 71.8907 74.2945 71.6424 74.5291ZM25.3554 73.5398C25.6139 73.7503 25.871 73.9609 26.1333 74.1588C26.2029 74.2805 26.2789 74.4023 26.3575 74.524C26.1092 74.2894 25.8609 74.0598 25.6177 73.8201C25.529 73.7262 25.4441 73.6337 25.3554 73.5398ZM19.8524 42.6044C19.8802 44.7619 20.1526 46.9751 20.6859 49.2354C20.729 49.4041 20.7708 49.5728 20.8126 49.7415C20.5124 50.004 20.2273 50.2716 19.9562 50.5431C19.1315 51.3688 18.4525 52.2224 17.9281 53.0899C17.3327 50.8627 16.9957 48.6025 16.9209 46.3372C17.5898 45.0244 18.5792 43.7725 19.8524 42.6044ZM18.0256 38.8158C18.6679 37.5778 19.6003 36.4059 20.7847 35.3176C20.1893 37.418 19.8764 39.6174 19.8473 41.8827C19.5243 42.1642 19.2152 42.4496 18.9251 42.7363C18.1105 43.5569 17.4403 44.3915 16.9019 45.2489C16.907 43.9552 17.0008 42.6652 17.1781 41.3855C17.4264 40.5128 17.7127 39.6554 18.0256 38.8158ZM23.0701 29.8877C22.8459 30.2771 22.6305 30.6754 22.4291 31.0787C22.1757 31.2994 21.9325 31.515 21.7032 31.7446C22.1377 31.1066 22.5925 30.4826 23.0701 29.8877ZM27.0884 28.0258C25.6037 28.7804 24.2837 29.6061 23.1448 30.4927C23.5059 29.8306 23.9037 29.1838 24.3306 28.5509C25.3884 27.6833 26.6159 26.8817 27.979 26.1638C27.6547 26.7549 27.3557 27.3738 27.0884 28.0258ZM34.175 23.688C33.8938 24.2739 33.6404 24.903 33.4162 25.5639C32.4699 25.8404 31.5514 26.146 30.6621 26.4733C29.5752 26.8817 28.5592 27.3129 27.604 27.7772C27.8992 27.0973 28.226 26.4555 28.5871 25.8505C30.2681 25.0159 32.1468 24.2892 34.175 23.688ZM31.6034 22.2585C32.086 21.9579 32.5725 21.6725 33.0691 21.3998C34.1788 20.8887 35.3836 20.4346 36.6567 20.0452C35.7763 20.9457 35.0225 22.0099 34.3904 23.2428C32.4319 23.8097 30.6013 24.4896 28.9481 25.2683C29.7107 24.1052 30.6013 23.0969 31.6034 22.2585ZM37.2331 19.4909C37.1482 19.51 37.0646 19.5341 36.9798 19.562C37.0836 19.5201 37.1862 19.4821 37.2889 19.444C37.2699 19.4592 37.2521 19.4732 37.2331 19.4909ZM42.8958 18.3291C41.1995 18.5485 39.5653 18.8682 38.0147 19.2753C38.0249 19.2423 38.0287 19.2055 38.0249 19.1726C39.7389 18.5676 41.5137 18.0983 43.3455 17.785C43.1859 17.9486 43.0364 18.1312 42.8958 18.3291ZM59.9953 19.2664C58.4447 18.858 56.8105 18.5397 55.1105 18.319C54.9736 18.1274 54.8292 17.9486 54.6747 17.785C56.4862 18.0983 58.2661 18.5536 59.9902 19.1586C59.9801 19.1967 59.9801 19.2284 59.9953 19.2664ZM60.7579 19.4732C60.744 19.4592 60.725 19.444 60.7073 19.4262C60.8099 19.4681 60.9176 19.5062 61.0202 19.548C60.9366 19.5239 60.8466 19.496 60.7579 19.4732ZM70.406 27.7683C69.4509 27.3079 68.4349 26.8728 67.353 26.4695C66.4574 26.141 65.5402 25.8366 64.5989 25.5588C64.3734 24.898 64.1163 24.2739 63.835 23.6791C65.8632 24.2841 67.7406 25.0058 69.4179 25.8454C69.7828 26.4505 70.1109 27.0922 70.406 27.7683ZM73.6706 28.5369C74.1013 29.1698 74.4991 29.8167 74.8602 30.4788C73.7226 29.5973 72.4063 28.7716 70.9216 28.0207C70.6543 27.3688 70.3541 26.746 70.0273 26.1549C71.3891 26.8766 72.6116 27.6694 73.6706 28.5369ZM75.5721 31.0648C75.3707 30.6513 75.1503 30.2479 74.921 29.8459C75.4125 30.4686 75.8863 31.1016 76.3309 31.7497C76.0877 31.5188 75.8344 31.2855 75.5721 31.0648ZM79.0939 42.7363C78.7987 42.4445 78.4896 42.1642 78.1666 41.8776C78.1336 39.5895 77.8157 37.3711 77.2114 35.2516C78.3959 36.3488 79.3282 37.5309 79.9794 38.7828C80.3024 39.6453 80.5875 40.523 80.8358 41.4134C81.0144 42.6843 81.1031 43.9602 81.1081 45.2451C80.5735 44.3864 79.9046 43.5518 79.0939 42.7363ZM77.9512 50.5431C77.708 50.2945 77.4457 50.056 77.1784 49.8214C77.2304 49.6248 77.2811 49.4269 77.3241 49.2354C77.8625 46.9751 78.1336 44.7619 78.1577 42.6094C78.3452 42.7781 78.5276 42.9519 78.7012 43.1295C79.7362 44.1619 80.5317 45.235 81.0942 46.3321C81.0194 48.6354 80.6673 50.9426 80.0491 53.2117C79.5157 52.2972 78.8126 51.4068 77.9512 50.5431ZM78.686 57.1791C78.1805 56.3255 77.5205 55.4998 76.7199 54.6932C76.4475 54.4255 76.1663 54.168 75.8724 53.9055C76.3398 52.6815 76.7477 51.4537 77.0796 50.2196C77.2861 50.4124 77.4926 50.6039 77.694 50.8018C78.6353 51.7442 79.3751 52.7196 79.9135 53.7127C79.5765 54.8809 79.1648 56.0389 78.686 57.1791ZM80.9675 58.464C80.6533 59.3075 80.3113 60.1141 79.9414 60.8929C79.8337 59.7628 79.4917 58.6555 78.9115 57.5774C79.3941 56.4613 79.8109 55.3362 80.1567 54.1922C80.7141 55.3692 80.9954 56.5779 80.9954 57.8121C80.9954 58.0277 80.9865 58.2484 80.9675 58.464ZM79.9743 61.6565C80.1428 61.328 80.3024 60.9906 80.462 60.6481C80.3024 61.1314 80.139 61.6057 79.9604 62.0839C79.9692 61.9381 79.9743 61.8023 79.9743 61.6565ZM65.5681 77.2066C65.7935 76.6714 65.9101 76.1273 65.9291 75.5654C68.0789 74.4441 70.3123 73.0045 72.4342 71.1895C72.3734 72.1142 72.0833 73.0286 71.5867 73.914C69.722 75.2889 67.6621 76.3759 65.5681 77.2066ZM62.3605 80.7048C62.3313 80.7137 62.3035 80.7276 62.2756 80.7327C62.7583 80.4232 63.2029 80.1036 63.6007 79.7624C64.2797 79.5607 64.9549 79.3159 65.6099 79.0496C64.5559 79.6584 63.474 80.2127 62.3605 80.7048ZM34.3714 79.7472C34.7552 80.0858 35.1859 80.4042 35.6547 80.7048C35.6458 80.7048 35.6357 80.6997 35.6268 80.6946C34.5209 80.2076 33.4352 79.6546 32.385 79.0394C33.0323 79.3071 33.6974 79.5468 34.3714 79.7472ZM25.5759 71.1895C27.6978 72.9995 29.9312 74.4391 32.081 75.5603C32.0949 76.1184 32.2127 76.6676 32.4319 77.2016C30.3442 76.367 28.283 75.2838 26.4183 73.9102C25.923 73.0236 25.6316 72.1091 25.5759 71.1895ZM18.0307 61.6425C18.0307 61.7884 18.0395 61.9292 18.0446 62.0788C17.8622 61.5918 17.6937 61.1035 17.5341 60.6113C17.6937 60.9627 17.8571 61.3102 18.0307 61.6425ZM22.1377 53.9004C21.8425 54.163 21.5575 54.4217 21.2902 54.6932C20.4845 55.4948 19.8334 56.3255 19.3279 57.169C18.8313 55.992 18.4095 54.7972 18.0636 53.5871C18.7426 52.372 19.7079 51.2191 20.9152 50.1397C21.2484 51.3967 21.6601 52.6536 22.1377 53.9004ZM26.1282 46.6885C26.3904 48.0063 26.7097 49.333 27.0834 50.6559C25.3187 51.5425 23.7542 52.5458 22.4379 53.648C21.9604 52.3911 21.5524 51.129 21.2243 49.8734C22.5874 48.7052 24.2368 47.641 26.1282 46.6885ZM25.9318 31.8194C25.548 33.5914 25.3187 35.5053 25.2756 37.5537C25.2667 37.8125 25.2718 38.07 25.2718 38.3274C23.3564 39.285 21.6563 40.3682 20.2273 41.5592C20.2882 39.233 20.6492 36.9868 21.3143 34.8445C22.6115 33.7423 24.1659 32.7289 25.9318 31.8194ZM26.0395 31.3222C24.3204 32.1949 22.8028 33.1563 21.5195 34.1875C21.8615 33.1982 22.2644 32.2317 22.7331 31.2893C23.9138 30.2771 25.3187 29.3487 26.906 28.5141C26.569 29.3994 26.2739 30.338 26.0395 31.3222ZM32.5776 28.7804C31.2335 29.1749 29.9413 29.6201 28.7226 30.1084C27.941 30.4268 27.191 30.7591 26.4753 31.1066C26.7274 30.1084 27.0327 29.1508 27.3925 28.2604C29.1546 27.3738 31.1347 26.6052 33.2756 25.9672C32.9994 26.8436 32.76 27.7822 32.5776 28.7804ZM40.7967 24.3589C40.6523 25.2404 40.5306 26.1638 40.4407 27.1163C37.8323 27.4778 35.3228 27.9928 32.9715 28.6638C33.1679 27.6554 33.4111 26.7181 33.7063 25.8404C35.9169 25.2024 38.296 24.7065 40.7967 24.3589ZM41.2464 22.1837C41.102 22.7557 40.9753 23.3556 40.8575 23.9886C38.4176 24.3209 36.0626 24.8041 33.8469 25.4332C34.0851 24.7673 34.3486 24.1382 34.6425 23.5472C36.7087 22.9612 38.9281 22.502 41.2464 22.1837ZM48.8194 21.2971C46.3897 21.3009 44.0055 21.4556 41.724 21.7474C42.085 20.5044 42.5398 19.4592 43.0833 18.6754C44.9417 18.4318 46.8622 18.305 48.8194 18.2961V21.2971ZM56.2899 21.7474C54.0045 21.4556 51.6204 21.3009 49.1856 21.2971V18.2961C51.1529 18.2999 53.0722 18.4268 54.9179 18.6614C55.4702 19.4491 55.92 20.4955 56.2899 21.7474ZM57.1513 23.9835C57.0398 23.3556 56.9131 22.7506 56.7637 22.1786C59.0857 22.497 61.3014 22.9574 63.3663 23.5434C63.6615 24.1344 63.9288 24.7673 64.1682 25.4332C61.9475 24.799 59.5963 24.3171 57.1513 23.9835ZM65.0385 28.6498C62.7063 27.9877 60.2005 27.4677 57.5732 27.1062C57.4794 26.1549 57.3629 25.2354 57.2134 24.3589C59.7179 24.7014 62.0982 25.2024 64.3088 25.8366C64.5989 26.713 64.8422 27.6465 65.0385 28.6498ZM71.5348 31.0838C69.6941 30.1921 67.6482 29.4134 65.4325 28.7665C65.245 27.7683 65.0157 26.8398 64.7345 25.9621C66.8792 26.6052 68.8554 27.3688 70.6163 28.2515C70.9774 29.1419 71.2814 30.0894 71.5348 31.0838ZM71.9706 31.2943C71.7311 30.3139 71.441 29.3855 71.104 28.509C72.6914 29.3385 74.0925 30.267 75.2719 31.2804C75.7355 32.2088 76.1435 33.1703 76.4804 34.1494C75.1883 33.1132 73.6706 32.1518 71.9706 31.2943ZM72.7433 38.3236C72.7433 38.07 72.7433 37.8125 72.7382 37.5537C72.6914 35.4812 72.4621 33.5406 72.0694 31.7497C73.8302 32.654 75.3846 33.6713 76.6768 34.7785C77.352 36.9449 77.727 39.2102 77.7878 41.5542C76.3537 40.3682 74.6587 39.285 72.7433 38.3236ZM70.9254 50.6559C71.3004 49.3483 71.6146 48.0393 71.8717 46.7405C73.7694 47.7019 75.4125 48.775 76.7667 49.9482C76.4437 51.181 76.0446 52.424 75.5772 53.6518C74.2559 52.5458 72.6914 51.5463 70.9254 50.6559ZM73.9848 57.2908C72.7572 56.2647 71.3055 55.3311 69.6662 54.5054C70.0969 53.3474 70.4808 52.1843 70.8228 51.0124C72.5837 51.9027 74.1343 52.9073 75.4366 54.0133C75.0059 55.1155 74.5232 56.2076 73.9848 57.2908ZM76.958 60.6913C76.4754 59.8655 75.8432 59.0589 75.0616 58.2712C74.8133 58.0226 74.5422 57.7791 74.2698 57.5394C74.8133 56.4613 75.296 55.3692 75.7317 54.2708C75.98 54.4966 76.2283 54.7211 76.4576 54.9519C77.314 55.8144 77.993 56.6959 78.5035 57.6053C78.045 58.6466 77.5344 59.6778 76.958 60.6913ZM57.8924 78.1161C57.8633 77.8396 57.7885 77.5631 57.6669 77.2904C60.3272 76.2642 62.814 75.0111 65.1044 73.5487C65.3945 74.1296 65.5452 74.7308 65.5592 75.3447C62.6835 76.8223 59.9662 77.7127 57.8924 78.1161ZM57.7556 79.2081C57.8405 78.9785 57.8873 78.735 57.9013 78.4915C59.9662 78.0882 62.6696 77.2155 65.549 75.7569C65.5072 76.3112 65.3527 76.8591 65.0905 77.3893C62.5657 78.3406 60.027 78.9367 57.7556 79.2081ZM55.8921 81.2908C56.2151 81.0891 56.5052 80.8684 56.7586 80.6388C58.6512 80.7657 60.7022 80.5361 62.7253 80.011C62.173 80.4131 61.5446 80.7936 60.8656 81.136C59.3011 81.5153 58.0419 81.5254 55.8921 81.2908ZM44.5528 82.3359C45.8792 82.7202 47.4057 82.9409 49.0031 82.9409C49.7936 82.9409 50.5575 82.8902 51.2834 82.7963C51.5266 83.0348 51.78 83.2314 52.0372 83.3772C51.0351 83.466 50.0242 83.518 49.0031 83.518C46.7634 83.518 44.5579 83.2923 42.4081 82.861C43.158 82.7963 43.851 82.6226 44.5528 82.3359ZM41.2654 80.6388C41.5188 80.8684 41.8089 81.0891 42.1319 81.2908C39.9682 81.5254 38.7077 81.5153 37.1343 81.131C36.4553 80.7885 35.832 80.4131 35.2797 80.0059C37.3079 80.5361 39.369 80.7657 41.2654 80.6388ZM40.1088 78.4915C40.1227 78.7299 40.1696 78.9735 40.2545 79.2081C37.9818 78.9316 35.4393 78.3406 32.9145 77.3842C32.6523 76.854 32.4978 76.3112 32.461 75.7569C35.3367 77.2104 38.0388 78.0882 40.1088 78.4915ZM32.9006 73.5398C35.1961 75.0111 37.6828 76.2642 40.3432 77.2865C40.2165 77.558 40.1417 77.8345 40.1139 78.1161C38.0388 77.7076 35.3266 76.8173 32.4471 75.3396C32.461 74.7206 32.6194 74.1207 32.9006 73.5398ZM20.8456 61.0565C20.3072 62.07 19.993 63.11 19.9094 64.1793C19.3697 63.3447 18.8642 62.4822 18.4006 61.5626C18.4145 60.3437 18.7186 59.1578 19.2861 58.0175C19.7498 59.05 20.2691 60.0621 20.8456 61.0565ZM23.744 57.5356C23.4641 57.7791 23.1968 58.0226 22.9434 58.2712C22.1668 59.0538 21.5334 59.8605 21.052 60.6862C20.4807 59.6728 19.9651 58.6466 19.5103 57.6053C20.1665 56.4283 21.1027 55.3121 22.2783 54.2708C22.7141 55.3641 23.2018 56.4562 23.744 57.5356ZM28.3489 54.5016C26.7046 55.3261 25.2528 56.2596 24.0253 57.287C23.4869 56.2076 23.0042 55.1104 22.5735 54.0133C23.8618 52.9251 25.4162 51.9218 27.191 51.0263C27.5331 52.1894 27.9169 53.3525 28.3489 54.5016ZM33.5657 48.5644C33.819 49.7503 34.1041 50.9515 34.4233 52.1564C32.3343 52.7614 30.4088 53.4933 28.6758 54.3367C28.2501 53.1838 27.8663 52.0258 27.5242 50.8627C29.332 49.9812 31.3652 49.2075 33.5657 48.5644ZM32.741 44.1289C32.9475 45.4607 33.1907 46.8153 33.4821 48.189C31.2854 48.827 29.2471 49.5956 27.4216 50.4923C27.0466 49.1643 26.7274 47.8376 26.4652 46.5198C28.3489 45.6015 30.4556 44.7948 32.741 44.1289ZM32.0341 36.3019C32.081 38.6471 32.3014 41.1457 32.6852 43.7484C30.405 44.4105 28.2919 45.207 26.3904 46.1355C25.9128 43.6216 25.6607 41.1457 25.6316 38.7688C27.547 37.8214 29.6968 36.9969 32.0341 36.3019ZM32.1608 31.8714C32.0531 33.0954 32.0113 34.3841 32.0202 35.7209C29.7158 36.3957 27.5711 37.2125 25.6367 38.1448C25.6367 37.9533 25.6367 37.7554 25.6417 37.5639C25.6886 35.4305 25.9318 33.4328 26.3537 31.6038C28.2032 30.6893 30.2643 29.8827 32.5028 29.2079C32.3571 30.0564 32.2406 30.9379 32.1608 31.8714ZM40.1645 34.0137C37.4295 34.3841 34.8211 34.9231 32.385 35.6131C32.3761 34.3422 32.423 33.0992 32.5256 31.8994C32.6105 30.9189 32.7372 29.9816 32.8917 29.1001C35.2379 28.4101 37.7626 27.871 40.404 27.5007C40.2215 29.6011 40.1506 31.8334 40.1645 34.0137ZM48.8194 26.9007V33.4328C45.9539 33.4417 43.153 33.6294 40.4648 33.9769C40.4597 31.6508 40.5446 29.4514 40.727 27.4537C43.3303 27.1062 46.0426 26.9147 48.8194 26.9007ZM48.8194 23.8097V26.5342C46.0894 26.5443 43.3823 26.727 40.7637 27.0694C40.8626 26.1029 40.9842 25.1745 41.1387 24.3171C43.5976 23.9936 46.1743 23.8199 48.8194 23.8097ZM48.8194 23.4394C46.2161 23.4495 43.6686 23.6182 41.2046 23.9366C41.3262 23.3036 41.4618 22.6986 41.6125 22.1367C43.9308 21.8311 46.3466 21.6725 48.8194 21.6624V23.4394ZM49.1856 23.4394V21.6624C51.6635 21.6725 54.0793 21.8311 56.3976 22.1317C56.5521 22.6948 56.6839 23.2986 56.8055 23.9366C54.3415 23.6182 51.7889 23.4495 49.1856 23.4394ZM49.1856 26.5342V23.8097C51.8357 23.8148 54.4124 23.9886 56.8751 24.312C57.0259 25.1745 57.1475 26.094 57.2451 27.0593C54.6645 26.7219 51.9574 26.5443 49.1856 26.5342ZM57.5453 33.9769C54.8622 33.6243 52.0562 33.4366 49.1856 33.4328V26.9007C51.9764 26.9096 54.6886 27.0973 57.2831 27.4347C57.4705 29.4375 57.5542 31.6457 57.5453 33.9769ZM65.4882 31.8994C65.5921 33.0992 65.6339 34.3422 65.6238 35.6131C63.194 34.9231 60.5844 34.3841 57.8493 34.0137C57.8595 31.8245 57.7936 29.5871 57.6061 27.4778C60.2575 27.8431 62.7722 28.3733 65.1095 29.043C65.2729 29.9486 65.3996 30.8999 65.4882 31.8994ZM65.9899 35.7209C66.0038 34.3841 65.957 33.0954 65.8544 31.8714C65.7695 30.924 65.6529 30.0234 65.5022 29.1559C67.7406 29.8218 69.8018 30.6196 71.6475 31.5328C72.0732 33.3859 72.3215 35.4026 72.3734 37.5639C72.3785 37.7554 72.3734 37.9533 72.3785 38.1448C70.444 37.2075 68.298 36.3957 65.9899 35.7209ZM65.3198 43.7814C65.7137 41.1597 65.9329 38.6471 65.9798 36.2841C68.3031 36.9728 70.4529 37.8023 72.3785 38.7599C72.3544 41.1508 72.0922 43.6508 71.6146 46.1824C69.7182 45.2489 67.6013 44.4473 65.3198 43.7814ZM64.528 48.194C64.8194 46.8293 65.0575 45.4886 65.264 44.1708C65.5402 44.2507 65.8214 44.3255 66.0976 44.4105C68.0738 45.0333 69.8904 45.7562 71.5348 46.5667C71.2776 47.8706 70.9634 49.1834 70.5935 50.4923C68.7617 49.6007 66.7297 48.827 64.528 48.194ZM63.5918 52.1564C63.9098 50.9464 64.1961 49.7415 64.4482 48.5505C66.6448 49.1834 68.673 49.9571 70.4909 50.8487C70.1489 52.0156 69.765 53.1838 69.3381 54.3418C67.6051 53.4971 65.6757 52.7614 63.5918 52.1564ZM68.0928 57.4176C67.353 59.0868 66.5372 60.7001 65.6479 62.2526C64.243 61.5626 62.6784 60.9678 60.9872 60.4756C61.4889 59.1197 61.9665 57.722 62.4111 56.2976C62.8051 55.0267 63.17 53.7647 63.5031 52.5179C65.5731 53.1128 67.4886 53.8395 69.2114 54.6843C68.8605 55.6026 68.4957 56.5171 68.0928 57.4176ZM69.385 64.6257C68.4108 63.814 67.2631 63.0732 65.976 62.4162C66.8653 60.8599 67.6849 59.2415 68.4298 57.5673C68.8276 56.668 69.1975 55.7624 69.5395 54.8479C71.1649 55.6736 72.6027 56.602 73.8112 57.6243C72.5888 60.0292 71.104 62.3794 69.385 64.6257ZM70.2984 65.4552C70.0969 65.2536 69.8816 65.057 69.6611 64.8642C71.3802 62.623 72.87 60.2778 74.0963 57.8729C74.3408 58.0936 74.5789 58.3093 74.7994 58.5338C75.619 59.3544 76.2651 60.1941 76.7427 61.0565C76.616 61.2772 76.4906 61.4979 76.3588 61.7136C75.0705 63.8 73.5718 65.7368 71.8907 67.5087C71.4879 66.801 70.9584 66.1211 70.2984 65.4552ZM64.1353 71.6068C64.0086 71.485 63.8731 71.3633 63.7375 71.2466C65.7467 69.4595 67.6482 67.439 69.366 65.2536C69.39 65.2206 69.4128 65.1825 69.4369 65.1546C69.6472 65.3373 69.8486 65.525 70.0361 65.7127C70.7063 66.3837 71.2307 67.0775 71.6234 67.7852C69.727 69.741 67.5861 71.4901 65.2399 73.0185C64.9587 72.5353 64.5888 72.0672 64.1353 71.6068ZM56.9271 76.2452C56.8992 76.2173 56.8751 76.1983 56.8473 76.1742C59.0997 74.9413 61.3343 73.347 63.4601 71.4901C63.6058 71.6119 63.7464 71.7387 63.8769 71.8694C64.3126 72.3108 64.6648 72.761 64.9359 73.2202C62.6404 74.6877 60.1537 75.9395 57.4934 76.9618C57.3439 76.7145 57.1564 76.4748 56.9271 76.2452ZM34.5399 71.4812C36.6707 73.3419 38.9091 74.9363 41.1628 76.1704C41.1349 76.1983 41.1058 76.2173 41.083 76.2452C40.8537 76.4748 40.6662 76.7145 40.5116 76.9618C37.8513 75.9395 35.3684 74.6839 33.0742 73.2202C33.4301 72.6063 33.9267 72.0241 34.5399 71.4812ZM28.5681 65.1508C28.5972 65.1825 28.62 65.2206 28.6479 65.2536C30.3619 67.439 32.2634 69.4595 34.2726 71.2415C34.137 71.3633 34.0015 71.485 33.8697 71.6068C33.4162 72.0622 33.0463 72.5353 32.765 73.0185C30.4227 71.4901 28.283 69.736 26.3866 67.7852C26.8971 66.8568 27.637 65.9715 28.5681 65.1508ZM28.3489 64.8591C28.1285 65.0519 27.9131 65.2536 27.7117 65.4552C27.0466 66.1161 26.5222 66.801 26.1193 67.4998C24.4332 65.7317 22.9396 63.8 21.6563 61.7136C21.5195 61.4979 21.3979 61.2772 21.2674 61.0565C21.8894 59.9315 22.7851 58.8673 23.9138 57.8729C25.1451 60.274 26.6298 62.6179 28.3489 64.8591ZM29.5853 57.5673C30.3252 59.2377 31.1448 60.8549 32.0341 62.4124C30.7457 63.0732 29.5993 63.814 28.6289 64.6207C26.9111 62.3794 25.4213 60.0292 24.1988 57.6243C25.3972 56.616 26.8351 55.6875 28.4743 54.8618C28.8214 55.7713 29.1914 56.6718 29.5853 57.5673ZM35.6027 56.2976C36.0486 57.722 36.5262 59.1197 37.0228 60.4756C35.3316 60.9627 33.7671 61.5626 32.3622 62.2526C31.4767 60.7001 30.6571 59.0868 29.9172 57.4176C29.5195 56.5221 29.1546 55.6127 28.8075 54.6932C30.5164 53.8636 32.4319 53.1318 34.5171 52.5319C34.849 53.7749 35.2049 55.0356 35.6027 56.2976ZM41.406 51.0923C41.7759 53.9296 42.2066 56.6959 42.6842 59.2884C40.8347 59.5421 39.0687 59.9036 37.4155 60.3627C36.4832 57.8488 35.6268 55.1713 34.8958 52.424C36.924 51.852 39.1067 51.4068 41.406 51.0923ZM40.9284 47.031C41.0551 48.2651 41.1995 49.503 41.3541 50.7219C39.0548 51.0314 36.8531 51.4766 34.797 52.0537C34.4841 50.8665 34.1978 49.6666 33.9407 48.4617C36.1133 47.8516 38.4607 47.3645 40.9284 47.031ZM40.5167 42.5016C40.5813 43.359 40.6472 44.148 40.7131 44.8418C40.7637 45.4468 40.8258 46.0556 40.8904 46.6606C38.4176 46.9891 36.0575 47.4723 33.8558 48.0862C33.5707 46.7316 33.3174 45.3757 33.1122 44.0211C35.4152 43.3692 37.9033 42.858 40.5167 42.5016ZM40.4926 42.1351C37.8792 42.4826 35.3836 42.9887 33.0552 43.6457C32.6713 41.114 32.4369 38.6052 32.3951 36.194C34.8072 35.5002 37.4155 34.9523 40.1696 34.5769C40.1924 37.3013 40.333 39.937 40.4926 42.1351ZM48.8194 41.5783C46.0666 41.5821 43.3734 41.7609 40.7878 42.0932C40.6003 39.5007 40.4876 36.9538 40.4698 34.535C43.134 34.1786 45.9349 33.9947 48.8194 33.9858V41.5783ZM57.2223 42.1072C54.6417 41.7698 51.9434 41.5871 49.1856 41.5783V33.9858C52.0562 33.9909 54.8622 34.1786 57.5453 34.5299C57.5263 36.9538 57.4135 39.5045 57.2223 42.1072ZM57.5225 42.1452C57.6808 39.9408 57.8164 37.3064 57.8455 34.5667C60.5806 34.9384 63.189 35.4812 65.62 36.1801C65.5731 38.6001 65.3388 41.128 64.9549 43.6736C62.6316 43.0128 60.1347 42.4965 57.5225 42.1452ZM57.1234 46.6606C57.1842 46.0556 57.2451 45.4468 57.3021 44.8418C57.3629 44.1518 57.4287 43.373 57.4934 42.5206C60.0739 42.872 62.5619 43.392 64.8979 44.063C64.6876 45.4036 64.4393 46.7456 64.1543 48.0862C61.9526 47.4723 59.5925 46.9891 57.1234 46.6606ZM56.656 50.7219C56.8105 49.4979 56.955 48.2651 57.0867 47.0221C59.5405 47.3544 61.8917 47.8288 64.0783 48.4426C63.816 49.6577 63.531 50.8627 63.2168 52.0537C61.1557 51.4766 58.9603 51.0314 56.656 50.7219ZM55.3258 59.2884C55.8034 56.6908 56.2392 53.9245 56.6091 51.0872C58.8945 51.3967 61.081 51.8381 63.1231 52.4101C62.3883 55.1624 61.5256 57.8488 60.5983 60.3678C58.9451 59.9036 57.1754 59.5421 55.3258 59.2884ZM57.3021 68.0059C56.1353 67.6825 54.89 67.4199 53.5877 67.2373C54.1781 65.005 54.7444 62.4302 55.265 59.6499C57.0905 59.8985 58.8374 60.2549 60.4729 60.709C59.4747 63.3827 58.3928 65.8535 57.3021 68.0059ZM60.782 69.3149C59.8408 68.8545 58.8058 68.4562 57.6859 68.1188C58.7906 65.9423 59.8686 63.4715 60.8618 60.8181C62.5328 61.3001 64.0833 61.8911 65.4692 62.571C64.0745 64.9809 62.4998 67.2373 60.782 69.3149ZM61.1139 69.4836C62.8279 67.406 64.4013 65.1458 65.7973 62.7359C67.0718 63.3827 68.2005 64.1184 69.1608 64.9162C69.1316 64.953 69.1037 64.9859 69.0759 65.024C67.3619 67.2094 65.4604 69.2248 63.4601 71.0031C62.7861 70.445 61.9994 69.9338 61.1139 69.4836ZM57.5174 68.4511C58.6082 68.7745 59.6241 69.1551 60.5375 69.5952C58.8666 71.584 57.0538 73.4028 55.1244 75.0111C54.6835 74.8006 54.2009 74.609 53.6866 74.4492C54.9369 72.9766 56.243 70.913 57.5174 68.4511ZM53.494 67.5975C54.7684 67.7713 55.9909 68.0249 57.1336 68.3433C55.8364 70.8623 54.5239 72.9208 53.3014 74.3363C52.6604 74.1588 51.9764 74.018 51.2644 73.9241C52.0004 72.5035 52.7593 70.3131 53.494 67.5975ZM49.1856 67.2982C50.5486 67.3032 51.8788 67.392 53.157 67.5506C52.4121 70.2712 51.6343 72.4604 50.8717 73.8772C50.3282 73.8163 49.762 73.7833 49.1856 73.7783V67.2982ZM47.1384 73.8772C46.3757 72.4604 45.5979 70.2712 44.8581 67.5506C46.1224 67.387 47.4525 67.3032 48.8194 67.2931V73.7783C48.2481 73.7833 47.6818 73.8163 47.1384 73.8772ZM44.7124 74.3363C43.4899 72.9208 42.1788 70.8623 40.8816 68.3433C42.0192 68.03 43.2378 67.7763 44.5211 67.5975C45.2508 70.3181 46.0096 72.5035 46.7495 73.9241C46.0337 74.0129 45.3496 74.1537 44.7124 74.3363ZM42.8907 75.0111C40.9614 73.4028 39.1485 71.584 37.4713 69.6003C38.3897 69.1639 39.4019 68.7796 40.4977 68.4511C41.7709 70.913 43.0782 72.9766 44.3235 74.4441C43.8092 74.609 43.3265 74.7955 42.8907 75.0111ZM36.8961 69.4785C36.0157 69.9338 35.2239 70.445 34.55 70.998C32.5497 69.221 30.6482 67.2094 28.938 65.024C28.9063 64.9859 28.8772 64.9492 28.8493 64.9111C29.8007 64.1235 30.9332 63.3967 32.2165 62.7447C33.6126 65.1508 35.1821 67.406 36.8961 69.4785ZM40.3242 68.1188C39.2094 68.4511 38.1693 68.8507 37.2331 69.3098C35.514 67.2373 33.9457 64.9859 32.5497 62.5811C33.9267 61.9051 35.4773 61.3191 37.1533 60.832C38.1465 63.4766 39.2233 65.9474 40.3242 68.1188ZM44.4223 67.2373C43.12 67.4199 41.8785 67.6825 40.7131 68.0059C39.6211 65.8535 38.5443 63.3827 37.5473 60.7141C39.1714 60.2638 40.9145 59.9074 42.7501 59.655C43.2695 62.4302 43.837 65.005 44.4223 67.2373ZM48.8194 59.2377V66.9278C47.4247 66.9367 46.0666 67.0305 44.7593 67.1942C44.1652 64.9631 43.5887 62.3883 43.0643 59.6119C44.905 59.3734 46.8343 59.2466 48.8194 59.2377ZM48.8194 50.5862V58.8712C46.8204 58.8762 44.867 59.0069 42.9984 59.2466C42.5107 56.649 42.0762 53.8776 41.7063 51.0504C43.9815 50.7549 46.3656 50.5951 48.8194 50.5862ZM48.8194 46.4919V50.2196C46.3605 50.2247 43.9637 50.3845 41.6594 50.6788C41.4998 49.4599 41.3541 48.227 41.2236 46.984C43.6546 46.6745 46.1971 46.5008 48.8194 46.4919ZM48.8194 46.1266C46.2022 46.1304 43.6394 46.2991 41.1856 46.6187C41.045 45.2311 40.9183 43.8385 40.8157 42.4636C43.3734 42.1313 46.0565 41.9524 48.8194 41.9435V46.1266ZM49.1856 46.1266V41.9486C51.9105 41.9575 54.5999 42.1452 57.1944 42.4826C57.0956 43.8524 56.9689 45.235 56.8245 46.6187C54.3694 46.2991 51.8079 46.1304 49.1856 46.1266ZM49.1856 50.2196V46.4919C51.799 46.5008 54.3466 46.6657 56.7915 46.9802C56.6598 48.222 56.5154 49.4599 56.3557 50.6838C54.0514 50.3845 51.6483 50.2247 49.1856 50.2196ZM49.1856 58.8712V50.5862C51.6305 50.59 54.0185 50.7498 56.3089 51.0453C55.939 53.8776 55.4981 56.649 55.0167 59.2517C53.1431 59.0069 51.1846 58.8762 49.1856 58.8712ZM49.1856 59.2377C51.1669 59.2466 53.0962 59.3683 54.9508 59.6081C54.4264 62.3883 53.85 64.9631 53.2508 67.1992C51.9434 67.0305 50.5803 66.9367 49.1856 66.9278V59.2377ZM41.4478 75.9116C39.2005 74.6877 36.9519 73.1035 34.8211 71.2364C35.4773 70.7075 36.2539 70.2141 37.1343 69.7689C38.8065 71.7577 40.6143 73.5715 42.5348 75.195C42.1319 75.4106 41.7671 75.6491 41.4478 75.9116ZM55.4753 75.195C57.3996 73.5766 59.2074 71.7577 60.8758 69.7689C61.7461 70.2141 62.5188 70.7075 63.1801 71.2504C61.048 73.1073 58.8096 74.6927 56.5622 75.9167C56.243 75.6542 55.8832 75.4144 55.4753 75.195ZM52.8201 83.2923C52.4501 83.2085 52.0942 83.0158 51.7521 82.7253C52.3564 82.6264 52.9277 82.4957 53.4661 82.341C54.1679 82.6226 54.8571 82.7963 55.5969 82.861C54.6835 83.0449 53.7512 83.1844 52.8201 83.2923ZM56.5331 80.0808C55.1383 81.4823 52.1778 82.3879 49.0031 82.3879C45.8272 82.3879 42.8717 81.4823 41.4719 80.0808C40.9284 79.5366 40.6523 78.9557 40.6523 78.3596C40.6523 76.1323 44.3982 74.3224 49.0031 74.3224C52.1778 74.3224 55.1383 75.2318 56.5331 76.6346C57.0816 77.1787 57.3578 77.7597 57.3578 78.3596C57.3578 78.9557 57.0816 79.5366 56.5331 80.0808ZM20.2463 64.7094C20.2653 63.5844 20.5504 62.4911 21.0698 61.4371C21.1597 61.5956 21.2484 61.7503 21.3472 61.9102C22.6622 64.0486 24.2039 66.0323 25.9369 67.8461C25.5201 68.6718 25.2807 69.5203 25.2199 70.3879C23.4261 68.7796 21.726 66.8999 20.2463 64.7094ZM25.567 70.6974C25.5898 69.8108 25.8102 68.9534 26.208 68.1277C28.1146 70.0695 30.2504 71.8186 32.5915 73.3419C32.2963 73.933 32.1329 74.538 32.0911 75.157C29.9274 74.0129 27.6876 72.5454 25.567 70.6974ZM34.1319 79.0306C33.7582 78.6602 33.4529 78.2759 33.2046 77.8865C35.7015 78.7908 38.2022 79.3489 40.4318 79.6026C40.5585 79.841 40.7181 80.0668 40.9145 80.2913C38.8914 80.3814 36.6897 80.0668 34.5589 79.4288C34.4132 79.2982 34.2637 79.1663 34.1319 79.0306ZM39.5185 82.1393C39.1625 82.0176 38.8116 81.8856 38.4746 81.7499C39.6502 81.8818 40.8626 81.8057 42.6804 81.5952C43.0833 81.8057 43.5178 81.9935 43.9916 82.1533C42.9933 82.4907 41.9964 82.5947 40.7789 82.4818C40.7739 82.4818 40.7637 82.4818 40.7637 82.4818C40.347 82.379 39.9302 82.2611 39.5185 82.1393ZM58.4865 82.1393C58.0748 82.2611 57.6618 82.374 57.2451 82.4818C57.2413 82.4818 57.2413 82.4818 57.2362 82.4818C56.0188 82.5947 55.0307 82.4907 54.0375 82.1583C54.51 81.9935 54.9508 81.8057 55.3486 81.6003C57.1513 81.8057 58.3599 81.8818 59.5317 81.7499C59.1934 81.8856 58.8425 82.0176 58.4865 82.1393ZM63.4461 79.4288C61.3153 80.0668 59.1187 80.3814 57.1044 80.2913C57.297 80.0668 57.4566 79.841 57.5871 79.6026C59.8078 79.3489 62.3085 78.7959 64.8042 77.8903C64.5521 78.2759 64.2468 78.6602 63.8769 79.0306C63.7413 79.1663 63.5918 79.2982 63.4461 79.4288ZM65.9152 75.162C65.8772 74.538 65.7087 73.9381 65.4135 73.3419C67.7597 71.8186 69.8955 70.0734 71.8021 68.1277C72.2087 68.9623 72.4203 69.826 72.4393 70.7025C70.3174 72.5454 68.0789 74.018 65.9152 75.162ZM72.7902 70.393C72.7294 69.5254 72.49 68.6769 72.0694 67.8512C73.8112 66.0323 75.3517 64.0486 76.6679 61.9102C76.7617 61.7503 76.8503 61.5956 76.9441 61.4371C77.4685 62.5012 77.7447 63.5983 77.7587 64.7183C76.279 66.9037 74.584 68.7847 72.7902 70.393ZM78.1007 64.1894C78.012 63.1202 77.6978 62.0788 77.1696 61.0616C77.7409 60.0621 78.2654 59.05 78.724 58.0175C79.3004 59.1768 79.5955 60.3577 79.6095 61.5728C79.1408 62.4873 78.6353 63.3586 78.1007 64.1894ZM76.8693 49.5449C75.4834 48.3678 73.8252 47.2986 71.9566 46.3511C72.4393 43.8283 72.7053 41.3335 72.7382 38.9375C74.6815 39.9268 76.3829 41.0519 77.7967 42.286C77.7967 44.5133 77.5256 46.8065 76.9682 49.1504C76.939 49.2823 76.9023 49.4129 76.8693 49.5449ZM60.5806 19.8055C61.5776 20.701 62.4251 21.8032 63.1332 23.102C61.1 22.5401 58.9274 22.1038 56.6598 21.7981C56.3279 20.6033 55.9111 19.5569 55.3955 18.7274C57.2083 18.9798 58.9451 19.3413 60.5806 19.8055ZM37.4155 19.8194C39.0497 19.3552 40.7967 18.9899 42.6146 18.7324C42.099 19.562 41.6873 20.6071 41.3541 21.7981C39.0877 22.1076 36.9151 22.5439 34.8819 23.102C35.5799 21.8171 36.4224 20.7149 37.4155 19.8194ZM21.0419 49.1504C20.4896 46.8065 20.2185 44.5082 20.2134 42.2809C21.6132 41.0671 23.3133 39.9459 25.2718 38.9515C25.3086 41.3297 25.5708 43.7954 26.0484 46.2991C24.176 47.2428 22.5178 48.3019 21.1268 49.4738C21.0989 49.366 21.0698 49.2582 21.0419 49.1504ZM16.9108 57.8121C16.9108 56.5221 17.225 55.2652 17.8204 54.0653C18.1713 55.2462 18.602 56.4194 19.0986 57.5723C18.5184 58.6466 18.1764 59.7527 18.0687 60.879C17.6468 59.9975 17.263 59.0779 16.9209 58.1165C16.9159 58.0175 16.9108 57.9148 16.9108 57.8121ZM18.6438 63.5565C18.5463 63.1811 18.4804 62.8056 18.4424 62.4264C18.8921 63.2559 19.3697 64.0524 19.8764 64.8084C19.8764 64.8122 19.8764 64.8172 19.8764 64.8223C19.8764 65.3614 19.9372 65.8954 20.0538 66.4255C19.5344 65.492 19.0657 64.5357 18.6438 63.5565ZM22.4189 70.0594C22.3961 70.0366 22.3721 70.0175 22.3442 70.0087C21.8476 69.3326 21.3839 68.6388 20.9444 67.9311C20.5593 67.0914 20.33 66.234 20.2653 65.3665C21.745 67.4757 23.4261 69.2958 25.1958 70.8521C25.2009 71.7108 25.3884 72.5594 25.7494 73.3851C24.5219 72.4097 23.3881 71.3075 22.4189 70.0594ZM28.1893 76.1374C27.7066 75.677 27.2848 75.2039 26.9339 74.7168C28.7366 75.9395 30.6849 76.92 32.6574 77.6797C32.9285 78.1909 33.2946 78.683 33.7582 79.1663C32.2495 78.6462 30.8027 77.9664 29.4954 77.1496C29.0558 76.8223 28.62 76.4887 28.1893 76.1374ZM69.8208 76.1374C69.3799 76.4938 68.9315 76.8401 68.4767 77.1737C67.1744 77.9892 65.7277 78.6602 64.229 79.1751C64.6876 78.702 65.0575 78.1998 65.3388 77.6848C67.3099 76.9301 69.2583 75.9497 71.0622 74.7257C70.7151 75.209 70.2984 75.6821 69.8208 76.1374ZM75.6608 70.0087C75.638 70.0175 75.6139 70.0366 75.5949 70.0594C74.6207 71.3125 73.4831 72.4135 72.2556 73.3939C72.6166 72.5644 72.8041 71.7146 72.8092 70.8572C74.5789 69.2997 76.26 67.4808 77.7409 65.3804C77.675 66.248 77.4407 67.1016 77.0619 67.94C76.621 68.6439 76.1574 69.3326 75.6608 70.0087ZM77.9512 66.4255C78.0678 65.9004 78.1298 65.3614 78.1298 64.8223C78.6353 64.0626 79.1129 63.2749 79.5626 62.4403C79.5246 62.8145 79.4587 63.1861 79.3662 63.5603C78.9393 64.5357 78.4706 65.4971 77.9512 66.4255ZM79.1965 36.8739C78.5833 36.0774 77.8435 35.3125 77.0049 34.5819C76.7148 33.6763 76.3727 32.7859 75.98 31.9184C76.5843 32.4993 77.1227 33.0992 77.5813 33.7283C78.1805 34.7456 78.7151 35.8008 79.1965 36.8739ZM69.0619 25.2645C67.4037 24.4807 65.5769 23.8008 63.6197 23.2377C62.9825 21.9998 62.2237 20.9305 61.3394 20.0211C62.6404 20.4244 63.8731 20.8988 65.0157 21.4277C65.4604 21.6763 65.9012 21.93 66.3357 22.2014C67.3669 23.0462 68.2803 24.0723 69.0619 25.2645ZM54.0096 17.6721C54.2199 17.8408 54.4162 18.0336 54.6088 18.2581C52.853 18.0475 51.0402 17.9346 49.1856 17.9258V17.3017C50.8147 17.3068 52.4261 17.4324 54.0096 17.6721ZM48.8194 17.2967V17.9258C46.975 17.9346 45.1571 18.0513 43.4013 18.2632C43.5887 18.0374 43.7902 17.8408 44.0005 17.6721C45.5739 17.4324 47.1852 17.3068 48.8194 17.2967ZM20.4516 33.7093C20.9064 33.0954 21.4308 32.4993 22.0262 31.9323C21.6272 32.8088 21.2851 33.7093 20.995 34.6289C20.1425 35.3645 19.4077 36.1433 18.7946 36.9398C19.2912 35.8288 19.8435 34.7506 20.4516 33.7093ZM15.9417 49.7795C16.0025 48.8549 16.2179 47.9505 16.584 47.069C16.7056 49.2404 17.0755 51.4068 17.6696 53.5402C17.0616 54.6602 16.7005 55.8144 16.5878 57.0003C16.1571 54.853 15.9328 52.6447 15.9328 50.4073C15.9328 50.1968 15.9366 49.985 15.9417 49.7795ZM15.3704 50.3274C15.3704 50.3515 15.3754 50.3693 15.3843 50.3934C15.3843 50.3985 15.3792 50.4023 15.3792 50.4073C15.3792 59.3963 18.8782 67.8512 25.2287 74.2095C31.5806 80.5678 40.0201 84.066 49.0031 84.066C67.5304 84.066 82.6068 68.9813 82.6258 50.4352C82.6397 50.4023 82.6486 50.3655 82.6486 50.3274C82.6486 50.0319 82.6296 49.7415 82.6017 49.451C82.3635 40.8185 78.9026 32.7339 72.7763 26.6052C66.4257 20.2469 57.9861 16.7437 49.0031 16.7437C40.0239 16.7437 31.5806 20.2469 25.2287 26.6052C19.0657 32.7758 15.5997 40.9162 15.4033 49.6146C15.3792 49.8543 15.3704 50.089 15.3704 50.3274Z" fill="#231F20"/>
<mask id="mask0_47_12" style="mask-type:luminance" maskUnits="userSpaceOnUse" x="3" y="34" width="94" height="25">
<path d="M3.20001 34.5515H96.6V58.5794H3.20001V34.5515Z" fill="white"/>
</mask>
<g mask="url(#mask0_47_12)">
<path d="M84.5969 56.9635C84.0864 57.0053 83.7583 57.3478 83.8621 57.722C83.9648 58.1025 84.4613 58.3739 84.9719 58.3321C88.5405 58.0315 91.4073 57.4924 93.3785 56.7238C95.4725 55.9082 96.619 54.82 96.619 53.4653C96.619 50.6508 91.2616 47.3873 82.6067 44.3914C74.2508 41.4983 62.7253 38.7599 50.0089 36.87C43.5836 35.9175 37.4763 35.2706 31.9264 34.9142C23.8897 34.398 17.0045 34.502 12.0361 35.1768C6.7623 35.8947 3.54458 37.3064 3.21267 39.3789C3.19367 39.5006 3.18353 39.6224 3.18353 39.7391C3.18353 40.9072 4.0551 42.1261 5.6665 43.359C7.21708 44.536 9.47455 45.7511 12.3122 46.951C12.781 47.1489 13.3472 47.0499 13.5765 46.7214C13.8058 46.398 13.6145 45.9756 13.1458 45.774C10.4804 44.6489 8.37749 43.5239 6.97765 42.4547C5.74124 41.5123 5.07109 40.6345 5.07109 39.8608C5.07109 39.786 5.08123 39.7163 5.09009 39.6554C5.32446 38.1967 8.03671 37.1415 12.5276 36.5327C17.3238 35.8756 24.0392 35.7869 31.9264 36.2879C37.4155 36.6405 43.457 37.2823 49.7936 38.2247C62.3554 40.0866 73.7175 42.7832 81.9277 45.6243C89.8327 48.3627 94.7276 51.1531 94.7276 53.3423C94.7276 54.182 93.8979 54.9049 92.3815 55.4947C90.5965 56.1898 87.9413 56.6819 84.5969 56.9635Z" fill="#231F20"/>
</g>
<mask id="mask1_47_12" style="mask-type:luminance" maskUnits="userSpaceOnUse" x="75" y="15" width="17" height="17">
<path d="M75.6823 15.8H91.8976V31.9539H75.6823V15.8Z" fill="white"/>
</mask>
<g mask="url(#mask1_47_12)">
<path fill-rule="evenodd" clip-rule="evenodd" d="M83.7215 15.975H83.7684C84.0864 20.1721 87.4308 23.5243 91.6227 23.8389V23.8896C87.4308 24.2042 84.0864 27.5565 83.7684 31.7535H83.7215C83.4023 27.5565 80.0592 24.2042 75.8672 23.8896V23.8389C80.0592 23.5243 83.4023 20.1721 83.7215 15.975Z" fill="#231F20"/>
</g>
<path fill-rule="evenodd" clip-rule="evenodd" d="M91.7494 30.4547H91.7722C91.9039 32.2418 93.3266 33.6675 95.1064 33.7981V33.8222C93.3266 33.9529 91.9039 35.3785 91.7722 37.1606H91.7494C91.6176 35.3785 90.1937 33.9529 88.41 33.8222V33.7981C90.1937 33.6675 91.6176 32.2418 91.7494 30.4547Z" fill="#231F20"/>
<path d="M14.196 52.438L21.6233 51.4652C21.8108 51.4411 21.9401 51.2724 21.916 51.0847L21.5271 48.1078C21.5017 47.9188 21.3345 47.7907 21.147 47.8148L17.7836 48.2549C17.5923 48.2803 17.4124 48.1522 17.3871 47.9645L16.5409 41.4882C16.5168 41.2967 16.347 41.1546 16.1583 41.18L12.7962 41.6201C12.6087 41.6442 12.463 41.8142 12.4883 42.0057L13.8121 52.1463C13.8375 52.334 14.0047 52.4634 14.196 52.438Z" stroke="white" stroke-width="11.2698"/>
<path d="M22.8509 51.3497L26.2244 51.0009C26.4132 50.9819 26.5462 50.817 26.5272 50.628L25.477 40.4557C25.458 40.2642 25.2807 40.1323 25.0919 40.1513L21.7184 40.5001C21.5258 40.5204 21.3928 40.684 21.4131 40.8768L22.462 51.0491C22.4823 51.2381 22.6621 51.37 22.8509 51.3497Z" stroke="white" stroke-width="11.2698"/>
<path d="M27.438 50.864L34.9072 50.2957C35.096 50.2818 35.234 50.1207 35.2188 49.9317L34.9921 46.9371C34.9781 46.7481 34.8173 46.6099 34.6285 46.6251L31.2474 46.8813C31.0548 46.8965 30.8813 46.7595 30.8661 46.5705L30.372 40.0575C30.3568 39.866 30.1959 39.7138 30.0071 39.729L26.6247 39.9852C26.436 40.0004 26.2814 40.1628 26.2966 40.3543L27.0707 50.5519C27.0846 50.7409 27.2455 50.8792 27.438 50.864Z" stroke="white" stroke-width="11.2698"/>
<path d="M36.0537 50.2044L43.8256 49.9304C45.4307 49.8734 46.5582 48.6608 46.5024 47.0512L46.4479 45.5279C46.3922 43.9171 45.1811 42.787 43.5761 42.8441L39.8884 42.9747C39.6945 42.9811 39.54 42.8365 39.5336 42.6462C39.5273 42.4534 39.6705 42.2987 39.8643 42.2923L45.9881 42.0754C46.1768 42.0691 46.3213 41.9144 46.3149 41.7254L46.2288 39.2724C46.2212 39.0796 46.0666 38.935 45.8779 38.9426L38.1059 39.2166C36.5009 39.2736 35.3683 40.4849 35.4254 42.0957L35.4798 43.6229C35.5356 45.2299 36.7504 46.3587 38.3542 46.3029L42.0432 46.1723C42.232 46.1659 42.3878 46.3105 42.3941 46.5033C42.4005 46.6923 42.256 46.8483 42.0673 46.8546L35.9435 47.0703C35.7509 47.0766 35.6065 47.2326 35.6128 47.4216L35.699 49.8772C35.7066 50.0662 35.8611 50.2107 36.0537 50.2044Z" stroke="white" stroke-width="11.2698"/>
<path d="M47.4183 49.8493L50.8096 49.8721C50.9984 49.8734 51.1491 49.725 51.1504 49.5347L51.1707 46.5325C51.1719 46.3435 51.3227 46.1938 51.5152 46.1951C51.7052 46.1964 51.8535 46.3613 51.8522 46.5541L51.8319 49.5398C51.8307 49.73 51.9928 49.881 52.1816 49.8822L55.5728 49.9051C55.7667 49.9063 55.9174 49.7567 55.9187 49.5677L55.9871 39.3421C55.9884 39.1481 55.8262 38.9971 55.6337 38.9959L52.2424 38.973C52.0536 38.9718 51.9029 39.1202 51.9016 39.3142L51.8813 42.3126C51.8801 42.5029 51.7293 42.6513 51.5393 42.65C51.3467 42.6488 51.1985 42.4978 51.1998 42.3088L51.2201 39.3091C51.2213 39.1164 51.0592 38.9654 50.8691 38.9642L47.4779 38.9413C47.2853 38.9401 47.1346 39.0885 47.1333 39.2812L47.0649 49.5081C47.0636 49.6971 47.2283 49.848 47.4183 49.8493Z" stroke="white" stroke-width="11.2698"/>
<path d="M59.1744 50.0433L62.4656 50.1917C64.0732 50.2628 65.2944 49.1453 65.3666 47.5358L65.6047 42.1985C65.677 40.5889 64.5596 39.365 62.952 39.2939L59.6608 39.1455C58.057 39.0745 56.832 40.1919 56.7598 41.8015L56.5217 47.1388C56.4494 48.7483 57.5693 49.9723 59.1744 50.0433ZM60.9619 46.9853C60.768 46.9764 60.6261 46.8204 60.6337 46.6302L60.8111 42.6792C60.82 42.4864 60.9758 42.3444 61.1683 42.352C61.3571 42.3609 61.5003 42.5169 61.4914 42.7097L61.3153 46.6606C61.3064 46.8509 61.1506 46.9929 60.9619 46.9853Z" stroke="white" stroke-width="11.2698"/>
<path d="M68.4931 50.576L71.7767 50.8487C73.3805 50.9806 74.6435 49.9101 74.7765 48.3044L75.2161 42.9798C75.3491 41.374 74.28 40.1095 72.6762 39.9763L69.3926 39.7049C67.7913 39.5717 66.5258 40.6422 66.3927 42.2479L65.9519 47.5725C65.8189 49.1783 66.8919 50.4428 68.4931 50.576ZM70.3946 47.5865C70.2021 47.5713 70.0652 47.4089 70.0817 47.2199L70.4073 43.2791C70.4238 43.0863 70.5846 42.9493 70.7772 42.9658C70.966 42.981 71.1028 43.1434 71.0863 43.3349L70.7607 47.277C70.7455 47.466 70.5834 47.603 70.3946 47.5865Z" stroke="white" stroke-width="11.2698"/>
<path d="M75.3466 51.1468L85.4811 52.4177C85.6699 52.4418 85.8358 52.3112 85.8599 52.1235L86.1652 49.6857C86.188 49.498 86.0588 49.3305 85.87 49.3064L79.7906 48.5441C79.5993 48.52 79.4688 48.3526 79.4929 48.1649C79.517 47.9734 79.6804 47.8694 79.8755 47.8668L85.8042 47.8554C86.1462 47.858 86.4236 47.6182 86.4667 47.2783L87.1293 41.9765C87.1533 41.785 87.0241 41.6176 86.8354 41.5935L76.7008 40.3226C76.5095 40.2985 76.3423 40.4291 76.3182 40.6207L76.0142 43.0547C75.9901 43.2436 76.1206 43.4098 76.3119 43.4339L82.3914 44.1975C82.5801 44.2203 82.7093 44.3877 82.6853 44.5792C82.6625 44.767 82.499 44.871 82.3065 44.8735L76.3778 44.8849C76.0332 44.8849 75.7545 45.1259 75.7127 45.4633L75.0489 50.7676C75.0261 50.9553 75.1553 51.1227 75.3466 51.1468Z" stroke="white" stroke-width="11.2698"/>
<path d="M14.1953 52.4378L21.6227 51.4662C21.8115 51.4409 21.9407 51.2722 21.9153 51.0832L21.5277 48.1089C21.5023 47.9199 21.3339 47.7905 21.1451 47.8159L17.783 48.256C17.5942 48.2801 17.4131 48.1533 17.3877 47.963L16.5415 41.488C16.5174 41.2978 16.3477 41.1557 16.1589 41.1798L12.7955 41.6199C12.6067 41.6453 12.4649 41.8152 12.4889 42.0042L13.814 52.1448C13.8381 52.3338 14.0066 52.4632 14.1953 52.4378Z" fill="#231F20"/>
<path d="M22.8504 51.3504L26.2239 51.0016C26.4139 50.9813 26.5469 50.8164 26.5279 50.6274L25.4777 40.4551C25.4587 40.2649 25.2801 40.1329 25.0901 40.152L21.7178 40.5008C21.5278 40.5211 21.3948 40.6847 21.4138 40.8749L22.464 51.0472C22.483 51.2375 22.6616 51.3694 22.8504 51.3504Z" fill="#231F20"/>
<path d="M27.4372 50.8638L34.9051 50.2956C35.0963 50.2817 35.2344 50.1206 35.2192 49.9303L34.9925 46.9395C34.9773 46.7493 34.8176 46.611 34.6276 46.625L31.2452 46.8824C31.0552 46.8964 30.8816 46.7594 30.8664 46.5692L30.3724 40.0574C30.3584 39.8671 30.1963 39.7149 30.0063 39.7289L26.6251 39.9863C26.4351 40.0016 26.2831 40.1626 26.2983 40.3529L27.0723 50.5506C27.0863 50.7408 27.2471 50.8791 27.4372 50.8638Z" fill="#231F20"/>
<path d="M36.0527 50.2042L43.8246 49.9303C45.4297 49.8732 46.5597 48.6606 46.5027 47.0523L46.4495 45.5265C46.3925 43.9182 45.1814 42.7881 43.575 42.8439L39.8861 42.9745C39.696 42.9809 39.5415 42.8363 39.5339 42.646C39.5276 42.4545 39.672 42.2998 39.862 42.2934L45.9871 42.0765C46.1771 42.0702 46.3215 41.9154 46.3152 41.7239L46.229 39.2722C46.2227 39.0807 46.0669 38.9361 45.8769 38.9424L38.1049 39.2176C36.4999 39.2734 35.3699 40.4873 35.4269 42.0943L35.4801 43.6214C35.5371 45.2284 36.7494 46.3598 38.3545 46.3027L42.0435 46.1734C42.2335 46.1657 42.388 46.3103 42.3956 46.5019C42.402 46.6921 42.2576 46.8469 42.0675 46.8545L35.9425 47.0701C35.7524 47.0764 35.608 47.2324 35.6144 47.4227L35.7005 49.8757C35.7068 50.066 35.8627 50.2106 36.0527 50.2042Z" fill="#231F20"/>
<path d="M47.4171 49.8498L50.8084 49.8726C50.9984 49.8739 51.1491 49.7242 51.1517 49.534L51.1719 46.5343C51.1732 46.3428 51.3239 46.1944 51.514 46.1956C51.7053 46.1969 51.8535 46.3618 51.8522 46.552L51.8319 49.539C51.8307 49.7293 51.9928 49.8802 52.1841 49.8815L55.5741 49.9043C55.7654 49.9056 55.9162 49.7572 55.9174 49.5657L55.9871 39.3401C55.9884 39.1499 55.825 38.9976 55.6349 38.9964L52.2437 38.9736C52.0536 38.9723 51.9029 39.1219 51.9016 39.3122L51.8813 42.3119C51.8801 42.5034 51.7293 42.6518 51.538 42.6505C51.348 42.6493 51.1985 42.4983 51.1998 42.3081L51.2201 39.3084C51.2213 39.1169 51.0592 38.9659 50.8679 38.9647L47.4779 38.9418C47.2866 38.9406 47.1358 39.089 47.1346 39.2805L47.0662 49.5061C47.0649 49.6976 47.2271 49.8485 47.4171 49.8498Z" fill="#231F20"/>
<path d="M59.1734 50.0438L62.4659 50.1909C64.071 50.2632 65.2934 49.1445 65.3657 47.5362L65.6038 42.1977C65.676 40.5894 64.5587 39.3654 62.9536 39.2944L59.6612 39.1472C58.0548 39.0749 56.8324 40.1936 56.7614 41.8007L56.522 47.1405C56.4511 48.7475 57.5684 49.9715 59.1734 50.0438ZM60.9597 46.9845C60.7696 46.9756 60.6265 46.8196 60.6354 46.6293L60.8114 42.6784C60.8203 42.4881 60.9761 42.3448 61.1674 42.3537C61.3574 42.3613 61.5006 42.5185 61.4917 42.7088L61.3156 46.6598C61.3068 46.85 61.1509 46.9933 60.9597 46.9845Z" fill="#231F20"/>
<path d="M68.4923 50.5757L71.7772 50.8484C73.3784 50.9815 74.6427 49.9098 74.7757 48.3053L75.2153 42.9794C75.3483 41.3762 74.2779 40.1104 72.6766 39.9772L69.3917 39.7045C67.7905 39.5726 66.5262 40.6444 66.3944 42.2476L65.9536 47.5747C65.8206 49.1779 66.891 50.4425 68.4923 50.5757ZM70.3938 47.5861C70.2038 47.5709 70.0669 47.4085 70.0821 47.2183L70.4077 43.2788C70.4242 43.0885 70.5851 42.9502 70.7751 42.9667C70.9651 42.982 71.1032 43.1443 71.0867 43.3346L70.7612 47.2754C70.7447 47.4656 70.5838 47.6026 70.3938 47.5861Z" fill="#231F20"/>
<path d="M75.3456 51.147L85.4802 52.4179C85.6702 52.442 85.8374 52.3114 85.8602 52.1224L86.1655 49.6871C86.1896 49.4969 86.0591 49.3295 85.8704 49.3066L79.7896 48.5431C79.5996 48.5202 79.4704 48.3528 79.4932 48.1626C79.5173 47.9736 79.6807 47.8708 79.8732 47.867L85.8045 47.8556C86.1478 47.8569 86.424 47.6172 86.467 47.2785L87.1308 41.9755C87.1537 41.7852 87.0244 41.6178 86.8344 41.595L76.6999 40.3228C76.5111 40.3 76.3439 40.4293 76.3198 40.6196L76.0158 43.0549C75.9917 43.2438 76.1222 43.4113 76.311 43.4354L82.3917 44.1977C82.5804 44.2218 82.7109 44.3892 82.6868 44.5782C82.664 44.7684 82.4994 44.8712 82.3068 44.8737L76.3768 44.8864C76.0335 44.8838 75.7561 45.1248 75.7143 45.4622L75.0505 50.7665C75.0264 50.9555 75.1569 51.1229 75.3456 51.147Z" fill="#231F20"/>
<path d="M27.7319 55.907L26.0939 56.0668L25.7126 52.1603L30.1972 51.7201L30.2909 52.6866L27.4444 52.9657L27.5039 53.5783L29.9109 53.3424L29.9843 54.0945L27.5774 54.3304L27.7319 55.907Z" stroke="#231F20" stroke-width="2.73212"/>
<path d="M33.7291 55.4732C32.7625 55.543 32.0379 55.3958 31.5527 55.0305C31.1232 54.7071 30.8863 54.2416 30.842 53.6315C30.7976 53.024 30.9649 52.5293 31.3424 52.1463C31.7693 51.715 32.466 51.4639 33.4326 51.3941C34.3992 51.3231 35.1251 51.4702 35.6103 51.8355C36.0397 52.159 36.2754 52.6245 36.3197 53.232C36.364 53.8421 36.1981 54.338 35.8206 54.7198C35.3924 55.151 34.6956 55.4022 33.7291 55.4732ZM33.6531 54.423C34.0496 54.3938 34.3321 54.2581 34.5006 54.0184C34.6361 53.8231 34.6944 53.6011 34.6766 53.3525C34.6589 53.1026 34.569 52.8933 34.4055 52.7221C34.2041 52.5065 33.9052 52.4126 33.5086 52.4418C33.1134 52.471 32.8296 52.6067 32.6599 52.849C32.5231 53.0417 32.4648 53.2624 32.4825 53.5123C32.5015 53.7609 32.5915 53.9727 32.7536 54.1452C32.9576 54.3583 33.2565 54.4509 33.6531 54.423Z" stroke="#231F20" stroke-width="2.73213"/>
<path d="M39.6147 55.1232C38.6469 55.1676 37.9248 55.0014 37.4497 54.6234C37.0291 54.2886 36.8049 53.8155 36.777 53.2054C36.7492 52.5966 36.9291 52.1057 37.3167 51.7341C37.755 51.3143 38.4581 51.0822 39.426 51.0378C40.3951 50.9921 41.1159 51.1595 41.591 51.5375C42.0115 51.8724 42.2358 52.3442 42.2636 52.9517C42.2915 53.5618 42.1116 54.0539 41.724 54.4256C41.2856 54.8454 40.5826 55.0788 39.6147 55.1232ZM39.5666 54.0704C39.9631 54.0527 40.2481 53.9246 40.4242 53.6887C40.5648 53.4984 40.6294 53.2777 40.618 53.0278C40.6066 52.778 40.5218 52.5661 40.3634 52.3911C40.1683 52.1692 39.8719 52.0677 39.4741 52.0867C39.0776 52.1045 38.7913 52.2326 38.6139 52.471C38.4733 52.66 38.4087 52.8794 38.4201 53.1293C38.4315 53.3792 38.5164 53.5923 38.6735 53.7698C38.8724 53.988 39.1688 54.0895 39.5666 54.0704Z" stroke="#231F20" stroke-width="2.73212"/>
<path d="M45.8868 54.8365L44.2424 54.872L44.1791 51.918L42.6437 51.951L42.6234 50.9794L47.3385 50.8779L47.3588 51.8495L45.8234 51.8825L45.8868 54.8365Z" stroke="#231F20" stroke-width="2.73213"/>
<path d="M54.154 54.8339L52.7821 54.8213L51.8383 52.263L50.8476 54.8035L49.4769 54.7908L47.6274 50.8513L49.2932 50.8665L50.2548 53.3677L51.3316 50.8842L52.3703 50.8944L53.4028 53.3956L54.4087 50.9122L56.0758 50.9274L54.154 54.8339Z" stroke="#231F20" stroke-width="2.73213"/>
<path d="M61.1975 55.0838L56.4799 54.8923L56.6383 50.9705L61.1405 51.1519L61.1013 52.1222L58.2433 52.0068L58.218 52.6219L60.6338 52.7196L60.6034 53.4743L58.1876 53.3766L58.1635 53.9892L61.2368 54.1123L61.1975 55.0838Z" stroke="#231F20" stroke-width="2.73213"/>
<path d="M67.956 55.5252L66.2927 55.4136L65.9671 54.7465L63.5006 54.5803L63.0889 55.1967L61.4256 55.0851L64.1923 51.3396L65.7163 51.4424L67.956 55.5252ZM65.4794 53.7406L64.8802 52.5078L64.1188 53.6493L65.4794 53.7406Z" stroke="#231F20" stroke-width="2.73213"/>
<path d="M73.7264 56.0833L72.1783 55.9349C72.1175 55.8296 72.0795 55.7002 72.0656 55.5442C72.0516 55.4237 72.0238 55.3045 71.9845 55.1865C71.9439 55.0686 71.8654 54.9658 71.7489 54.8783C71.6323 54.7908 71.4512 54.7325 71.2067 54.7033L70.1438 54.6018L70.0348 55.7294L68.3981 55.5721L68.7731 51.6643L71.4359 51.9192C72.0719 51.9814 72.5812 52.0778 72.9625 52.2109C73.3438 52.3441 73.6149 52.5204 73.7745 52.7424C73.9354 52.9644 73.9987 53.2383 73.9671 53.5668C73.9417 53.8421 73.8568 54.0666 73.715 54.2416C73.5731 54.4166 73.3628 54.546 73.0841 54.6285C73.3324 54.7604 73.4882 54.905 73.5515 55.0622C73.6136 55.2195 73.6453 55.3895 73.6465 55.5708C73.6491 55.7319 73.6757 55.9032 73.7264 56.0833ZM70.2363 53.6379L71.1712 53.7241C71.4334 53.7495 71.6399 53.7584 71.7932 53.7482C71.9452 53.7393 72.0592 53.7178 72.1352 53.6835C72.21 53.6505 72.2606 53.6087 72.286 53.5605C72.3101 53.5136 72.3253 53.4628 72.3303 53.4096C72.3354 53.3575 72.3303 53.3043 72.3151 53.2523C72.2999 53.199 72.2581 53.1495 72.191 53.1013C72.1238 53.0531 72.0149 53.01 71.8667 52.972C71.7185 52.9339 71.5145 52.9035 71.2535 52.8781L70.3173 52.7881L70.2363 53.6379Z" stroke="#231F20" stroke-width="2.73213"/>
<path d="M27.7317 55.907L26.095 56.0694L25.715 52.1628L30.1944 51.7214L30.2856 52.6905L27.4429 52.9695L27.5037 53.5783L29.9107 53.3399L29.9867 54.0907L27.5797 54.3292L27.7317 55.907Z" fill="#FEFEFE"/>
<path d="M33.7258 55.4771C32.7592 55.5456 32.0359 55.396 31.557 55.0307C31.1238 54.7098 30.8856 54.243 30.8425 53.6304C30.7982 53.0254 30.9654 52.532 31.3442 52.149C31.7699 51.7164 32.4653 51.4666 33.4319 51.3981C34.401 51.3271 35.1257 51.4742 35.6058 51.8395C36.0378 52.1616 36.2759 52.6246 36.3203 53.2296C36.3633 53.8422 36.1961 54.3394 35.8186 54.7212C35.393 55.155 34.6949 55.4061 33.7258 55.4771ZM33.6498 54.4269C34.0451 54.3965 34.3263 54.2621 34.496 54.0211C34.6341 53.8257 34.6949 53.6025 34.6785 53.3514C34.6607 53.1053 34.5695 52.8948 34.4048 52.7223C34.2021 52.5092 33.9032 52.4178 33.5079 52.4483C33.1127 52.4762 32.8302 52.6094 32.6617 52.8491C32.5261 53.0419 32.4666 53.2626 32.4843 53.5086C32.5008 53.7598 32.5908 53.9729 32.7529 54.1479C32.9556 54.361 33.2546 54.4548 33.6498 54.4269Z" fill="#FEFEFE"/>
<path d="M39.6133 55.124C38.6467 55.1684 37.9259 55.0009 37.4496 54.6217C37.0302 54.2868 36.806 53.8137 36.7756 53.2011C36.7477 52.5961 36.9289 52.1078 37.3178 51.7349C37.7561 51.3163 38.4592 51.0842 39.4258 51.0398C40.3949 50.9967 41.1157 51.1641 41.5895 51.5421C42.0114 51.8744 42.2356 52.3424 42.2635 52.9474C42.2939 53.5601 42.1127 54.0535 41.7213 54.4289C41.2855 54.8487 40.5824 55.0808 39.6133 55.124ZM39.5626 54.0687C39.9579 54.0522 40.2429 53.9254 40.419 53.6882C40.5634 53.4954 40.6293 53.2747 40.6166 53.0236C40.6065 52.7775 40.5203 52.5669 40.3582 52.3944C40.1618 52.175 39.8667 52.0735 39.4714 52.09C39.0762 52.1103 38.7899 52.2397 38.615 52.4756C38.4757 52.6621 38.4123 52.879 38.4225 53.125C38.4351 53.3762 38.52 53.5905 38.6758 53.7694C38.8709 53.99 39.1674 54.089 39.5626 54.0687Z" fill="#FEFEFE"/>
<path d="M45.8876 54.8369L44.2407 54.8724L44.1799 51.9196L42.6445 51.9501L42.6192 50.976L47.3368 50.8745L47.3622 51.8486L45.8268 51.8841L45.8876 54.8369Z" fill="#FEFEFE"/>
<path d="M54.1529 54.8344L52.7796 54.8191L51.8371 52.2672L50.849 54.8039L49.4758 54.7887L47.6262 50.8517L49.2934 50.8669L50.2561 53.3681L51.3304 50.8872L52.3692 50.8973L53.4029 53.3935L54.4062 50.9126L56.0734 50.9278L54.1529 54.8344Z" fill="#FEFEFE"/>
<path d="M61.1967 55.083L56.4791 54.8902L56.6362 50.9684L61.1359 51.151L61.0954 52.1201L58.2425 52.0084L58.2222 52.6223L60.6342 52.7187L60.6038 53.4747L58.1918 53.3783L58.1665 53.9922L61.2372 54.1139L61.1967 55.083Z" fill="#FEFEFE"/>
<path d="M67.9523 55.5233L66.2902 55.4117L65.971 54.742L63.5032 54.5796L63.0877 55.1986L61.4257 55.087L64.1924 51.3428L65.7126 51.4442L67.9523 55.5233ZM65.4744 53.7425L64.8815 52.5046L64.1164 53.6512L65.4744 53.7425Z" fill="#FEFEFE"/>
<path d="M73.7242 56.0828L72.1787 55.9357C72.1179 55.8304 72.0786 55.6998 72.0621 55.545C72.0444 55.4233 72.0165 55.304 71.976 55.1848C71.938 55.0668 71.8607 54.9641 71.7429 54.8753C71.6276 54.7878 71.449 54.7307 71.2058 54.7028L70.1416 54.6014L70.0352 55.7277L68.3985 55.5704L68.7735 51.6638L71.4338 51.9226C72.0685 51.9834 72.5765 52.0798 72.959 52.2118C73.3442 52.3437 73.6153 52.5212 73.7749 52.7445C73.9332 52.9652 73.9978 53.2391 73.9674 53.5664C73.9396 53.8403 73.8534 54.0661 73.709 54.2411C73.5671 54.4136 73.3568 54.543 73.0807 54.6267C73.3302 54.7586 73.4873 54.9045 73.5519 55.063C73.6153 55.219 73.6457 55.3877 73.6431 55.5704C73.6457 55.7289 73.6735 55.9002 73.7242 56.0828ZM70.2379 53.6374L71.1703 53.7236C71.4338 53.7477 71.6416 53.7566 71.7936 53.749C71.9456 53.7389 72.0583 53.7173 72.1331 53.6831C72.2066 53.6501 72.256 53.6095 72.28 53.5613C72.3066 53.5144 72.3231 53.4636 72.3307 53.4091C72.3332 53.3558 72.3269 53.3025 72.3104 53.2518C72.2965 53.1985 72.256 53.1491 72.1888 53.1047C72.1204 53.0578 72.0127 53.0159 71.8645 52.9778C71.7188 52.9373 71.5149 52.9055 71.2514 52.8814L70.319 52.7901L70.2379 53.6374Z" fill="#FEFEFE"/>
</svg>
