<svg width="100" height="100" viewBox="0 0 100 100" fill="none" xmlns="http://www.w3.org/2000/svg">
<path d="M16.57 43.9183C16.5409 44.5694 16.5232 45.2257 16.532 45.8819C16.3914 46.1492 16.2609 46.4215 16.1431 46.6939C16.2457 45.7565 16.3914 44.8279 16.57 43.9183ZM29.9502 23.3604C29.3548 24.0254 28.8164 24.7665 28.3249 25.5735C27.2062 26.136 26.1751 26.7453 25.2389 27.4028C26.6767 25.9155 28.2552 24.5562 29.9502 23.3604ZM72.7712 27.3977C71.835 26.7415 70.8 26.1271 69.6801 25.5684C69.1886 24.7526 68.6401 24.0077 68.0409 23.3363C69.5775 24.4194 71.0344 25.6394 72.3873 26.9949C72.5178 27.1203 72.6445 27.2622 72.7712 27.3977ZM81.478 45.8781C81.492 45.2117 81.473 44.5555 81.44 43.8993C81.6186 44.8089 81.7542 45.7235 81.8568 46.6521C81.7453 46.3937 81.6186 46.1314 81.478 45.8781ZM81.3463 57.3288C81.2766 56.0772 80.9257 54.8573 80.3075 53.6715C80.9257 51.4913 81.3045 49.2731 81.4312 47.0549C81.7631 47.8518 81.9645 48.6638 82.0544 49.4834C82.0582 49.7887 82.0722 50.0978 82.0722 50.4069C82.0722 52.762 81.8239 55.0777 81.3463 57.3288ZM71.6424 74.5284C71.7223 74.4119 71.7919 74.2903 71.8629 74.1674C72.1251 73.971 72.3785 73.7645 72.6356 73.5581C72.5508 73.6429 72.4709 73.7367 72.3873 73.8203C72.1441 74.0648 71.8907 74.2941 71.6424 74.5284ZM25.3554 73.5391C25.6139 73.7506 25.871 73.9622 26.1333 74.1585C26.2029 74.2801 26.2789 74.4018 26.3575 74.5246C26.1092 74.2903 25.8609 74.0597 25.6177 73.8203C25.529 73.7265 25.4441 73.6328 25.3554 73.5391ZM19.8524 42.6046C19.8802 44.762 20.1526 46.9751 20.6859 49.2351C20.729 49.4036 20.7708 49.5734 20.8126 49.7419C20.5124 50.0041 20.2273 50.2714 19.9562 50.5438C19.1315 51.3685 18.4525 52.2223 17.9281 53.0901C17.3327 50.863 16.9957 48.6017 16.9209 46.3379C17.5898 45.0242 18.5792 43.7726 19.8524 42.6046ZM18.0256 38.8156C18.6679 37.5779 19.6003 36.4061 20.7847 35.3179C20.1893 37.4183 19.8764 39.6175 19.8473 41.8825C19.5243 42.1638 19.2152 42.4501 18.9251 42.7364C18.1105 43.556 17.4403 44.3908 16.9019 45.2497C16.907 43.955 17.0008 42.6654 17.1781 41.3859C17.4264 40.5131 17.7127 39.6555 18.0256 38.8156ZM23.0701 29.887C22.8459 30.2772 22.6305 30.675 22.4291 31.0791C22.1757 31.2995 21.9325 31.5149 21.7032 31.7442C22.1377 31.107 22.5925 30.4824 23.0701 29.887ZM27.0884 28.0261C25.6037 28.7811 24.2837 29.6058 23.1448 30.4926C23.5059 29.8313 23.9037 29.1839 24.3306 28.5505C25.3884 27.684 26.6159 26.8821 27.979 26.1638C27.6547 26.7554 27.3557 27.3736 27.0884 28.0261ZM34.175 23.6885C33.8938 24.275 33.6404 24.9034 33.4162 25.5646C32.4699 25.8408 31.5514 26.1461 30.6621 26.4742C29.5752 26.8821 28.5592 27.3128 27.604 27.7778C27.8992 27.0975 28.226 26.4552 28.5871 25.8497C30.2681 25.0148 32.1468 24.2889 34.175 23.6885ZM31.6034 22.2582C32.086 21.958 32.5725 21.6717 33.0691 21.4006C34.1788 20.8888 35.3836 20.434 36.6567 20.0451C35.7763 20.9445 35.0225 22.0099 34.3904 23.2426C32.4319 23.8101 30.6013 24.4904 28.9481 25.2682C29.7107 24.1053 30.6013 23.0981 31.6034 22.2582ZM37.2331 19.4915C37.1482 19.5105 37.0646 19.5333 36.9798 19.5624C37.0836 19.5194 37.1862 19.4826 37.2889 19.4446C37.2699 19.4586 37.2521 19.4725 37.2331 19.4915ZM42.8958 18.3286C41.1995 18.549 39.5653 18.8682 38.0147 19.2761C38.0249 19.2432 38.0287 19.2052 38.0249 19.1723C39.7389 18.568 41.5137 18.0993 43.3455 17.7851C43.1859 17.9485 43.0364 18.1322 42.8958 18.3286ZM59.9953 19.266C58.4447 18.8581 56.8105 18.5401 55.1105 18.3197C54.9736 18.1271 54.8292 17.9485 54.6747 17.7851C56.4862 18.0993 58.2661 18.5541 59.9902 19.1583C59.9801 19.1963 59.9801 19.2293 59.9953 19.266ZM60.7579 19.4725C60.744 19.4586 60.725 19.4446 60.7073 19.4256C60.8099 19.4674 60.9176 19.5054 61.0202 19.5472C60.9366 19.5244 60.8466 19.4966 60.7579 19.4725ZM70.406 27.7676C69.4509 27.309 68.4349 26.872 67.353 26.4691C66.4574 26.141 65.5402 25.8357 64.5989 25.5596C64.3734 24.8983 64.1163 24.275 63.835 23.6796C65.8632 24.2839 67.7406 25.006 69.4179 25.8459C69.7828 26.4501 70.1109 27.0924 70.406 27.7676ZM73.6706 28.5366C74.1013 29.17 74.4991 29.8173 74.8602 30.4786C73.7226 29.5969 72.4063 28.771 70.9216 28.021C70.6543 27.3698 70.3541 26.7453 70.0273 26.155C71.3891 26.8771 72.6116 27.6701 73.6706 28.5366ZM75.5721 31.0639C75.3707 30.6522 75.1503 30.2481 74.921 29.8452C75.4125 30.4685 75.8863 31.1019 76.3309 31.7492C76.0877 31.5199 75.8344 31.2843 75.5721 31.0639ZM79.0939 42.7364C78.7987 42.445 78.4896 42.1638 78.1666 41.8775C78.1336 39.5896 77.8157 37.3714 77.2114 35.252C78.3959 36.3491 79.3282 37.531 79.9794 38.7826C80.3024 39.6453 80.5875 40.5232 80.8358 41.4138C81.0144 42.6844 81.1031 43.9601 81.1081 45.2447C80.5735 44.387 79.9046 43.5522 79.0939 42.7364ZM77.9512 50.5438C77.708 50.2955 77.4457 50.056 77.1784 49.8217C77.2304 49.6241 77.2811 49.4277 77.3241 49.2351C77.8625 46.9751 78.1336 44.762 78.1577 42.6097C78.3452 42.7782 78.5276 42.9517 78.7012 43.1303C79.7362 44.1615 80.5317 45.2358 81.0942 46.3329C81.0194 48.6347 80.6673 50.9415 80.0491 53.2117C79.5157 52.297 78.8126 51.4065 77.9512 50.5438ZM78.686 57.1794C78.1805 56.3255 77.5205 55.4996 76.7199 54.6939C76.4475 54.4266 76.1663 54.1681 75.8724 53.9059C76.3398 52.6822 76.7477 51.4533 77.0796 50.2195C77.2861 50.412 77.4926 50.6046 77.694 50.8009C78.6353 51.7434 79.3751 52.7189 79.9135 53.7133C79.5765 54.8813 79.1648 56.0392 78.686 57.1794ZM80.9675 58.4639C80.6533 59.3076 80.3113 60.1146 79.9414 60.8924C79.8337 59.7624 79.4917 58.6565 78.9115 57.5771C79.3941 56.4611 79.8109 55.3361 80.1567 54.1922C80.7141 55.3691 80.9954 56.5789 80.9954 57.8115C80.9954 58.0281 80.9865 58.2486 80.9675 58.4639ZM79.9743 61.6576C80.1428 61.3282 80.3024 60.9912 80.462 60.6492C80.3024 61.1318 80.139 61.6056 79.9604 62.0832C79.9692 61.9388 79.9743 61.802 79.9743 61.6576ZM65.5681 77.2065C65.7935 76.6719 65.9101 76.1284 65.9291 75.5647C68.0789 74.4448 70.3123 73.0045 72.4342 71.1904C72.3734 72.1139 72.0833 73.0285 71.5867 73.914C69.722 75.2885 67.6621 76.3767 65.5681 77.2065ZM62.3605 80.7042C62.3313 80.7143 62.3035 80.7282 62.2756 80.7333C62.7583 80.4229 63.2029 80.105 63.6007 79.7617C64.2797 79.5602 64.9549 79.317 65.6099 79.0497C64.5559 79.6591 63.474 80.2127 62.3605 80.7042ZM34.3714 79.7477C34.7552 80.086 35.1859 80.4039 35.6547 80.7042C35.6458 80.7042 35.6357 80.7004 35.6268 80.6953C34.5209 80.2076 33.4352 79.654 32.385 79.0396C33.0323 79.3069 33.6974 79.5463 34.3714 79.7477ZM25.5759 71.1904C27.6978 73.0007 29.9312 74.4398 32.081 75.5609C32.0949 76.1183 32.2127 76.6668 32.4319 77.2014C30.3442 76.3666 28.283 75.2835 26.4183 73.9102C25.923 73.0235 25.6316 72.1088 25.5759 71.1904ZM18.0307 61.6424C18.0307 61.788 18.0395 61.9287 18.0446 62.0794C17.8622 61.5917 17.6937 61.104 17.5341 60.6112C17.6937 60.9633 17.8571 61.3105 18.0307 61.6424ZM22.1377 53.9008C21.8425 54.1631 21.5575 54.4215 21.2902 54.6939C20.4845 55.4958 19.8334 56.3255 19.3279 57.1692C18.8313 55.9923 18.4095 54.7965 18.0636 53.5867C18.7426 52.3718 19.7079 51.219 20.9152 50.1396C21.2484 51.3976 21.6601 52.6543 22.1377 53.9008ZM26.1282 46.6888C26.3904 48.0063 26.7097 49.334 27.0834 50.6565C25.3187 51.542 23.7542 52.5453 22.4379 53.6475C21.9604 52.3908 21.5524 51.1303 21.2243 49.8736C22.5874 48.7056 24.2368 47.6415 26.1282 46.6888ZM25.9318 31.8189C25.548 33.5925 25.3187 35.5054 25.2756 37.5538C25.2667 37.8122 25.2718 38.0707 25.2718 38.3278C23.3564 39.2843 21.6563 40.3674 20.2273 41.5595C20.2882 39.2336 20.6492 36.9875 21.3143 34.8441C22.6115 33.7419 24.1659 32.7298 25.9318 31.8189ZM26.0395 31.3223C24.3204 32.1952 22.8028 33.1554 21.5195 34.1879C21.8615 33.1985 22.2644 32.2319 22.7331 31.2894C23.9138 30.2772 25.3187 29.3486 26.906 28.5138C26.569 29.3993 26.2739 30.338 26.0395 31.3223ZM32.5776 28.7811C31.2335 29.1751 29.9413 29.6197 28.7226 30.1074C27.941 30.4267 27.191 30.7599 26.4753 31.107C26.7274 30.1074 27.0327 29.151 27.3925 28.2604C29.1546 27.3736 31.1347 26.6047 33.2756 25.9675C32.9994 26.8441 32.76 27.7816 32.5776 28.7811ZM40.7967 24.3586C40.6523 25.2403 40.5306 26.1638 40.4407 27.1165C37.8323 27.4775 35.3228 27.9931 32.9715 28.6633C33.1679 27.6549 33.4111 26.7174 33.7063 25.8408C35.9169 25.2036 38.296 24.7057 40.7967 24.3586ZM41.2464 22.1835C41.102 22.7548 40.9753 23.3553 40.8575 23.9887C38.4176 24.3219 36.0626 24.8045 33.8469 25.4329C34.0851 24.7665 34.3486 24.1382 34.6425 23.5479C36.7087 22.9613 38.9281 22.5015 41.2464 22.1835ZM48.8194 21.2967C46.3897 21.3018 44.0055 21.4563 41.724 21.7464C42.085 20.505 42.5398 19.4586 43.0833 18.6757C44.9417 18.4312 46.8622 18.3058 48.8194 18.2956V21.2967ZM56.2899 21.7464C54.0045 21.4563 51.6204 21.3018 49.1856 21.2967V18.2956C51.1529 18.3007 53.0722 18.4274 54.9179 18.6617C55.4702 19.4497 55.92 20.4948 56.2899 21.7464ZM57.1513 23.9836C57.0398 23.3553 56.9131 22.751 56.7637 22.1784C59.0857 22.4977 61.3014 22.9563 63.3663 23.5428C63.6615 24.1344 63.9288 24.7665 64.1682 25.4329C61.9475 24.7995 59.5963 24.3168 57.1513 23.9836ZM65.0385 28.6493C62.7063 27.9881 60.2005 27.4674 57.5732 27.1064C57.4794 26.155 57.3629 25.2353 57.2134 24.3586C59.7179 24.7007 62.0982 25.2036 64.3088 25.8357C64.5989 26.7124 64.8422 27.646 65.0385 28.6493ZM71.5348 31.0829C69.6941 30.1923 67.6482 29.4145 65.4325 28.7671C65.245 27.7676 65.0157 26.8391 64.7345 25.9624C66.8792 26.6047 68.8554 27.3698 70.6163 28.2516C70.9774 29.1421 71.2814 30.0897 71.5348 31.0829ZM71.9706 31.2945C71.7311 30.3139 71.441 29.3854 71.104 28.5087C72.6914 29.3385 74.0925 30.2671 75.2719 31.2805C75.7355 32.2091 76.1435 33.1693 76.4804 34.1499C75.1883 33.1136 73.6706 32.1521 71.9706 31.2945ZM72.7433 38.324C72.7433 38.0707 72.7433 37.8122 72.7382 37.5538C72.6914 35.4813 72.4621 33.5405 72.0694 31.7492C73.8302 32.6537 75.3846 33.6723 76.6768 34.7782C77.352 36.9445 77.727 39.2095 77.7878 41.5544C76.3537 40.3674 74.6587 39.2843 72.7433 38.324ZM70.9254 50.6565C71.3004 49.3479 71.6146 48.0393 71.8717 46.7408C73.7694 47.7023 75.4125 48.7753 76.7667 49.9484C76.4437 51.181 76.0446 52.4237 75.5772 53.6525C74.2559 52.5453 72.6914 51.5471 70.9254 50.6565ZM73.9848 57.2908C72.7572 56.2647 71.3055 55.3311 69.6662 54.5064C70.0969 53.3472 70.4808 52.1843 70.8228 51.0125C72.5837 51.9031 74.1343 52.9064 75.4366 54.0136C75.0059 55.1157 74.5232 56.2077 73.9848 57.2908ZM76.958 60.691C76.4754 59.8663 75.8432 59.0593 75.0616 58.2714C74.8133 58.0231 74.5422 57.7786 74.2698 57.5404C74.8133 56.4611 75.296 55.3691 75.7317 54.272C75.98 54.4962 76.2283 54.7217 76.4576 54.951C77.314 55.8137 77.993 56.6954 78.5035 57.605C78.045 58.6463 77.5344 59.6788 76.958 60.691ZM57.8924 78.1161C57.8633 77.8399 57.7885 77.5625 57.6669 77.2914C60.3272 76.264 62.814 75.0124 65.1044 73.5492C65.3945 74.1307 65.5452 74.7311 65.5592 75.3443C62.6835 76.8214 59.9662 77.7132 57.8924 78.1161ZM57.7556 79.2093C57.8405 78.9788 57.8873 78.7355 57.9013 78.491C59.9662 78.0882 62.6696 77.2154 65.549 75.7573C65.5072 76.3109 65.3527 76.8594 65.0905 77.3889C62.5657 78.3416 60.027 78.937 57.7556 79.2093ZM55.8921 81.2907C56.2151 81.0893 56.5052 80.8689 56.7586 80.6396C58.6512 80.765 60.7022 80.5357 62.7253 80.0112C62.173 80.4141 61.5446 80.7941 60.8656 81.1362C59.3011 81.5162 58.0419 81.5251 55.8921 81.2907ZM44.5528 82.3371C45.8792 82.721 47.4057 82.9414 49.0031 82.9414C49.7936 82.9414 50.5575 82.8894 51.2834 82.7957C51.5266 83.0351 51.78 83.2327 52.0372 83.3772C51.0351 83.4671 50.0242 83.5178 49.0031 83.5178C46.7634 83.5178 44.5579 83.2936 42.4081 82.8616C43.158 82.7957 43.851 82.6221 44.5528 82.3371ZM41.2654 80.6396C41.5188 80.8689 41.8089 81.0893 42.1319 81.2907C39.9682 81.5251 38.7077 81.5162 37.1343 81.1311C36.4553 80.7891 35.832 80.4141 35.2797 80.0062C37.3079 80.5357 39.369 80.765 41.2654 80.6396ZM40.1088 78.491C40.1227 78.7305 40.1696 78.9737 40.2545 79.2093C37.9818 78.9319 35.4393 78.3416 32.9145 77.3851C32.6523 76.8543 32.4978 76.3109 32.461 75.7573C35.3367 77.2116 38.0388 78.0882 40.1088 78.491ZM32.9006 73.5391C35.1961 75.0124 37.6828 76.264 40.3432 77.2863C40.2165 77.5587 40.1417 77.8348 40.1139 78.1161C38.0388 77.7082 35.3266 76.8176 32.4471 75.3405C32.461 74.721 32.6194 74.1205 32.9006 73.5391ZM20.8456 61.0571C20.3072 62.0693 19.993 63.1106 19.9094 64.1798C19.3697 63.345 18.8642 62.4823 18.4006 61.5638C18.4145 60.3439 18.7186 59.1581 19.2861 58.018C19.7498 59.0492 20.2691 60.0626 20.8456 61.0571ZM23.744 57.5353C23.4641 57.7786 23.1968 58.0231 22.9434 58.2714C22.1668 59.0542 21.5334 59.8612 21.052 60.6859C20.4807 59.6737 19.9651 58.6463 19.5103 57.605C20.1665 56.4281 21.1027 55.3121 22.2783 54.272C22.7141 55.364 23.2018 56.4573 23.744 57.5353ZM28.3489 54.5013C26.7046 55.326 25.2528 56.2596 24.0253 57.287C23.4869 56.2077 23.0042 55.1106 22.5735 54.0136C23.8618 52.9254 25.4162 51.9221 27.191 51.0264C27.5331 52.1894 27.9169 53.3523 28.3489 54.5013ZM33.5657 48.565C33.819 49.7507 34.1041 50.9517 34.4233 52.1564C32.3343 52.762 30.4088 53.4929 28.6758 54.3366C28.2501 53.1838 27.8663 52.0259 27.5242 50.863C29.332 49.9813 31.3652 49.2073 33.5657 48.565ZM32.741 44.1286C32.9475 45.46 33.1907 46.8155 33.4821 48.19C31.2854 48.8272 29.2471 49.5962 27.4216 50.4918C27.0466 49.1655 26.7274 47.8378 26.4652 46.5203C28.3489 45.6006 30.4556 44.7949 32.741 44.1286ZM32.0341 36.3022C32.081 38.6471 32.3014 41.1465 32.6852 43.7485C30.405 44.4098 28.2919 45.2067 26.3904 46.1352C25.9128 43.6219 25.6607 41.1465 25.6316 38.7687C27.547 37.8211 29.6968 36.9964 32.0341 36.3022ZM32.1608 31.8709C32.0531 33.0946 32.0113 34.3842 32.0202 35.7207C29.7158 36.3959 27.5711 37.2118 25.6367 38.1454C25.6367 37.9529 25.6367 37.7565 25.6417 37.5639C25.6886 35.4306 25.9318 33.4328 26.3537 31.6036C28.2032 30.6889 30.2643 29.8832 32.5028 29.208C32.3571 30.0568 32.2406 30.9385 32.1608 31.8709ZM40.1645 34.0143C37.4295 34.3842 34.8211 34.9239 32.385 35.613C32.3761 34.3424 32.423 33.0997 32.5256 31.8987C32.6105 30.9195 32.7372 29.9808 32.8917 29.1003C35.2379 28.4099 37.7626 27.8715 40.404 27.5003C40.2215 29.602 40.1506 31.8341 40.1645 34.0143ZM48.8194 26.8999V33.4328C45.9539 33.4417 43.153 33.6292 40.4648 33.9763C40.4597 31.6504 40.5446 29.4512 40.727 27.4535C43.3303 27.1064 46.0426 26.9151 48.8194 26.8999ZM48.8194 23.8101V26.535C46.0894 26.5439 43.3823 26.7276 40.7637 27.0696C40.8626 26.103 40.9842 25.1745 41.1387 24.3168C43.5976 23.9938 46.1743 23.8202 48.8194 23.8101ZM48.8194 23.4402C46.2161 23.449 43.6686 23.6175 41.2046 23.9368C41.3262 23.3034 41.4618 22.6991 41.6125 22.1366C43.9308 21.8313 46.3466 21.6717 48.8194 21.6628V23.4402ZM49.1856 23.4402V21.6628C51.6635 21.6717 54.0793 21.8313 56.3976 22.1316C56.5521 22.694 56.6839 23.2996 56.8055 23.9368C54.3415 23.6175 51.7889 23.449 49.1856 23.4402ZM49.1856 26.535V23.8101C51.8357 23.8152 54.4124 23.9887 56.8751 24.3117C57.0259 25.1745 57.1475 26.0942 57.2451 27.0595C54.6645 26.7225 51.9574 26.5439 49.1856 26.535ZM57.5453 33.9763C54.8622 33.6254 52.0562 33.4366 49.1856 33.4328V26.8999C51.9764 26.91 54.6886 27.0975 57.2831 27.4345C57.4705 29.4373 57.5542 31.6454 57.5453 33.9763ZM65.4882 31.8987C65.5921 33.0997 65.6339 34.3424 65.6238 35.613C63.194 34.9239 60.5844 34.3842 57.8493 34.0143C57.8595 31.824 57.7936 29.5868 57.6061 27.4775C60.2575 27.8436 62.7722 28.3732 65.1095 29.0433C65.2729 29.9491 65.3996 30.9005 65.4882 31.8987ZM65.9899 35.7207C66.0038 34.3842 65.957 33.0946 65.8544 31.8709C65.7695 30.9233 65.6529 30.0238 65.5022 29.1561C67.7406 29.8224 69.8018 30.6192 71.6475 31.5339C72.0732 33.386 72.3215 35.4015 72.3734 37.5639C72.3785 37.7565 72.3734 37.9529 72.3785 38.1454C70.444 37.208 68.298 36.3959 65.9899 35.7207ZM65.3198 43.7815C65.7137 41.1604 65.9329 38.6471 65.9798 36.2832C68.3031 36.9723 70.4529 37.8034 72.3785 38.7598C72.3544 41.1516 72.0922 43.651 71.6146 46.1821C69.7182 45.2497 67.6013 44.4478 65.3198 43.7815ZM64.528 48.1938C64.8194 46.8295 65.0575 45.4892 65.264 44.1704C65.5402 44.2502 65.8214 44.3262 66.0976 44.4098C68.0738 45.0331 69.8904 45.7565 71.5348 46.5672C71.2776 47.8708 70.9634 49.1832 70.5935 50.4918C68.7617 49.6012 66.7297 48.8272 64.528 48.1938ZM63.5918 52.1564C63.9098 50.9466 64.1961 49.7419 64.4482 48.5511C66.6448 49.1832 68.673 49.9572 70.4909 50.8478C70.1489 52.0158 69.765 53.1838 69.3381 54.3417C67.6051 53.498 65.6757 52.762 63.5918 52.1564ZM68.0928 57.4175C67.353 59.0872 66.5372 60.6998 65.6479 62.253C64.243 61.5638 62.6784 60.9671 60.9872 60.4756C61.4889 59.1201 61.9665 57.7228 62.4111 56.2977C62.8051 55.027 63.17 53.7653 63.5031 52.5175C65.5731 53.1129 67.4886 53.84 69.2114 54.6837C68.8605 55.6034 68.4957 56.5181 68.0928 57.4175ZM69.385 64.6257C68.4108 63.8137 67.2631 63.0726 65.976 62.4164C66.8653 60.8595 67.6849 59.2417 68.4298 57.5683C68.8276 56.6676 69.1975 55.7631 69.5395 54.8484C71.1649 55.6731 72.6027 56.6017 73.8112 57.624C72.5888 60.0297 71.104 62.3796 69.385 64.6257ZM70.2984 65.4555C70.0969 65.2541 69.8816 65.0564 69.6611 64.8639C71.3802 62.6229 72.87 60.278 74.0963 57.8723C74.3408 58.0927 74.5789 58.3094 74.7994 58.5336C75.619 59.3545 76.2651 60.1944 76.7427 61.0571C76.616 61.2775 76.4906 61.4979 76.3588 61.7133C75.0705 63.7998 73.5718 65.7367 71.8907 67.509C71.4879 66.8008 70.9584 66.1206 70.2984 65.4555ZM64.1353 71.6072C64.0086 71.4855 63.8731 71.3639 63.7375 71.2461C65.7467 69.4599 67.6482 67.4393 69.366 65.2541C69.39 65.2211 69.4128 65.1831 69.4369 65.1552C69.6472 65.3377 69.8486 65.5252 70.0361 65.7126C70.7063 66.3841 71.2307 67.0783 71.6234 67.7864C69.727 69.7411 67.5861 71.4906 65.2399 73.0184C64.9587 72.5357 64.5888 72.067 64.1353 71.6072ZM56.9271 76.245C56.8992 76.2171 56.8751 76.1981 56.8473 76.1753C59.0997 74.9414 61.3343 73.3478 63.4601 71.4906C63.6058 71.6122 63.7464 71.7389 63.8769 71.8707C64.3126 72.3115 64.6648 72.7612 64.9359 73.2211C62.6404 74.6881 60.1537 75.9409 57.4934 76.9633C57.3439 76.7137 57.1564 76.4755 56.9271 76.245ZM34.5399 71.4805C36.6707 73.3427 38.9091 74.9364 41.1628 76.1702C41.1349 76.1981 41.1058 76.2171 41.083 76.245C40.8537 76.4755 40.6662 76.7137 40.5116 76.9633C37.8513 75.9409 35.3684 74.6843 33.0742 73.2211C33.4301 72.6067 33.9267 72.0252 34.5399 71.4805ZM28.5681 65.1502C28.5972 65.1831 28.62 65.2211 28.6479 65.2541C30.3619 67.4393 32.2634 69.4599 34.2726 71.2423C34.137 71.3639 34.0015 71.4855 33.8697 71.6072C33.4162 72.0619 33.0463 72.5357 32.765 73.0184C30.4227 71.4906 28.283 69.7361 26.3866 67.7864C26.8971 66.8579 27.637 65.9711 28.5681 65.1502ZM28.3489 64.8601C28.1285 65.0526 27.9131 65.2541 27.7117 65.4555C27.0466 66.1168 26.5222 66.8008 26.1193 67.5001C24.4332 65.7317 22.9396 63.7998 21.6563 61.7133C21.5195 61.4979 21.3979 61.2775 21.2674 61.0571C21.8894 59.9309 22.7851 58.8668 23.9138 57.8723C25.1451 60.2742 26.6298 62.6178 28.3489 64.8601ZM29.5853 57.5683C30.3252 59.2379 31.1448 60.8557 32.0341 62.4126C30.7457 63.0726 29.5993 63.8137 28.6289 64.6207C26.9111 62.3796 25.4213 60.0297 24.1988 57.624C25.3972 56.6156 26.8351 55.687 28.4743 54.8623C28.8214 55.7719 29.1914 56.6726 29.5853 57.5683ZM35.6027 56.2977C36.0486 57.7228 36.5262 59.1201 37.0228 60.4756C35.3316 60.9633 33.7671 61.5638 32.3622 62.253C31.4767 60.6998 30.6571 59.0872 29.9172 57.4175C29.5195 56.5219 29.1546 55.6123 28.8075 54.6939C30.5164 53.8641 32.4319 53.1319 34.5171 52.5314C34.849 53.7742 35.2049 55.0359 35.6027 56.2977ZM41.406 51.0923C41.7759 53.9287 42.2066 56.6954 42.6842 59.2886C40.8347 59.542 39.0687 59.903 37.4155 60.3629C36.4832 57.8495 35.6268 55.1715 34.8958 52.4237C36.924 51.8524 39.1067 51.4065 41.406 51.0923ZM40.9284 47.0309C41.0551 48.2648 41.1995 49.5024 41.3541 50.7211C39.0548 51.0315 36.8531 51.4761 34.797 52.0538C34.4841 50.8668 34.1978 49.6671 33.9407 48.4611C36.1133 47.8518 38.4607 47.364 40.9284 47.0309ZM40.5167 42.502C40.5813 43.3596 40.6472 44.1476 40.7131 44.8418C40.7637 45.4461 40.8258 46.0554 40.8904 46.661C38.4176 46.9891 36.0575 47.4717 33.8558 48.0861C33.5707 46.7306 33.3174 45.3764 33.1122 44.0209C35.4152 43.3685 37.9033 42.858 40.5167 42.502ZM40.4926 42.1359C37.8792 42.483 35.3836 42.9897 33.0552 43.6459C32.6713 41.1136 32.4369 38.6053 32.3951 36.1945C34.8072 35.5003 37.4155 34.9518 40.1696 34.5768C40.1924 37.3017 40.333 39.9367 40.4926 42.1359ZM48.8194 41.5772C46.0666 41.5823 43.3734 41.7609 40.7878 42.0941C40.6003 39.5009 40.4876 36.9546 40.4698 34.535C43.134 34.1777 45.9349 33.9953 48.8194 33.9864V41.5772ZM57.2223 42.108C54.6417 41.7698 51.9434 41.5874 49.1856 41.5772V33.9864C52.0562 33.9902 54.8622 34.1777 57.5453 34.5299C57.5263 36.9546 57.4135 39.5047 57.2223 42.108ZM57.5225 42.1448C57.6808 39.9418 57.8164 37.3055 57.8455 34.5679C60.5806 34.9378 63.189 35.4813 65.62 36.1806C65.5731 38.6002 65.3388 41.1275 64.9549 43.6738C62.6316 43.0125 60.1347 42.4969 57.5225 42.1448ZM57.1234 46.661C57.1842 46.0554 57.2451 45.4461 57.3021 44.8418C57.3629 44.1527 57.4287 43.3736 57.4934 42.5197C60.0739 42.8719 62.5619 43.3926 64.8979 44.0627C64.6876 45.4043 64.4393 46.7458 64.1543 48.0861C61.9526 47.4717 59.5925 46.9891 57.1234 46.661ZM56.656 50.7211C56.8105 49.4974 56.955 48.2648 57.0867 47.022C59.5405 47.3552 61.8917 47.829 64.0783 48.4434C63.816 49.657 63.531 50.863 63.2168 52.0538C61.1557 51.4761 58.9603 51.0315 56.656 50.7211ZM55.3258 59.2886C55.8034 56.6916 56.2392 53.9249 56.6091 51.0872C58.8945 51.3976 61.081 51.8372 63.1231 52.4098C62.3883 55.1626 61.5256 57.8495 60.5983 60.3679C58.9451 59.903 57.1754 59.542 55.3258 59.2886ZM57.3021 68.0069C56.1353 67.6826 54.89 67.4203 53.5877 67.2366C54.1781 65.0045 54.7444 62.4303 55.265 59.6497C57.0905 59.8979 58.8374 60.2552 60.4729 60.71C59.4747 63.383 58.3928 65.8533 57.3021 68.0069ZM60.782 69.3142C59.8408 68.8544 58.8058 68.4566 57.6859 68.1183C58.7906 65.9432 59.8686 63.4716 60.8618 60.8177C62.5328 61.3003 64.0833 61.8919 65.4692 62.5709C64.0745 64.9817 62.4998 67.2366 60.782 69.3142ZM61.1139 69.4827C62.8279 67.4064 64.4013 65.1464 65.7973 62.7356C67.0718 63.383 68.2005 64.119 69.1608 64.9158C69.1316 64.9538 69.1037 64.9868 69.0759 65.0235C67.3619 67.2088 65.4604 69.2255 63.4601 71.0029C62.7861 70.4442 61.9994 69.9337 61.1139 69.4827ZM57.5174 68.4515C58.6082 68.7758 59.6241 69.1546 60.5375 69.5954C58.8666 71.5844 57.0538 73.4035 55.1244 75.0124C54.6835 74.8008 54.2009 74.6082 53.6866 74.4486C54.9369 72.9766 56.243 70.9129 57.5174 68.4515ZM53.494 67.5977C54.7684 67.7712 55.9909 68.0246 57.1336 68.3438C55.8364 70.8623 54.5239 72.9208 53.3014 74.3372C52.6604 74.1585 51.9764 74.0179 51.2644 73.9242C52.0004 72.5028 52.7593 70.3137 53.494 67.5977ZM49.1856 67.2987C50.5486 67.3025 51.8788 67.3924 53.157 67.5508C52.4121 70.2707 51.6343 72.461 50.8717 73.8773C50.3282 73.8165 49.762 73.7836 49.1856 73.7785V67.2987ZM47.1384 73.8773C46.3757 72.461 45.5979 70.2707 44.8581 67.5508C46.1224 67.3874 47.4525 67.3025 48.8194 67.2936V73.7785C48.2481 73.7836 47.6818 73.8165 47.1384 73.8773ZM44.7124 74.3372C43.4899 72.9208 42.1788 70.8623 40.8816 68.3438C42.0192 68.0297 43.2378 67.7763 44.5211 67.5977C45.2508 70.3175 46.0096 72.5028 46.7495 73.9242C46.0337 74.0128 45.3496 74.1535 44.7124 74.3372ZM42.8907 75.0124C40.9614 73.4035 39.1485 71.5844 37.4713 69.6005C38.3897 69.1647 39.4019 68.7796 40.4977 68.4515C41.7709 70.9129 43.0782 72.9766 44.3235 74.4448C43.8092 74.6082 43.3265 74.7957 42.8907 75.0124ZM36.8961 69.4789C36.0157 69.9337 35.2239 70.4442 34.55 70.9978C32.5497 69.2205 30.6482 67.2088 28.938 65.0235C28.9063 64.9868 28.8772 64.9488 28.8493 64.9108C29.8007 64.1241 30.9332 63.3969 32.2165 62.7445C33.6126 65.1502 35.1821 67.4064 36.8961 69.4789ZM40.3242 68.1183C39.2094 68.4515 38.1693 68.8506 37.2331 69.3104C35.514 67.2366 33.9457 64.9868 32.5497 62.5811C33.9267 61.9059 35.4773 61.3193 37.1533 60.8316C38.1465 63.4767 39.2233 65.9483 40.3242 68.1183ZM44.4223 67.2366C43.12 67.4203 41.8785 67.6826 40.7131 68.0069C39.6211 65.8533 38.5443 63.383 37.5473 60.715C39.1714 60.2641 40.9145 59.9081 42.7501 59.6547C43.2695 62.4303 43.837 65.0045 44.4223 67.2366ZM48.8194 59.2379V66.9275C47.4247 66.9377 46.0666 67.0314 44.7593 67.1948C44.1652 64.9627 43.5887 62.3885 43.0643 59.6129C44.905 59.3735 46.8343 59.2468 48.8194 59.2379ZM48.8194 50.5856V58.8718C46.8204 58.8769 44.867 59.0074 42.9984 59.2468C42.5107 56.6486 42.0762 53.878 41.7063 51.0505C43.9815 50.7541 46.3656 50.5957 48.8194 50.5856ZM48.8194 46.4925V50.2195C46.3605 50.2245 43.9637 50.3841 41.6594 50.6793C41.4998 49.4606 41.3541 48.2268 41.2236 46.984C43.6546 46.6749 46.1971 46.5013 48.8194 46.4925ZM48.8194 46.1264C46.2022 46.1314 43.6394 46.2999 41.1856 46.6192C41.045 45.2307 40.9183 43.8385 40.8157 42.464C43.3734 42.1308 46.0565 41.9535 48.8194 41.9433V46.1264ZM49.1856 46.1264V41.9484C51.9105 41.9573 54.5999 42.1448 57.1944 42.483C57.0956 43.8524 56.9689 45.2358 56.8245 46.6192C54.3694 46.2999 51.8079 46.1314 49.1856 46.1264ZM49.1856 50.2195V46.4925C51.799 46.5013 54.3466 46.666 56.7915 46.9802C56.6598 48.2229 56.5154 49.4606 56.3557 50.6844C54.0514 50.3841 51.6483 50.2245 49.1856 50.2195ZM49.1856 58.8718V50.5856C51.6305 50.5906 54.0185 50.7503 56.3089 51.0454C55.939 53.878 55.4981 56.6486 55.0167 59.2519C53.1431 59.0074 51.1846 58.8769 49.1856 58.8718ZM49.1856 59.2379C51.1669 59.2468 53.0962 59.3684 54.9508 59.6078C54.4264 62.3885 53.85 64.9627 53.2508 67.1999C51.9434 67.0314 50.5803 66.9377 49.1856 66.9275V59.2379ZM41.4478 75.9118C39.2005 74.6881 36.9519 73.1033 34.8211 71.2372C35.4773 70.7077 36.2539 70.2149 37.1343 69.769C38.8065 71.7579 40.6143 73.572 42.5348 75.1948C42.1319 75.4101 41.7671 75.6496 41.4478 75.9118ZM55.4753 75.1948C57.3996 73.5771 59.2074 71.7579 60.8758 69.769C61.7461 70.2149 62.5188 70.7077 63.1801 71.2512C61.048 73.1083 58.8096 74.6931 56.5622 75.9169C56.243 75.6546 55.8832 75.4152 55.4753 75.1948ZM52.8201 83.2936C52.4501 83.2087 52.0942 83.0161 51.7521 82.726C52.3564 82.6272 52.9277 82.4955 53.4661 82.3409C54.1679 82.6221 54.8571 82.7957 55.5969 82.8616C54.6835 83.044 53.7512 83.1846 52.8201 83.2936ZM56.5331 80.0809C55.1383 81.4833 52.1778 82.3878 49.0031 82.3878C45.8272 82.3878 42.8717 81.4833 41.4719 80.0809C40.9284 79.5374 40.6523 78.956 40.6523 78.3606C40.6523 76.1322 44.3982 74.3232 49.0031 74.3232C52.1778 74.3232 55.1383 75.2328 56.5331 76.6339C57.0816 77.1786 57.3578 77.7601 57.3578 78.3606C57.3578 78.956 57.0816 79.5374 56.5331 80.0809ZM20.2463 64.7093C20.2653 63.5844 20.5504 62.4911 21.0698 61.4371C21.1597 61.5955 21.2484 61.7513 21.3472 61.9097C22.6622 64.048 24.2039 66.0319 25.9369 67.8472C25.5201 68.6719 25.2807 69.5207 25.2199 70.3885C23.4261 68.7796 21.726 66.8997 20.2463 64.7093ZM25.567 70.6976C25.5898 69.8121 25.8102 68.9532 26.208 68.1285C28.1146 70.0692 30.2504 71.8187 32.5915 73.3427C32.2963 73.933 32.1329 74.5386 32.0911 75.1568C29.9274 74.0128 27.6876 72.5459 25.567 70.6976ZM34.1319 79.0307C33.7582 78.6595 33.4529 78.2757 33.2046 77.8868C35.7015 78.7913 38.2022 79.3499 40.4318 79.602C40.5585 79.8415 40.7181 80.067 40.9145 80.2925C38.8914 80.3811 36.6897 80.067 34.5589 79.4298C34.4132 79.298 34.2637 79.1663 34.1319 79.0307ZM39.5185 82.1395C39.1625 82.0179 38.8116 81.8861 38.4746 81.7506C39.6502 81.8811 40.8626 81.8063 42.6804 81.596C43.0833 81.8063 43.5178 81.9938 43.9916 82.1534C42.9933 82.4917 41.9964 82.5943 40.7789 82.4815C40.7739 82.4815 40.7637 82.4815 40.7637 82.4815C40.347 82.3789 39.9302 82.2611 39.5185 82.1395ZM58.4865 82.1395C58.0748 82.2611 57.6618 82.3738 57.2451 82.4815C57.2413 82.4815 57.2413 82.4815 57.2362 82.4815C56.0188 82.5943 55.0307 82.4917 54.0375 82.1585C54.51 81.9938 54.9508 81.8063 55.3486 81.5998C57.1513 81.8063 58.3599 81.8811 59.5317 81.7506C59.1934 81.8861 58.8425 82.0179 58.4865 82.1395ZM63.4461 79.4298C61.3153 80.067 59.1187 80.3811 57.1044 80.2925C57.297 80.067 57.4566 79.8415 57.5871 79.602C59.8078 79.3499 62.3085 78.7963 64.8042 77.8906C64.5521 78.2757 64.2468 78.6595 63.8769 79.0307C63.7413 79.1663 63.5918 79.298 63.4461 79.4298ZM65.9152 75.1618C65.8772 74.5386 65.7087 73.9381 65.4135 73.3427C67.7597 71.8187 69.8955 70.0743 71.8021 68.1285C72.2087 68.9633 72.4203 69.826 72.4393 70.7026C70.3174 72.5459 68.0789 74.0179 65.9152 75.1618ZM72.7902 70.3935C72.7294 69.5258 72.49 68.677 72.0694 67.851C73.8112 66.0319 75.3517 64.048 76.6679 61.9097C76.7617 61.7513 76.8503 61.5955 76.9441 61.4371C77.4685 62.5013 77.7447 63.5983 77.7587 64.7195C76.279 66.9047 74.584 68.7847 72.7902 70.3935ZM78.1007 64.1887C78.012 63.1195 77.6978 62.0794 77.1696 61.0609C77.7409 60.0626 78.2654 59.0492 78.724 58.018C79.3004 59.1759 79.5955 60.3578 79.6095 61.5727C79.1408 62.4873 78.6353 63.3589 78.1007 64.1887ZM76.8693 49.5442C75.4834 48.3674 73.8252 47.2982 71.9566 46.3519C72.4393 43.8284 72.7053 41.334 72.7382 38.9372C74.6815 39.9266 76.3829 41.0528 77.7967 42.2854C77.7967 44.5137 77.5256 46.8066 76.9682 49.1503C76.939 49.282 76.9023 49.4138 76.8693 49.5442ZM60.5806 19.8057C61.5776 20.7013 62.4251 21.8034 63.1332 23.1019C61.1 22.5395 58.9274 22.1037 56.6598 21.7984C56.3279 20.6025 55.9111 19.5574 55.3955 18.7276C57.2083 18.981 58.9451 19.342 60.5806 19.8057ZM37.4155 19.8196C39.0497 19.356 40.7967 18.9898 42.6146 18.7314C42.099 19.5624 41.6873 20.6076 41.3541 21.7984C39.0877 22.1075 36.9151 22.5445 34.8819 23.1019C35.5799 21.8174 36.4224 20.7153 37.4155 19.8196ZM21.0419 49.1503C20.4896 46.8066 20.2185 44.5086 20.2134 42.2816C21.6132 41.0667 23.3133 39.9456 25.2718 38.9524C25.3086 41.3289 25.5708 43.7954 26.0484 46.2999C24.176 47.2424 22.5178 48.3015 21.1268 49.4746C21.0989 49.3669 21.0698 49.2592 21.0419 49.1503ZM16.9108 57.8115C16.9108 56.5219 17.225 55.2652 17.8204 54.0655C18.1713 55.2475 18.602 56.4193 19.0986 57.5721C18.5184 58.6463 18.1764 59.7535 18.0687 60.8785C17.6468 59.9968 17.263 59.0783 16.9209 58.1168C16.9159 58.018 16.9108 57.9154 16.9108 57.8115ZM18.6438 63.5565C18.5463 63.1815 18.4804 62.8053 18.4424 62.4265C18.8921 63.2563 19.3697 64.0531 19.8764 64.8081C19.8764 64.8132 19.8764 64.817 19.8764 64.8221C19.8764 65.3617 19.9372 65.8963 20.0538 66.4259C19.5344 65.4922 19.0657 64.5358 18.6438 63.5565ZM22.4189 70.0604C22.3961 70.0363 22.3721 70.0173 22.3442 70.0084C21.8476 69.3332 21.3839 68.639 20.9444 67.9308C20.5593 67.0922 20.33 66.2333 20.2653 65.3668C21.745 67.4761 23.4261 69.2952 25.1958 70.8521C25.2009 71.711 25.3884 72.5598 25.7494 73.3845C24.5219 72.409 23.3881 71.3069 22.4189 70.0604ZM28.1893 76.1373C27.7066 75.6774 27.2848 75.2037 26.9339 74.7159C28.7366 75.9409 30.6849 76.9202 32.6574 77.6803C32.9285 78.1908 33.2946 78.6836 33.7582 79.1663C32.2495 78.6456 30.8027 77.9666 29.4954 77.1508C29.0558 76.8214 28.62 76.4895 28.1893 76.1373ZM69.8208 76.1373C69.3799 76.4933 68.9315 76.8404 68.4767 77.1736C67.1744 77.9894 65.7277 78.6595 64.229 79.1764C64.6876 78.7026 65.0575 78.2009 65.3388 77.6854C67.3099 76.9303 69.2583 75.9498 71.0622 74.7261C70.7151 75.2087 70.2984 75.6825 69.8208 76.1373ZM75.6608 70.0084C75.638 70.0173 75.6139 70.0363 75.5949 70.0604C74.6207 71.312 73.4831 72.4141 72.2556 73.3946C72.6166 72.5636 72.8041 71.7148 72.8092 70.8572C74.5789 69.3003 76.26 67.4811 77.7409 65.3807C77.675 66.2472 77.4407 67.1011 77.0619 67.941C76.621 68.6441 76.1574 69.3332 75.6608 70.0084ZM77.9512 66.4259C78.0678 65.9001 78.1298 65.3617 78.1298 64.8221C78.6353 64.062 79.1129 63.2753 79.5626 62.4405C79.5246 62.8154 79.4587 63.1853 79.3662 63.5603C78.9393 64.5358 78.4706 65.4973 77.9512 66.4259ZM79.1965 36.8748C78.5833 36.0767 77.8435 35.3128 77.0049 34.5818C76.7148 33.6761 76.3727 32.7855 75.98 31.9177C76.5843 32.4992 77.1227 33.0997 77.5813 33.728C78.1805 34.7453 78.7151 35.8005 79.1965 36.8748ZM69.0619 25.2644C67.4037 24.4802 65.5769 23.8012 63.6197 23.2388C62.9825 21.9998 62.2237 20.9306 61.3394 20.021C62.6404 20.4251 63.8731 20.8977 65.0157 21.4285C65.4604 21.6768 65.9012 21.9301 66.3357 22.2025C67.3669 23.0462 68.2803 24.0723 69.0619 25.2644ZM54.0096 17.6724C54.2199 17.8408 54.4162 18.0334 54.6088 18.2576C52.853 18.0473 51.0402 17.9346 49.1856 17.9257V17.3012C50.8147 17.3062 52.4261 17.4329 54.0096 17.6724ZM48.8194 17.2974V17.9257C46.975 17.9346 45.1571 18.0524 43.4013 18.2627C43.5887 18.0385 43.7902 17.8408 44.0005 17.6724C45.5739 17.4329 47.1852 17.3062 48.8194 17.2974ZM20.4516 33.709C20.9064 33.0946 21.4308 32.4992 22.0262 31.9317C21.6272 32.8083 21.2851 33.709 20.995 34.6287C20.1425 35.3647 19.4077 36.1426 18.7946 36.9407C19.2912 35.8284 19.8435 34.7503 20.4516 33.709ZM15.9417 49.7786C16.0025 48.8551 16.2179 47.9506 16.584 47.0689C16.7056 49.2402 17.0755 51.4065 17.6696 53.5398C17.0616 54.6609 16.7005 55.8137 16.5878 57.0007C16.1571 54.8535 15.9328 52.6441 15.9328 50.4069C15.9328 50.1967 15.9366 49.9851 15.9417 49.7786ZM15.3704 50.3284C15.3704 50.3512 15.3754 50.3702 15.3843 50.393C15.3843 50.3981 15.3792 50.4031 15.3792 50.4069C15.3792 59.3963 18.8782 67.851 25.2287 74.2105C31.5806 80.5686 40.0201 84.0663 49.0031 84.0663C67.5304 84.0663 82.6068 68.981 82.6258 50.4361C82.6397 50.4031 82.6486 50.3651 82.6486 50.3284C82.6486 50.032 82.6296 49.7419 82.6017 49.4505C82.3635 40.8184 78.9026 32.7336 72.7763 26.6047C66.4257 20.2465 57.9861 16.7438 49.0031 16.7438C40.0239 16.7438 31.5806 20.2465 25.2287 26.6047C19.0657 32.7766 15.5997 40.9172 15.4033 49.6152C15.3792 49.8546 15.3704 50.089 15.3704 50.3284Z" fill="white"/>
<mask id="mask0_47_13" style="mask-type:luminance" maskUnits="userSpaceOnUse" x="3" y="34" width="94" height="25">
<path d="M3.19995 34.5287H96.6V58.5273H3.19995V34.5287Z" fill="white"/>
</mask>
<g mask="url(#mask0_47_13)">
<path d="M84.5968 56.9628C84.0863 57.0058 83.7582 57.3479 83.8621 57.7229C83.9647 58.1029 84.4613 58.374 84.9718 58.3322C88.5404 58.032 91.4073 57.4936 93.3784 56.7246C95.4725 55.9075 96.6189 54.8206 96.6189 53.4651C96.6189 50.6515 91.2616 47.3882 82.6067 44.3909C74.2507 41.4974 62.7252 38.7598 50.0089 36.8698C43.5836 35.9184 37.4762 35.271 31.9263 34.9138C23.8896 34.3982 17.0045 34.5021 12.036 35.1773C6.76223 35.8943 3.54452 37.3055 3.21261 39.3781C3.19361 39.5009 3.18347 39.6226 3.18347 39.7391C3.18347 40.9071 4.05504 42.1271 5.66644 43.3597C7.21702 44.5365 9.47449 45.7514 12.3122 46.9511C12.7809 47.1487 13.3472 47.0499 13.5765 46.7218C13.8057 46.3988 13.6145 45.9769 13.1457 45.7742C10.4803 44.6493 8.37743 43.5244 6.97759 42.4552C5.74118 41.5126 5.07103 40.6347 5.07103 39.862C5.07103 39.786 5.08117 39.7163 5.09003 39.6555C5.32439 38.1974 8.03665 37.1421 12.5275 36.5328C17.3237 35.8753 24.0391 35.7866 31.9263 36.2883C37.4154 36.6405 43.4569 37.2827 49.7935 38.2253C62.3553 40.0862 73.7174 42.7833 81.9277 45.6247C89.8326 48.3636 94.7276 51.1531 94.7276 53.3435C94.7276 54.1821 93.8978 54.9042 92.3814 55.4958C90.5965 56.19 87.9412 56.6815 84.5968 56.9628Z" fill="white"/>
</g>
<mask id="mask1_47_13" style="mask-type:luminance" maskUnits="userSpaceOnUse" x="75" y="15" width="17" height="17">
<path d="M75.6823 15.8H91.8975V31.9342H75.6823V15.8Z" fill="white"/>
</mask>
<g mask="url(#mask1_47_13)">
<path fill-rule="evenodd" clip-rule="evenodd" d="M83.7215 15.9748H83.7683C84.0863 20.1718 87.4307 23.5238 91.6226 23.8379V23.8899C87.4307 24.204 84.0863 27.5573 83.7683 31.7543H83.7215C83.4022 27.5573 80.0591 24.204 75.8672 23.8899V23.8379C80.0591 23.5238 83.4022 20.1718 83.7215 15.9748Z" fill="white"/>
</g>
<path fill-rule="evenodd" clip-rule="evenodd" d="M91.7494 30.4545H91.7722C91.9039 32.242 93.3266 33.6672 95.1064 33.7989V33.8217C93.3266 33.9535 91.9039 35.3787 91.7722 37.1611H91.7494C91.6176 35.3787 90.1937 33.9535 88.41 33.8217V33.7989C90.1937 33.6672 91.6176 32.242 91.7494 30.4545Z" fill="white"/>
<path d="M14.1959 52.3933L21.6232 51.4217C21.8107 51.3976 21.9399 51.2291 21.9159 51.0416L21.5269 48.0684C21.5016 47.8796 21.3344 47.7517 21.1469 47.7758L17.7835 48.2153C17.5922 48.2407 17.4123 48.1127 17.387 47.9252L16.5407 41.4569C16.5167 41.2656 16.3469 41.1237 16.1582 41.149L12.796 41.5886C12.6085 41.6127 12.4629 41.7824 12.4882 41.9737L13.812 52.1019C13.8374 52.2894 14.0046 52.4186 14.1959 52.3933Z" stroke="#231F20" stroke-width="11.2698"/>
<path d="M22.8509 51.3064L26.2244 50.958C26.4132 50.939 26.5462 50.7744 26.5272 50.5856L25.477 40.4257C25.458 40.2344 25.2807 40.1027 25.0919 40.1217L21.7184 40.47C21.5258 40.4903 21.3928 40.6537 21.4131 40.8463L22.462 51.0062C22.4823 51.1949 22.6621 51.3267 22.8509 51.3064Z" stroke="#231F20" stroke-width="11.2698"/>
<path d="M27.438 50.8213L34.9071 50.2537C35.0959 50.2398 35.234 50.0789 35.2188 49.8901L34.992 46.8992C34.9781 46.7104 34.8172 46.5723 34.6284 46.5875L31.2473 46.8434C31.0547 46.8586 30.8812 46.7218 30.866 46.5331L30.3719 40.028C30.3567 39.8367 30.1958 39.6846 30.0071 39.6999L26.6247 39.9557C26.4359 39.9709 26.2814 40.1331 26.2966 40.3244L27.0706 50.5096C27.0845 50.6984 27.2454 50.8365 27.438 50.8213Z" stroke="#231F20" stroke-width="11.2698"/>
<path d="M36.0536 50.1624L43.8255 49.8888C45.4306 49.8318 46.558 48.6207 46.5023 47.0131L46.4478 45.4917C46.3921 43.8828 45.181 42.7541 43.5759 42.8111L39.8882 42.9416C39.6944 42.9479 39.5399 42.8035 39.5335 42.6135C39.5272 42.4209 39.6703 42.2664 39.8642 42.26L45.988 42.0434C46.1767 42.0371 46.3211 41.8825 46.3148 41.6938L46.2287 39.2437C46.2211 39.0512 46.0665 38.9067 45.8778 38.9144L38.1058 39.188C36.5008 39.245 35.3682 40.4548 35.4252 42.0637L35.4797 43.5889C35.5354 45.194 36.7503 46.3214 38.3541 46.2657L42.0431 46.1352C42.2318 46.1289 42.3877 46.2733 42.394 46.4659C42.4003 46.6546 42.2559 46.8104 42.0672 46.8168L35.9434 47.0321C35.7508 47.0385 35.6064 47.1943 35.6127 47.383L35.6989 49.8356C35.7065 50.0244 35.861 50.1688 36.0536 50.1624Z" stroke="#231F20" stroke-width="11.2698"/>
<path d="M47.4182 49.8078L50.8095 49.8306C50.9982 49.8318 51.149 49.6836 51.1503 49.4936L51.1705 46.495C51.1718 46.3063 51.3225 46.1568 51.5151 46.1581C51.7051 46.1593 51.8533 46.324 51.8521 46.5166L51.8318 49.4987C51.8305 49.6887 51.9927 49.8394 52.1815 49.8407L55.5727 49.8635C55.7666 49.8648 55.9173 49.7153 55.9186 49.5265L55.987 39.3122C55.9882 39.1196 55.8261 38.9689 55.6335 38.9676L52.2423 38.9448C52.0535 38.9435 51.9028 39.0917 51.9015 39.2856L51.8812 42.2803C51.8799 42.4703 51.7292 42.6186 51.5392 42.6173C51.3466 42.616 51.1984 42.4653 51.1997 42.2765L51.2199 39.2805C51.2212 39.0879 51.0591 38.9372 50.869 38.9359L47.4778 38.9131C47.2852 38.9119 47.1344 39.0601 47.1332 39.2526L47.0648 49.467C47.0635 49.6557 47.2282 49.8065 47.4182 49.8078Z" stroke="#231F20" stroke-width="11.2698"/>
<path d="M59.1744 50.0016L62.4656 50.1498C64.0732 50.2207 65.2944 49.1047 65.3666 47.4971L65.6047 42.1663C65.677 40.5587 64.5596 39.3362 62.952 39.2653L59.6608 39.1171C58.057 39.0461 56.832 40.1622 56.7598 41.7698L56.5217 47.1006C56.4494 48.7082 57.5693 49.9306 59.1744 50.0016ZM60.9619 46.9473C60.768 46.9384 60.6261 46.7826 60.6337 46.5926L60.8111 42.6464C60.82 42.4539 60.9758 42.312 61.1683 42.3196C61.3571 42.3285 61.5003 42.4843 61.4914 42.6768L61.3153 46.623C61.3064 46.813 61.1506 46.9549 60.9619 46.9473Z" stroke="#231F20" stroke-width="11.2698"/>
<path d="M68.4931 50.5337L71.7767 50.806C73.3804 50.9378 74.6435 49.8686 74.7765 48.2648L75.2161 42.9467C75.3491 41.3429 74.2799 40.0799 72.6761 39.9469L69.3925 39.6758C67.7912 39.5427 66.5257 40.6119 66.3927 42.2157L65.9518 47.5338C65.8188 49.1376 66.8918 50.4006 68.4931 50.5337ZM70.3946 47.5478C70.202 47.5326 70.0652 47.3704 70.0817 47.1817L70.4072 43.2457C70.4237 43.0531 70.5846 42.9163 70.7771 42.9328C70.9659 42.948 71.1027 43.1101 71.0862 43.3014L70.7607 47.2387C70.7455 47.4274 70.5833 47.5642 70.3946 47.5478Z" stroke="#231F20" stroke-width="11.2698"/>
<path d="M75.3465 51.1037L85.4811 52.3731C85.6698 52.3972 85.8358 52.2667 85.8599 52.0792L86.1652 49.6444C86.188 49.4569 86.0587 49.2896 85.87 49.2656L79.7905 48.5042C79.5992 48.4801 79.4688 48.3129 79.4928 48.1254C79.5169 47.9341 79.6803 47.8303 79.8754 47.8277L85.8041 47.8163C86.1462 47.8189 86.4236 47.5794 86.4667 47.2399L87.1292 41.9446C87.1533 41.7533 87.0241 41.5861 86.8353 41.5621L76.7008 40.2927C76.5095 40.2686 76.3423 40.3991 76.3182 40.5904L76.0141 43.0214C75.9901 43.2102 76.1206 43.3761 76.3118 43.4002L82.3913 44.1628C82.5801 44.1856 82.7093 44.3529 82.6852 44.5441C82.6624 44.7316 82.499 44.8355 82.3064 44.838L76.3777 44.8494C76.0331 44.8494 75.7544 45.0901 75.7126 45.4271L75.0488 50.7249C75.026 50.9124 75.1552 51.0797 75.3465 51.1037Z" stroke="#231F20" stroke-width="11.2698"/>
<path d="M14.1953 52.3931L21.6226 51.4227C21.8114 51.3973 21.9406 51.2289 21.9153 51.0401L21.5276 48.0694C21.5023 47.8807 21.3338 47.7514 21.145 47.7768L17.7829 48.2164C17.5942 48.2404 17.413 48.1138 17.3877 47.9237L16.5414 41.4566C16.5174 41.2666 16.3476 41.1247 16.1588 41.1488L12.7954 41.5884C12.6067 41.6137 12.4648 41.7835 12.4889 41.9722L13.814 52.1004C13.838 52.2892 14.0065 52.4184 14.1953 52.3931Z" fill="#FEFEFE"/>
<path d="M22.8504 51.307L26.2239 50.9587C26.4139 50.9384 26.5469 50.7737 26.5279 50.585L25.4777 40.4251C25.4587 40.2351 25.2801 40.1033 25.0901 40.1223L21.7178 40.4707C21.5278 40.4909 21.3948 40.6544 21.4138 40.8444L22.464 51.0043C22.483 51.1943 22.6616 51.326 22.8504 51.307Z" fill="#FEFEFE"/>
<path d="M27.437 50.8211L34.9049 50.2535C35.0962 50.2396 35.2343 50.0787 35.2191 49.8887L34.9923 46.9015C34.9771 46.7115 34.8175 46.5734 34.6275 46.5874L31.2451 46.8445C31.0551 46.8585 30.8815 46.7217 30.8663 46.5316L30.3723 40.0278C30.3583 39.8378 30.1962 39.6857 30.0061 39.6997L26.625 39.9568C26.435 39.972 26.283 40.1329 26.2982 40.323L27.0722 50.5082C27.0861 50.6982 27.247 50.8363 27.437 50.8211Z" fill="#FEFEFE"/>
<path d="M36.0526 50.1622L43.8245 49.8886C45.4295 49.8316 46.5595 48.6205 46.5025 47.0142L46.4493 45.4902C46.3923 43.8839 45.1813 42.7551 43.5749 42.8109L39.8859 42.9414C39.6959 42.9477 39.5414 42.8033 39.5338 42.6133C39.5274 42.422 39.6719 42.2674 39.8619 42.2611L45.9869 42.0445C46.177 42.0381 46.3214 41.8836 46.3151 41.6923L46.2289 39.2435C46.2226 39.0522 46.0668 38.9078 45.8767 38.9141L38.1048 39.189C36.4997 39.2448 35.3697 40.4571 35.4267 42.0622L35.48 43.5874C35.537 45.1925 36.7493 46.3225 38.3544 46.2655L42.0433 46.1363C42.2334 46.1287 42.3879 46.2731 42.3955 46.4644C42.4018 46.6544 42.2574 46.809 42.0674 46.8166L35.9423 47.0319C35.7523 47.0382 35.6079 47.1941 35.6142 47.3841L35.7004 49.8341C35.7067 50.0241 35.8625 50.1686 36.0526 50.1622Z" fill="#FEFEFE"/>
<path d="M47.4171 49.8083L50.8084 49.8311C50.9984 49.8324 51.1491 49.6829 51.1517 49.4928L51.1719 46.4968C51.1732 46.3055 51.3239 46.1573 51.514 46.1586C51.7053 46.1598 51.8535 46.3245 51.8522 46.5146L51.8319 49.4979C51.8307 49.6879 51.9928 49.8387 52.1841 49.84L55.5741 49.8628C55.7654 49.864 55.9162 49.7158 55.9174 49.5245L55.9871 39.3114C55.9884 39.1214 55.825 38.9694 55.6349 38.9681L52.2437 38.9453C52.0536 38.944 51.9029 39.0935 51.9016 39.2836L51.8813 42.2796C51.8801 42.4709 51.7293 42.6191 51.538 42.6178C51.348 42.6166 51.1985 42.4658 51.1998 42.2758L51.2201 39.2798C51.2213 39.0885 51.0592 38.9377 50.8679 38.9364L47.4779 38.9136C47.2866 38.9124 47.1358 39.0606 47.1346 39.2519L47.0662 49.465C47.0649 49.6563 47.2271 49.807 47.4171 49.8083Z" fill="#FEFEFE"/>
<path d="M59.1733 50.002L62.4658 50.149C64.0708 50.2212 65.2933 49.1039 65.3655 47.4975L65.6037 42.1655C65.6759 40.5592 64.5586 39.3367 62.9535 39.2657L59.661 39.1188C58.0547 39.0466 56.8322 40.1639 56.7613 41.769L56.5219 47.1023C56.4509 48.7073 57.5683 49.9298 59.1733 50.002ZM60.9595 46.9465C60.7695 46.9376 60.6264 46.7818 60.6352 46.5917L60.8113 42.6456C60.8202 42.4556 60.976 42.3124 61.1673 42.3213C61.3573 42.3289 61.5005 42.486 61.4916 42.676L61.3155 46.6222C61.3066 46.8122 61.1508 46.9553 60.9595 46.9465Z" fill="#FEFEFE"/>
<path d="M68.4922 50.5333L71.7771 50.8056C73.3783 50.9387 74.6426 49.8682 74.7757 48.2657L75.2152 42.9463C75.3483 41.345 74.2778 40.0808 72.6765 39.9477L69.3917 39.6754C67.7904 39.5436 66.5261 40.6141 66.3944 42.2153L65.9535 47.536C65.8205 49.1372 66.891 50.4003 68.4922 50.5333ZM70.3937 47.5474C70.2037 47.5322 70.0669 47.37 70.0821 47.18L70.4077 43.2453C70.4241 43.0552 70.585 42.9172 70.775 42.9336C70.9651 42.9488 71.1031 43.111 71.0867 43.301L70.7611 47.237C70.7446 47.427 70.5837 47.5638 70.3937 47.5474Z" fill="#FEFEFE"/>
<path d="M75.3456 51.1039L85.4802 52.3733C85.6702 52.3973 85.8374 52.2669 85.8602 52.0781L86.1655 49.6458C86.1896 49.4558 86.0591 49.2886 85.8704 49.2658L79.7896 48.5031C79.5996 48.4803 79.4704 48.3131 79.4932 48.1231C79.5173 47.9343 79.6807 47.8317 79.8732 47.8279L85.8045 47.8165C86.1478 47.8178 86.424 47.5784 86.467 47.2401L87.1308 41.9436C87.1537 41.7535 87.0244 41.5863 86.8344 41.5635L76.6999 40.2929C76.5111 40.2701 76.3439 40.3993 76.3198 40.5893L76.0158 43.0216C75.9917 43.2104 76.1222 43.3776 76.311 43.4017L82.3917 44.163C82.5804 44.1871 82.7109 44.3543 82.6868 44.5431C82.664 44.7331 82.4994 44.8357 82.3068 44.8382L76.3768 44.8509C76.0335 44.8484 75.7561 45.0891 75.7143 45.426L75.0505 50.7239C75.0264 50.9126 75.1569 51.0798 75.3456 51.1039Z" fill="#FEFEFE"/>
<path d="M27.7319 55.8581L26.0939 56.0177L25.7126 52.1159L30.1971 51.6763L30.2908 52.6416L27.4443 52.9203L27.5038 53.5322L29.9108 53.2966L29.9843 54.0478L27.5773 54.2834L27.7319 55.8581Z" stroke="#231F20" stroke-width="2.73212"/>
<path d="M33.729 55.4248C32.7624 55.4945 32.0378 55.3476 31.5526 54.9827C31.1232 54.6597 30.8863 54.1947 30.8419 53.5854C30.7976 52.9786 30.9648 52.4845 31.3423 52.102C31.7692 51.6712 32.466 51.4204 33.4326 51.3507C34.3992 51.2798 35.125 51.4268 35.6102 51.7916C36.0397 52.1146 36.2753 52.5796 36.3196 53.1864C36.364 53.7957 36.198 54.291 35.8205 54.6723C35.3923 55.1031 34.6956 55.3539 33.729 55.4248ZM33.653 54.3759C34.0495 54.3468 34.332 54.2112 34.5005 53.9718C34.636 53.7767 34.6943 53.555 34.6766 53.3067C34.6588 53.0571 34.5689 52.8481 34.4055 52.6771C34.2041 52.4617 33.9051 52.368 33.5086 52.3971C33.1133 52.4263 32.8296 52.5618 32.6598 52.8038C32.523 52.9963 32.4647 53.2168 32.4825 53.4663C32.5015 53.7146 32.5914 53.9262 32.7536 54.0985C32.9575 54.3113 33.2565 54.4038 33.653 54.3759Z" stroke="#231F20" stroke-width="2.73213"/>
<path d="M39.6146 55.0752C38.6467 55.1195 37.9247 54.9536 37.4496 54.5761C37.029 54.2416 36.8048 53.7691 36.7769 53.1598C36.749 52.5517 36.9289 52.0614 37.3166 51.6903C37.7549 51.2709 38.458 51.0391 39.4258 50.9948C40.395 50.9492 41.1158 51.1164 41.5908 51.4939C42.0114 51.8283 42.2356 52.2983 42.2635 52.9064C42.2914 53.5157 42.1115 54.0073 41.7238 54.3784C41.2855 54.7978 40.5824 55.0309 39.6146 55.0752ZM39.5665 54.0237C39.963 54.006 40.248 53.878 40.4241 53.6424C40.5647 53.4524 40.6293 53.232 40.6179 52.9824C40.6065 52.7328 40.5216 52.5213 40.3633 52.3465C40.1682 52.1248 39.8718 52.0234 39.474 52.0424C39.0775 52.0602 38.7912 52.1881 38.6138 52.4263C38.4732 52.615 38.4086 52.8342 38.42 53.0838C38.4314 53.3333 38.5163 53.5461 38.6733 53.7235C38.8722 53.9414 39.1687 54.0427 39.5665 54.0237Z" stroke="#231F20" stroke-width="2.73212"/>
<path d="M45.8866 54.7889L44.2423 54.8244L44.179 51.8739L42.6436 51.9069L42.6233 50.9365L47.3384 50.8351L47.3587 51.8055L45.8233 51.8385L45.8866 54.7889Z" stroke="#231F20" stroke-width="2.73213"/>
<path d="M54.154 54.7863L52.782 54.7736L51.8382 52.2185L50.8476 54.7559L49.4769 54.7432L47.6273 50.8085L49.2932 50.8237L50.2547 53.3219L51.3315 50.8414L52.3703 50.8516L53.4027 53.3497L54.4086 50.8693L56.0757 50.8845L54.154 54.7863Z" stroke="#231F20" stroke-width="2.73213"/>
<path d="M61.1974 55.0359L56.4798 54.8446L56.6381 50.9276L61.1404 51.1088L61.1011 52.0779L58.2432 51.9626L58.2179 52.577L60.6337 52.6746L60.6033 53.4283L58.1875 53.3308L58.1634 53.9426L61.2367 54.0668L61.1974 55.0359Z" stroke="#231F20" stroke-width="2.73213"/>
<path d="M67.9559 55.4768L66.2926 55.3653L65.967 54.6989L63.5005 54.533L63.0888 55.1487L61.4255 55.0372L64.1922 51.2963L65.7162 51.3989L67.9559 55.4768ZM65.4793 53.6944L64.8801 52.463L64.1188 53.6031L65.4793 53.6944Z" stroke="#231F20" stroke-width="2.73213"/>
<path d="M73.7263 56.0342L72.1782 55.886C72.1174 55.7808 72.0794 55.6516 72.0655 55.4958C72.0516 55.3754 72.0237 55.2563 71.9844 55.1385C71.9439 55.0207 71.8653 54.9181 71.7488 54.8307C71.6322 54.7433 71.4511 54.685 71.2066 54.6559L70.1437 54.5545L70.0348 55.6807L68.3981 55.5236L68.773 51.6206L71.4359 51.8752C72.0718 51.9373 72.5811 52.0336 72.9624 52.1666C73.3437 52.2996 73.6148 52.4757 73.7744 52.6974C73.9353 52.9191 73.9987 53.1927 73.967 53.5208C73.9417 53.7957 73.8568 54.0199 73.7149 54.1948C73.573 54.3696 73.3627 54.4988 73.084 54.5811C73.3323 54.7129 73.4881 54.8573 73.5515 55.0144C73.6135 55.1715 73.6452 55.3412 73.6465 55.5224C73.649 55.6833 73.6756 55.8543 73.7263 56.0342ZM70.2362 53.5917L71.1711 53.6779C71.4334 53.7032 71.6398 53.7121 71.7931 53.702C71.9451 53.6931 72.0592 53.6716 72.1352 53.6374C72.2099 53.6044 72.2606 53.5626 72.2859 53.5145C72.31 53.4676 72.3252 53.4169 72.3303 53.3637C72.3353 53.3118 72.3303 53.2586 72.3151 53.2066C72.2999 53.1534 72.2581 53.104 72.1909 53.0559C72.1238 53.0077 72.0148 52.9647 71.8666 52.9267C71.7184 52.8887 71.5144 52.8583 71.2535 52.8329L70.3173 52.743L70.2362 53.5917Z" stroke="#231F20" stroke-width="2.73213"/>
<path d="M27.7316 55.8581L26.0949 56.0203L25.7148 52.1185L30.1943 51.6776L30.2855 52.6455L27.4428 52.9242L27.5036 53.5322L29.9105 53.2941L29.9866 54.044L27.5796 54.2822L27.7316 55.8581Z" fill="#FEFEFE"/>
<path d="M33.7257 55.4288C32.7591 55.4972 32.0358 55.3477 31.5569 54.9828C31.1237 54.6623 30.8855 54.1961 30.8424 53.5843C30.7981 52.98 30.9653 52.4872 31.3441 52.1046C31.7697 51.6726 32.4652 51.4231 33.4318 51.3547C34.4009 51.2837 35.1255 51.4307 35.6057 51.7955C36.0376 52.1173 36.2758 52.5797 36.3201 53.184C36.3632 53.7958 36.196 54.2924 35.8185 54.6737C35.3928 55.107 34.6948 55.3578 33.7257 55.4288ZM33.6497 54.3798C34.0449 54.3494 34.3262 54.2151 34.4959 53.9744C34.634 53.7794 34.6948 53.5564 34.6783 53.3056C34.6606 53.0598 34.5694 52.8495 34.4047 52.6772C34.202 52.4644 33.9031 52.3732 33.5078 52.4036C33.1126 52.4315 32.8301 52.5645 32.6616 52.8039C32.526 52.9965 32.4665 53.2169 32.4842 53.4627C32.5007 53.7135 32.5906 53.9263 32.7528 54.1011C32.9555 54.314 33.2544 54.4077 33.6497 54.3798Z" fill="#FEFEFE"/>
<path d="M39.6133 55.076C38.6467 55.1203 37.9259 54.9531 37.4496 54.5743C37.0302 54.2399 36.806 53.7674 36.7756 53.1555C36.7477 52.5512 36.9289 52.0635 37.3178 51.6911C37.7561 51.273 38.4592 51.0412 39.4258 50.9969C40.3949 50.9538 41.1157 51.121 41.5895 51.4985C42.0114 51.8304 42.2356 52.2979 42.2635 52.9021C42.2939 53.514 42.1127 54.0068 41.7213 54.3818C41.2855 54.8011 40.5824 55.0329 39.6133 55.076ZM39.5626 54.022C39.9579 54.0055 40.2429 53.8789 40.419 53.642C40.5634 53.4494 40.6293 53.229 40.6166 52.9782C40.6065 52.7324 40.5203 52.5221 40.3582 52.3498C40.1618 52.1307 39.8667 52.0293 39.4714 52.0458C39.0762 52.066 38.7899 52.1953 38.615 52.4309C38.4757 52.6171 38.4123 52.8337 38.4225 53.0795C38.4351 53.3303 38.52 53.5444 38.6758 53.723C38.8709 53.9435 39.1674 54.0423 39.5626 54.022Z" fill="#FEFEFE"/>
<path d="M45.8875 54.7892L44.2407 54.8247L44.1799 51.8755L42.6445 51.9059L42.6191 50.933L47.3368 50.8317L47.3621 51.8046L45.8267 51.8401L45.8875 54.7892Z" fill="#FEFEFE"/>
<path d="M54.1527 54.7867L52.7795 54.7715L51.837 52.2227L50.8489 54.7563L49.4757 54.7411L47.6261 50.8089L49.2932 50.8241L50.256 53.3223L51.3303 50.8444L52.3691 50.8545L53.4028 53.3476L54.4061 50.8697L56.0732 50.8849L54.1527 54.7867Z" fill="#FEFEFE"/>
<path d="M61.1966 55.035L56.479 54.8425L56.6361 50.9255L61.1358 51.1079L61.0953 52.0757L58.2424 51.9643L58.2221 52.5774L60.6342 52.6737L60.6038 53.4287L58.1917 53.3324L58.1664 53.9456L61.2372 54.0672L61.1966 55.035Z" fill="#FEFEFE"/>
<path d="M67.9522 55.4749L66.2901 55.3634L65.9709 54.6945L63.5031 54.5324L63.0876 55.1506L61.4255 55.0391L64.1923 51.2994L65.7125 51.4008L67.9522 55.4749ZM65.4743 53.6963L64.8814 52.4598L64.1163 53.605L65.4743 53.6963Z" fill="#FEFEFE"/>
<path d="M73.7241 56.0337L72.1786 55.8868C72.1178 55.7816 72.0785 55.6511 72.0621 55.4966C72.0443 55.375 72.0165 55.2559 71.9759 55.1368C71.9379 55.019 71.8607 54.9164 71.7428 54.8277C71.6276 54.7403 71.4489 54.6833 71.2057 54.6554L70.1416 54.5541L70.0352 55.679L68.3984 55.5219L68.7734 51.6201L71.4337 51.8785C72.0684 51.9394 72.5764 52.0356 72.959 52.1674C73.3441 52.2991 73.6152 52.4765 73.7748 52.6994C73.9332 52.9199 73.9978 53.1935 73.9674 53.5203C73.9395 53.794 73.8534 54.0195 73.7089 54.1943C73.5671 54.3666 73.3568 54.4958 73.0806 54.5794C73.3302 54.7112 73.4872 54.8568 73.5519 55.0152C73.6152 55.171 73.6456 55.3395 73.6431 55.5219C73.6456 55.6803 73.6735 55.8513 73.7241 56.0337ZM70.2379 53.5913L71.1702 53.6774C71.4337 53.7015 71.6415 53.7104 71.7935 53.7028C71.9455 53.6926 72.0583 53.6711 72.133 53.6369C72.2065 53.604 72.2559 53.5634 72.28 53.5153C72.3066 53.4684 72.323 53.4177 72.3306 53.3633C72.3332 53.3101 72.3268 53.2568 72.3104 53.2062C72.2964 53.153 72.2559 53.1036 72.1888 53.0592C72.1204 53.0124 72.0127 52.9705 71.8645 52.9325C71.7188 52.892 71.5148 52.8603 71.2513 52.8363L70.3189 52.7451L70.2379 53.5913Z" fill="#FEFEFE"/>
</svg>
