<svg width="88" height="65" viewBox="0 0 88 65" fill="none" xmlns="http://www.w3.org/2000/svg">
<path d="M12.5971 26.4592C12.5696 27.0727 12.5529 27.691 12.5612 28.3081C12.4288 28.5599 12.3058 28.8166 12.1948 29.072C12.2915 28.1899 12.4288 27.3162 12.5971 26.4592ZM25.2036 7.11495C24.6426 7.74038 24.1354 8.43863 23.6722 9.19774C22.6183 9.7265 21.6467 10.3006 20.7647 10.9177C22.1194 9.51881 23.6066 8.2393 25.2036 7.11495ZM65.5489 10.9141C64.6668 10.2958 63.6917 9.71814 62.6366 9.19297C62.1734 8.4255 61.6566 7.72367 61.0921 7.09227C62.5399 8.11159 63.9125 9.25861 65.1872 10.5345C65.3102 10.6539 65.4295 10.7852 65.5489 10.9141ZM73.7523 28.3045C73.7655 27.6779 73.7476 27.0596 73.7165 26.4425C73.8848 27.2983 74.0125 28.1589 74.1092 29.0326C74.0042 28.7891 73.8848 28.542 73.7523 28.3045ZM73.6282 39.0801C73.5626 37.9021 73.2319 36.755 72.6495 35.6378C73.2319 33.5861 73.5888 31.4985 73.7082 29.4122C74.0209 30.1617 74.2107 30.9256 74.2954 31.6979C74.299 31.9843 74.3121 32.2755 74.3121 32.5668C74.3121 34.7821 74.0782 36.9615 73.6282 39.0801ZM64.4854 55.2662C64.5606 55.1552 64.6262 55.0406 64.6931 54.926C64.9402 54.741 65.1789 54.5465 65.4212 54.3519C65.3412 54.4319 65.266 54.5202 65.1872 54.599C64.9581 54.8294 64.7193 55.0454 64.4854 55.2662ZM20.8745 54.3352C21.118 54.5334 21.3603 54.7315 21.6074 54.9177C21.673 55.0323 21.7446 55.1469 21.8186 55.2614C21.5847 55.0406 21.3507 54.8246 21.1216 54.599C21.038 54.5107 20.9581 54.4235 20.8745 54.3352ZM15.6896 25.2239C15.7159 27.2542 15.9725 29.337 16.475 31.4639C16.5156 31.6227 16.555 31.7814 16.5943 31.9401C16.3115 32.1872 16.0429 32.4391 15.7875 32.6945C15.0105 33.4715 14.3707 34.2748 13.8766 35.0912C13.3156 32.9953 12.9981 30.8683 12.9277 28.7366C13.5579 27.5012 14.4901 26.3232 15.6896 25.2239ZM13.9685 21.6587C14.5736 20.4937 15.4521 19.3909 16.5681 18.3668C16.0071 20.3434 15.7123 22.413 15.6848 24.5447C15.3805 24.8097 15.0892 25.0783 14.8159 25.348C14.0484 26.1203 13.417 26.9056 12.9098 27.7125C12.9145 26.4951 13.0029 25.2812 13.17 24.0769C13.4039 23.2557 13.6737 22.4488 13.9685 21.6587ZM18.7213 13.2571C18.51 13.6235 18.3071 13.9983 18.1173 14.3779C17.8786 14.5855 17.6495 14.7885 17.4334 15.0045C17.8428 14.4041 18.2713 13.8169 18.7213 13.2571ZM22.5073 11.5049C21.1084 12.2151 19.8647 12.9921 18.7917 13.8264C19.1319 13.2034 19.5067 12.5947 19.9089 11.9991C20.9055 11.1827 22.0621 10.4283 23.3464 9.75275C23.0408 10.309 22.7592 10.8914 22.5073 11.5049ZM29.1842 7.42289C28.9192 7.97433 28.6805 8.56634 28.4692 9.18819C27.5776 9.44839 26.7123 9.73604 25.8744 10.044C24.8503 10.4283 23.8931 10.8341 22.9931 11.271C23.2712 10.6312 23.5792 10.0273 23.9193 9.45794C25.5032 8.67257 27.2733 7.98865 29.1842 7.42289ZM26.7612 6.07773C27.216 5.79485 27.6743 5.5263 28.1422 5.26968C29.1878 4.78867 30.3229 4.36137 31.5224 3.99494C30.6929 4.84238 29.9827 5.84379 29.3871 7.00395C27.5418 7.53748 25.8171 8.17723 24.2595 8.91009C24.978 7.81558 25.8171 6.86669 26.7612 6.07773ZM32.0655 3.47335C31.9855 3.49125 31.9067 3.51393 31.8268 3.54019C31.9246 3.5008 32.0213 3.46499 32.118 3.42919C32.1001 3.44351 32.0834 3.45664 32.0655 3.47335ZM37.4008 2.38003C35.8026 2.58652 34.2629 2.8873 32.8019 3.27044C32.8115 3.23941 32.815 3.20479 32.8115 3.17376C34.4264 2.60442 36.0986 2.1628 37.8245 1.86799C37.6741 2.02196 37.5333 2.19383 37.4008 2.38003ZM53.5117 3.26209C52.0507 2.87775 50.511 2.57817 48.9092 2.37048C48.7803 2.19025 48.6443 2.02196 48.4986 1.86799C50.2055 2.1628 51.8824 2.5913 53.5069 3.16063C53.4973 3.19644 53.4973 3.22628 53.5117 3.26209ZM54.2302 3.45664C54.2171 3.44351 54.1992 3.42919 54.1825 3.41248C54.2791 3.45186 54.3806 3.48767 54.4773 3.52706C54.3985 3.50438 54.3137 3.47812 54.2302 3.45664ZM63.3205 11.2626C62.4205 10.8294 61.4633 10.42 60.444 10.0404C59.6001 9.73127 58.7359 9.44481 57.8491 9.18342C57.6367 8.56156 57.3944 7.97433 57.1294 7.41454C59.0403 7.98387 60.8092 8.66302 62.3895 9.45317C62.7332 10.0225 63.0424 10.6265 63.3205 11.2626ZM66.3963 11.9859C66.8021 12.5815 67.1769 13.1903 67.5171 13.8133C66.4453 12.9838 65.2051 12.2067 63.8063 11.5001C63.5544 10.8867 63.2715 10.3006 62.9636 9.7444C64.2467 10.4235 65.3985 11.1695 66.3963 11.9859ZM68.1879 14.3647C67.9981 13.9756 67.7904 13.5961 67.5744 13.2177C68.0375 13.8038 68.4839 14.3993 68.9028 15.0093C68.6737 14.792 68.4349 14.5724 68.1879 14.3647ZM71.506 25.348C71.2279 25.0735 70.9367 24.8097 70.6323 24.54C70.6013 22.3868 70.3017 20.2992 69.7324 18.3047C70.8484 19.3372 71.7268 20.4496 72.3403 21.6276C72.6447 22.4393 72.9132 23.2652 73.1472 24.1031C73.3155 25.2991 73.399 26.4998 73.4038 27.7089C72.9001 26.9009 72.2699 26.1155 71.506 25.348ZM70.4294 32.6945C70.2002 32.4605 69.9532 32.2362 69.7013 32.0153C69.7503 31.8303 69.798 31.6441 69.8386 31.4639C70.3459 29.337 70.6013 27.2542 70.624 25.2287C70.8006 25.3874 70.9725 25.5509 71.136 25.718C72.1112 26.6896 72.8607 27.6994 73.3907 28.7318C73.3203 30.8993 72.9884 33.0705 72.406 35.2058C71.9035 34.3452 71.241 33.5073 70.4294 32.6945ZM71.1217 38.9393C70.6455 38.136 70.0236 37.359 69.2693 36.5999C69.0126 36.348 68.7477 36.1057 68.4708 35.8587C68.9112 34.7069 69.2955 33.5515 69.6082 32.3901C69.8028 32.5716 69.9973 32.7518 70.1871 32.938C71.0739 33.8248 71.771 34.7427 72.2783 35.6772C71.9608 36.7765 71.5729 37.8663 71.1217 38.9393ZM73.2713 40.1484C72.9753 40.9421 72.653 41.7012 72.3045 42.4341C72.2031 41.3706 71.8808 40.3286 71.3341 39.3141C71.7889 38.2637 72.1816 37.205 72.5074 36.1284C73.0326 37.236 73.2976 38.3735 73.2976 39.5349C73.2976 39.7378 73.2892 39.9455 73.2713 40.1484ZM72.3356 43.1526C72.4943 42.8435 72.6447 42.526 72.7951 42.2037C72.6447 42.6585 72.4907 43.1049 72.3224 43.5548C72.3308 43.4176 72.3356 43.2899 72.3356 43.1526ZM58.7622 57.7859C58.9747 57.2822 59.0845 56.7701 59.1024 56.2414C61.1279 55.1862 63.2321 53.8315 65.2314 52.1235C65.1741 52.9936 64.9008 53.8542 64.4329 54.6873C62.6759 55.9812 60.7352 57.0041 58.7622 57.7859ZM55.7401 61.0777C55.7126 61.0861 55.6864 61.0992 55.6601 61.104C56.1149 60.8128 56.5338 60.512 56.9086 60.1909C57.5483 60.0011 58.1845 59.7708 58.8016 59.5201C57.8085 60.093 56.7892 60.6146 55.7401 61.0777ZM29.3692 60.1766C29.7308 60.4953 30.1367 60.7949 30.5783 61.0777C30.5699 61.0777 30.5604 61.073 30.552 61.0682C29.51 60.6099 28.4871 60.0895 27.4977 59.5106C28.1076 59.7624 28.7342 59.988 29.3692 60.1766ZM21.0822 52.1235C23.0814 53.8268 25.1857 55.1815 27.2112 56.2366C27.2243 56.7618 27.3353 57.2786 27.5418 57.7811C25.5748 56.9957 23.6329 55.9764 21.8759 54.6837C21.4092 53.8494 21.1347 52.9889 21.0822 52.1235ZM13.9732 43.1395C13.9732 43.2767 13.9816 43.4092 13.9864 43.5501C13.8145 43.0917 13.6558 42.6322 13.5054 42.1691C13.6558 42.4997 13.8097 42.8268 13.9732 43.1395ZM17.8428 35.8539C17.5647 36.101 17.2962 36.3444 17.0443 36.5999C16.2852 37.3542 15.6717 38.136 15.1955 38.9297C14.7276 37.8221 14.3301 36.6977 14.0043 35.5591C14.644 34.4156 15.5535 33.3307 16.691 32.3149C17.0049 33.4978 17.3928 34.6806 17.8428 35.8539ZM21.6026 29.0672C21.8497 30.3073 22.1504 31.5558 22.5025 32.8007C20.8399 33.635 19.3658 34.5791 18.1257 35.6164C17.6757 34.4335 17.2914 33.2459 16.9823 32.0643C18.2665 30.965 19.8206 29.9636 21.6026 29.0672ZM21.4176 15.0749C21.0559 16.7423 20.8399 18.5434 20.7993 20.4711C20.791 20.7146 20.7957 20.9569 20.7957 21.1992C18.991 22.1003 17.3893 23.1196 16.0429 24.2404C16.1002 22.0514 16.4404 19.9375 17.067 17.9216C18.2892 16.8844 19.7537 15.9307 21.4176 15.0749ZM21.519 14.607C19.8994 15.4282 18.4694 16.3329 17.2604 17.3033C17.5826 16.3723 17.9622 15.4628 18.4038 14.576C19.5162 13.6235 20.8399 12.7498 22.3354 11.9645C22.018 12.7976 21.7398 13.6808 21.519 14.607ZM27.6791 12.2151C26.4127 12.5863 25.1953 13.0052 24.047 13.4648C23.3106 13.7644 22.604 14.0771 21.9296 14.4041C22.1671 13.4648 22.4548 12.5636 22.7938 11.7257C24.454 10.8914 26.3196 10.1681 28.3367 9.56775C28.0765 10.3925 27.851 11.2758 27.6791 12.2151ZM35.423 8.05429C35.2869 8.88383 35.1724 9.75275 35.0876 10.6491C32.63 10.9893 30.2656 11.4739 28.0503 12.1053C28.2353 11.1564 28.4645 10.2743 28.7426 9.44839C30.8254 8.84802 33.0669 8.38133 35.423 8.05429ZM35.8467 6.00731C35.7107 6.54561 35.5913 7.11018 35.4803 7.70577C33.1815 8.01849 30.9626 8.47324 28.875 9.06525C29.0994 8.43863 29.3477 7.84661 29.6246 7.29041C31.5713 6.73897 33.6625 6.3069 35.8467 6.00731ZM42.9819 5.173C40.6926 5.17658 38.4463 5.3222 36.2967 5.59672C36.6369 4.42702 37.0654 3.44351 37.5774 2.70588C39.3284 2.47671 41.1379 2.35735 42.9819 2.349V5.173ZM50.0205 5.59672C47.8672 5.3222 45.6209 5.17658 43.3269 5.173V2.349C45.1805 2.35258 46.9888 2.47194 48.7278 2.69275C49.2482 3.43396 49.6719 4.41866 50.0205 5.59672ZM50.8321 7.701C50.727 7.11018 50.6077 6.54084 50.4668 6.00254C52.6547 6.30212 54.7422 6.73539 56.6878 7.28683C56.9659 7.84303 57.2177 8.43863 57.4433 9.06525C55.351 8.46847 53.1357 8.01491 50.8321 7.701ZM58.2633 12.0922C56.0659 11.4691 53.705 10.9798 51.2295 10.6396C51.1412 9.7444 51.0314 8.87906 50.8906 8.05429C53.2503 8.37656 55.493 8.84802 57.5758 9.44481C57.8491 10.2696 58.0783 11.148 58.2633 12.0922ZM64.3839 14.3826C62.6497 13.5436 60.7221 12.8107 58.6345 12.202C58.4578 11.2626 58.2418 10.3889 57.9768 9.56298C59.9976 10.1681 61.8595 10.8867 63.5186 11.7174C63.8588 12.5553 64.1452 13.4469 64.3839 14.3826ZM64.7945 14.5808C64.569 13.6581 64.2956 12.7844 63.9781 11.9597C65.4737 12.7403 66.7938 13.614 67.905 14.5676C68.3419 15.4413 68.7262 16.3461 69.0437 17.2675C67.8262 16.2924 66.3963 15.3876 64.7945 14.5808ZM65.5226 21.1956C65.5226 20.9569 65.5226 20.7146 65.5178 20.4711C65.4737 18.5208 65.2576 16.6946 64.8876 15.0093C66.5467 15.8603 68.0112 16.8175 69.2287 17.8595C69.8649 19.8982 70.2182 22.0299 70.2754 24.2356C68.9243 23.1196 67.3273 22.1003 65.5226 21.1956ZM63.8098 32.8007C64.1631 31.5701 64.4591 30.3384 64.7014 29.1161C66.4894 30.0209 68.0375 31.0306 69.3134 32.1347C69.0091 33.2949 68.6331 34.4646 68.1927 35.6199C66.9478 34.5791 65.4737 33.6386 63.8098 32.8007ZM66.6923 39.0443C65.5358 38.0787 64.1679 37.2002 62.6234 36.4232C63.0292 35.3335 63.3909 34.239 63.7132 33.1361C65.3722 33.974 66.8332 34.9193 68.0602 35.9601C67.6544 36.9973 67.1996 38.025 66.6923 39.0443ZM69.4937 42.2443C69.0389 41.4673 68.4433 40.7082 67.7069 39.9669C67.4729 39.733 67.2175 39.5038 66.9609 39.2783C67.4729 38.2637 67.9277 37.236 68.3383 36.2024C68.5722 36.4149 68.8062 36.6261 69.0222 36.8434C69.829 37.655 70.4688 38.4845 70.9498 39.3403C70.5177 40.3202 70.0367 41.2906 69.4937 42.2443ZM51.5303 58.6416C51.5029 58.3814 51.4324 58.1212 51.3179 57.8646C53.8244 56.899 56.1674 55.7198 58.3254 54.3436C58.5987 54.8902 58.7407 55.456 58.7538 56.0337C56.0444 57.4242 53.4842 58.2621 51.5303 58.6416ZM51.4014 59.6693C51.4814 59.4533 51.5256 59.2241 51.5387 58.9949C53.4842 58.6154 56.0313 57.7942 58.7443 56.4216C58.7049 56.9432 58.5593 57.4588 58.3122 57.9577C55.9334 58.8529 53.5415 59.4139 51.4014 59.6693ZM49.6457 61.6292C49.95 61.4394 50.2234 61.2317 50.4621 61.0157C52.2453 61.135 54.1777 60.919 56.0838 60.4249C55.5634 60.8032 54.9714 61.1613 54.3316 61.4836C52.8576 61.8404 51.6712 61.85 49.6457 61.6292ZM38.962 62.6127C40.2116 62.9743 41.6499 63.182 43.155 63.182C43.8998 63.182 44.6195 63.1343 45.3034 63.0459C45.5326 63.2703 45.7713 63.4553 46.0136 63.5926C45.0695 63.6762 44.117 63.7251 43.155 63.7251C41.0448 63.7251 38.9667 63.5126 36.9412 63.1068C37.6478 63.0459 38.3007 62.8824 38.962 62.6127ZM35.8646 61.0157C36.1033 61.2317 36.3767 61.4394 36.681 61.6292C34.6424 61.85 33.4548 61.8404 31.9724 61.4788C31.3326 61.1565 30.7454 60.8032 30.225 60.4201C32.1359 60.919 34.0778 61.135 35.8646 61.0157ZM34.7749 58.9949C34.788 59.2193 34.8322 59.4485 34.9122 59.6693C32.7709 59.4091 30.3754 58.8529 27.9966 57.953C27.7495 57.454 27.6039 56.9432 27.5693 56.4216C30.2787 57.7894 32.8246 58.6154 34.7749 58.9949ZM27.9834 54.3352C30.1462 55.7198 32.4892 56.899 34.9957 57.861C34.8764 58.1165 34.8059 58.3767 34.7797 58.6416C32.8246 58.2573 30.2691 57.4194 27.5561 56.0289C27.5693 55.4464 27.7185 54.8819 27.9834 54.3352ZM16.6254 42.588C16.1181 43.5417 15.8221 44.5204 15.7433 45.5266C15.2349 44.7413 14.7586 43.9296 14.3218 43.0643C14.3349 41.9173 14.6214 40.8013 15.1561 39.7282C15.5929 40.6998 16.0823 41.6523 16.6254 42.588ZM19.3563 39.2747C19.0925 39.5038 18.8407 39.733 18.6019 39.9669C17.8703 40.7034 17.2735 41.4625 16.8199 42.2395C16.2816 41.2859 15.7958 40.3202 15.3673 39.3403C15.9856 38.2327 16.8677 37.1823 17.9753 36.2024C18.3859 37.2313 18.8454 38.2589 19.3563 39.2747ZM23.6949 36.4196C22.1457 37.1955 20.7778 38.0739 19.6213 39.0407C19.114 38.025 18.6592 36.9926 18.2534 35.9601C19.4673 34.936 20.9318 33.9919 22.604 33.1492C22.9263 34.2438 23.2879 35.3383 23.6949 36.4196ZM28.6101 30.8325C28.8488 31.9485 29.1173 33.0788 29.4181 34.2127C27.4499 34.7821 25.6357 35.4707 24.0029 36.2645C23.6018 35.1795 23.2402 34.0898 22.9179 32.9953C24.6211 32.1657 26.5368 31.4377 28.6101 30.8325ZM27.8331 26.6586C28.0276 27.9118 28.2568 29.1866 28.5313 30.4792C26.4616 31.0796 24.5412 31.8029 22.8212 32.6467C22.4679 31.3971 22.1671 30.1486 21.9201 28.9085C23.6949 28.0443 25.6798 27.2852 27.8331 26.6586ZM27.167 19.293C27.2112 21.4999 27.4189 23.8513 27.7805 26.3005C25.6321 26.9235 23.6412 27.6731 21.8497 28.5468C21.3997 26.1811 21.1622 23.8513 21.1347 21.6145C22.9394 20.7229 24.9649 19.9471 27.167 19.293ZM27.2864 15.1238C27.1849 16.2757 27.1456 17.4883 27.1539 18.7464C24.9828 19.3813 22.9621 20.15 21.1395 21.0273C21.1395 20.847 21.1395 20.6609 21.1443 20.4806C21.1884 18.473 21.4176 16.5931 21.815 14.872C23.5577 14.0114 25.4996 13.2523 27.6087 12.6173C27.4714 13.4158 27.3616 14.2454 27.2864 15.1238ZM34.8274 17.1398C32.2505 17.4883 29.7929 17.9956 27.4977 18.6449C27.4893 17.4489 27.5335 16.2792 27.6301 15.1501C27.7101 14.2275 27.8295 13.3454 27.9751 12.5159C30.1856 11.8666 32.5644 11.3593 35.053 11.0108C34.8811 12.9873 34.8143 15.088 34.8274 17.1398ZM42.9819 10.4462V16.5931C40.2821 16.6015 37.6431 16.7781 35.1103 17.1052C35.1055 14.9162 35.1855 12.8465 35.3574 10.9666C37.8102 10.6396 40.3656 10.4594 42.9819 10.4462ZM42.9819 7.53748V10.1013C40.4098 10.1108 37.8591 10.2827 35.392 10.605C35.4851 9.69546 35.5997 8.82176 35.7453 8.01491C38.062 7.71054 40.4897 7.54702 42.9819 7.53748ZM42.9819 7.18895C40.5291 7.1985 38.1288 7.35725 35.8073 7.65683C35.9219 7.06124 36.0496 6.4919 36.1917 5.96315C38.3759 5.6755 40.6521 5.5263 42.9819 5.51675V7.18895ZM43.3269 7.18895V5.51675C45.6615 5.5263 47.9377 5.6755 50.1219 5.95837C50.2675 6.48832 50.3917 7.05646 50.5062 7.65683C48.1847 7.35725 45.7797 7.1985 43.3269 7.18895ZM43.3269 10.1013V7.53748C45.8238 7.54225 48.2516 7.70577 50.5719 8.01013C50.7139 8.82176 50.8285 9.68711 50.9204 10.5954C48.4891 10.2779 45.9384 10.1108 43.3269 10.1013ZM51.2033 17.1052C48.6753 16.7734 46.0315 16.5967 43.3269 16.5931V10.4462C45.9563 10.4546 48.5118 10.6312 50.9562 10.9487C51.1329 12.8334 51.2116 14.9114 51.2033 17.1052ZM58.687 15.1501C58.7849 16.2792 58.8243 17.4489 58.8147 18.6449C56.5254 17.9956 54.0667 17.4883 51.4897 17.1398C51.4993 15.0797 51.4372 12.9742 51.2606 10.9893C53.7587 11.333 56.128 11.832 58.3301 12.4622C58.4841 13.3144 58.6035 14.2096 58.687 15.1501ZM59.1597 18.7464C59.1728 17.4883 59.1286 16.2757 59.032 15.1238C58.952 14.2322 58.8422 13.3848 58.7001 12.5684C60.8092 13.195 62.7511 13.9458 64.4902 14.8052C64.8912 16.549 65.1252 18.4468 65.1741 20.4806C65.1789 20.6609 65.1741 20.847 65.1789 21.0273C63.3563 20.1452 61.3344 19.3813 59.1597 18.7464ZM58.5283 26.3315C58.8995 23.8644 59.106 21.4999 59.1501 19.2763C61.3391 19.9244 63.3646 20.705 65.1789 21.6062C65.1562 23.8561 64.9091 26.2086 64.4591 28.591C62.6724 27.7125 60.6779 26.9582 58.5283 26.3315ZM57.7823 30.484C58.0568 29.1997 58.2812 27.9381 58.4757 26.698C58.7359 26.7732 59.0009 26.8436 59.2611 26.9235C61.1231 27.5096 62.8347 28.1899 64.3839 28.9526C64.1417 30.1796 63.8456 31.415 63.4971 32.6467C61.7712 31.8077 59.8567 31.0796 57.7823 30.484ZM56.9002 34.2127C57.1998 33.074 57.4696 31.9401 57.7071 30.8194C59.7767 31.415 61.6877 32.1431 63.4004 32.9821C63.0782 34.0802 62.7165 35.1795 62.3143 36.2692C60.6815 35.4743 58.8637 34.7821 56.9002 34.2127ZM61.141 39.1637C60.444 40.7344 59.6753 42.2526 58.8374 43.7136C57.5137 43.0643 56.0397 42.5045 54.4462 42.0414C54.9189 40.7655 55.3689 39.4501 55.7878 38.1097C56.159 36.9138 56.5028 35.7262 56.8167 34.5529C58.767 35.1127 60.5717 35.7966 62.1949 36.5915C61.8643 37.4557 61.5206 38.3162 61.141 39.1637ZM62.3585 45.9468C61.4406 45.1829 60.3592 44.4858 59.1465 43.8676C59.9844 42.403 60.7567 40.88 61.4585 39.3045C61.8333 38.4583 62.1818 37.6061 62.5041 36.7455C64.0354 37.5225 65.3901 38.3962 66.5288 39.3582C65.377 41.6212 63.9781 43.8329 62.3585 45.9468ZM63.219 46.7274C63.0292 46.5376 62.8263 46.3526 62.6186 46.1712C64.2383 44.0621 65.642 41.8552 66.7974 39.5922C67.0277 39.7999 67.2521 40.0028 67.4598 40.214C68.232 40.9863 68.8408 41.7764 69.2907 42.588C69.1714 42.7957 69.0532 43.0034 68.9291 43.2063C67.7152 45.1698 66.3032 46.9923 64.7193 48.6598C64.3398 47.9938 63.8409 47.354 63.219 46.7274ZM57.4123 52.5162C57.2929 52.4016 57.1652 52.287 57.0375 52.1772C58.9305 50.4955 60.7221 48.5941 62.3405 46.5376C62.3632 46.5066 62.3847 46.4707 62.4074 46.4445C62.6055 46.6164 62.7953 46.793 62.972 46.9697C63.6034 47.6011 64.0975 48.254 64.4675 48.92C62.6807 50.7605 60.6636 52.4064 58.4531 53.8447C58.1881 53.3899 57.8396 52.9495 57.4123 52.5162ZM50.6208 56.8811C50.5946 56.8549 50.5719 56.837 50.5456 56.8143C52.6678 55.6541 54.7733 54.1538 56.7761 52.4064C56.9134 52.521 57.0458 52.6403 57.1688 52.7633C57.5794 53.1786 57.9112 53.6024 58.1666 54.0344C56.0038 55.4154 53.6609 56.5935 51.1543 57.5555C51.0135 57.3227 50.8369 57.0972 50.6208 56.8811ZM29.5279 52.398C31.5355 54.149 33.6446 55.6493 35.768 56.8107C35.7417 56.837 35.7142 56.8549 35.6928 56.8811C35.4767 57.0972 35.3001 57.3227 35.1545 57.5555C32.6479 56.5935 30.3085 55.4118 28.147 54.0344C28.4824 53.4568 28.9502 52.9089 29.5279 52.398ZM23.9014 46.4409C23.9289 46.4707 23.9504 46.5066 23.9766 46.5376C25.5915 48.5941 27.3831 50.4955 29.2761 52.1725C29.1484 52.287 29.0207 52.4016 28.8965 52.5162C28.4692 52.9447 28.1207 53.3899 27.8557 53.8447C25.6488 52.4064 23.6329 50.7557 21.8461 48.92C22.3271 48.0463 23.0241 47.2132 23.9014 46.4409ZM23.6949 46.1664C23.4872 46.3478 23.2843 46.5376 23.0946 46.7274C22.4679 47.3492 21.9738 47.9938 21.5942 48.6514C20.0056 46.9876 18.5984 45.1698 17.3893 43.2063C17.2604 43.0034 17.1458 42.7957 17.0228 42.588C17.6089 41.5293 18.4527 40.5279 19.5162 39.5922C20.6764 41.8516 22.0752 44.0573 23.6949 46.1664ZM24.8599 39.3045C25.5569 40.8765 26.3292 42.3983 27.167 43.864C25.9532 44.4858 24.873 45.1829 23.9587 45.942C22.3402 43.8329 20.9366 41.6212 19.7848 39.3582C20.9139 38.4093 22.2686 37.5356 23.8131 36.7586C24.1401 37.6144 24.4887 38.4618 24.8599 39.3045ZM30.5293 38.1097C30.9495 39.4501 31.3995 40.7655 31.8673 42.0414C30.2739 42.4997 28.7999 43.0643 27.4762 43.7136C26.6419 42.2526 25.8696 40.7344 25.1726 39.1637C24.7978 38.321 24.454 37.4652 24.127 36.5999C25.7371 35.8193 27.5418 35.1306 29.5065 34.566C29.8192 35.7357 30.1546 36.9221 30.5293 38.1097ZM35.9971 33.2113C36.3456 35.8813 36.7515 38.4845 37.2014 40.9242C35.4588 41.1629 33.795 41.5031 32.2374 41.9352C31.3589 39.5695 30.552 37.0498 29.8633 34.4646C31.7742 33.9263 33.8308 33.5073 35.9971 33.2113ZM35.5471 29.3895C35.6665 30.5508 35.8026 31.7158 35.9482 32.8628C33.7818 33.154 31.7074 33.573 29.7702 34.116C29.4754 32.9989 29.2057 31.8697 28.9634 30.7358C31.0104 30.1617 33.2221 29.7034 35.5471 29.3895ZM35.1592 25.1272C35.2201 25.9341 35.2822 26.6765 35.3442 27.3294C35.392 27.8987 35.4505 28.4716 35.5113 29.041C33.1815 29.3501 30.9578 29.8048 28.8834 30.3825C28.6148 29.1078 28.3761 27.8319 28.1828 26.5571C30.3527 25.9436 32.6969 25.4626 35.1592 25.1272ZM35.1366 24.7823C32.6742 25.1093 30.3229 25.5855 28.1291 26.2038C27.7674 23.8214 27.5466 21.4605 27.5072 19.1916C29.7798 18.5387 32.2374 18.023 34.8322 17.6697C34.8537 20.2335 34.9862 22.7138 35.1366 24.7823ZM42.9819 24.2583C40.3883 24.2619 37.8507 24.4302 35.4147 24.7429C35.238 22.3032 35.1318 19.9065 35.1151 17.6304C37.6252 17.295 40.2642 17.1219 42.9819 17.1135V24.2583ZM50.8989 24.756C48.4676 24.4385 45.9253 24.2666 43.3269 24.2583V17.1135C46.0315 17.1183 48.6753 17.295 51.2033 17.6256C51.1854 19.9065 51.0792 22.3068 50.8989 24.756ZM51.1818 24.7918C51.331 22.7174 51.4587 20.2383 51.4862 17.6602C54.0631 18.0099 56.5207 18.5208 58.8111 19.1784C58.767 21.4558 58.5462 23.8346 58.1845 26.2301C55.9955 25.6082 53.643 25.1224 51.1818 24.7918ZM50.8058 29.041C50.8631 28.4716 50.9204 27.8987 50.9741 27.3294C51.0314 26.6801 51.0935 25.9472 51.1543 25.1451C53.5857 25.4757 55.9298 25.9651 58.1308 26.5965C57.9327 27.8581 57.6987 29.1209 57.4302 30.3825C55.3557 29.8048 53.1321 29.3501 50.8058 29.041ZM50.3654 32.8628C50.511 31.711 50.6471 30.5508 50.7712 29.3811C53.0832 29.6938 55.2984 30.1402 57.3586 30.7179C57.1115 31.8614 56.8429 32.9953 56.5469 34.116C54.605 33.573 52.5365 33.154 50.3654 32.8628ZM49.1121 40.9242C49.5621 38.4798 49.9727 35.8766 50.3212 33.2065C52.4744 33.4978 54.5346 33.9131 56.4586 34.4514C55.7663 37.0415 54.9535 39.5695 54.0798 41.9399C52.5222 41.5031 50.8548 41.1629 49.1121 40.9242ZM50.9741 49.1276C49.8748 48.8233 48.7015 48.5762 47.4746 48.4043C48.0308 46.3036 48.5643 43.8807 49.0548 41.2644C50.7748 41.4983 52.4207 41.8337 53.9616 42.261C53.0211 44.7771 52.0018 47.1021 50.9741 49.1276ZM54.2529 50.3594C53.366 49.9262 52.3909 49.5514 51.3358 49.2339C52.3766 47.1857 53.3923 44.8606 54.3281 42.3637C55.9024 42.8172 57.3633 43.3734 58.6691 44.0132C57.355 46.281 55.8714 48.4043 54.2529 50.3594ZM54.5656 50.5182C56.1805 48.5631 57.6629 46.4361 58.9782 44.1683C60.179 44.7771 61.2425 45.4693 62.1472 46.2201C62.1197 46.2547 62.0935 46.2857 62.0672 46.3216C60.4523 48.3781 58.6608 50.2747 56.7761 51.9481C56.1411 51.4229 55.3999 50.9419 54.5656 50.5182ZM51.177 49.5466C52.2047 49.851 53.1619 50.209 54.0225 50.6232C52.4482 52.4947 50.7402 54.2063 48.9224 55.7198C48.507 55.5216 48.0522 55.3414 47.5676 55.191C48.7457 53.8053 49.9763 51.8633 51.177 49.5466ZM47.3862 48.7433C48.587 48.9068 49.7388 49.1456 50.8154 49.4451C49.5932 51.8156 48.3566 53.7528 47.2048 55.0848C46.6009 54.9177 45.9563 54.7852 45.2855 54.6969C45.979 53.3601 46.694 51.2988 47.3862 48.7433ZM43.3269 48.4616C44.6112 48.4664 45.8644 48.55 47.0687 48.6992C46.3669 51.2594 45.6341 53.3195 44.9155 54.6527C44.4035 54.5954 43.8699 54.5644 43.3269 54.5596V48.4616ZM41.3981 54.6527C40.6795 53.3195 39.9467 51.2594 39.2496 48.6992C40.4408 48.5452 41.6941 48.4664 42.9819 48.4569V54.5596C42.4436 54.5644 41.9101 54.5954 41.3981 54.6527ZM39.1124 55.0848C37.9606 53.7528 36.7252 51.8156 35.503 49.4451C36.5748 49.1503 37.723 48.9116 38.9321 48.7433C39.6196 51.3035 40.3346 53.3601 41.0316 54.6969C40.3573 54.7804 39.7127 54.9129 39.1124 55.0848ZM37.396 55.7198C35.5782 54.2063 33.8702 52.4947 32.2899 50.628C33.1552 50.2174 34.1089 49.8557 35.1413 49.5466C36.3409 51.8633 37.5726 53.8053 38.7459 55.1862C38.2613 55.3414 37.8066 55.5169 37.396 55.7198ZM31.748 50.5134C30.9185 50.9419 30.1725 51.4229 29.5375 51.9433C27.6528 50.2711 25.8613 48.3781 24.2499 46.3216C24.2201 46.2857 24.1926 46.2511 24.1664 46.2153C25.0628 45.4741 26.1298 44.7902 27.3389 44.1767C28.6542 46.4409 30.1331 48.5631 31.748 50.5134ZM34.9778 49.2339C33.9275 49.5466 32.9475 49.9226 32.0655 50.3546C30.4458 48.4043 28.9681 46.2857 27.6528 44.0227C28.9502 43.3865 30.4112 42.8351 31.9903 42.3768C32.926 44.8654 33.9406 47.1905 34.9778 49.2339ZM38.839 48.4043C37.612 48.5762 36.4423 48.8233 35.3442 49.1276C34.3154 47.1021 33.3008 44.7771 32.3615 42.2658C33.8917 41.8421 35.534 41.5067 37.2635 41.2691C37.7529 43.8807 38.2876 46.3036 38.839 48.4043ZM42.9819 40.8765V48.1131C41.6678 48.1215 40.3883 48.2098 39.1565 48.3638C38.5967 46.2643 38.0537 43.8413 37.5595 41.2286C39.2938 41.0042 41.1116 40.8848 42.9819 40.8765ZM42.9819 32.7351V40.5315C41.0985 40.5363 39.258 40.6592 37.4974 40.8848C37.0379 38.4404 36.6285 35.8324 36.28 33.1719C38.4237 32.8938 40.67 32.7434 42.9819 32.7351ZM42.9819 28.8822V32.3901C40.6652 32.3949 38.4069 32.5453 36.2358 32.8222C36.0854 31.6752 35.9482 30.515 35.8252 29.3453C38.1157 29.0541 40.5112 28.8906 42.9819 28.8822ZM42.9819 28.5385C40.516 28.542 38.1014 28.7008 35.7894 29.0016C35.6569 27.6958 35.5376 26.3852 35.4409 25.0914C37.8507 24.7787 40.3787 24.6104 42.9819 24.602V28.5385ZM43.3269 28.5385V24.6068C45.8943 24.6152 48.4282 24.7918 50.8727 25.1093C50.7796 26.3984 50.6602 27.6994 50.5241 29.0016C48.211 28.7008 45.7976 28.542 43.3269 28.5385ZM43.3269 32.3901V28.8822C45.7892 28.8906 48.1895 29.0457 50.4931 29.3417C50.369 30.5102 50.2329 31.6752 50.0825 32.827C47.9114 32.5453 45.6472 32.3949 43.3269 32.3901ZM43.3269 40.5315V32.7351C45.6305 32.7386 47.8804 32.889 50.0384 33.1671C49.6898 35.8324 49.2745 38.4404 48.8209 40.8896C47.0556 40.6592 45.2103 40.5363 43.3269 40.5315ZM43.3269 40.8765C45.1936 40.8848 47.0114 40.9994 48.7588 41.225C48.2647 43.8413 47.7216 46.2643 47.1571 48.3685C45.9253 48.2098 44.641 48.1215 43.3269 48.1131V40.8765ZM36.0365 56.5672C33.9191 55.4154 31.8005 53.9246 29.7929 52.1677C30.4112 51.67 31.1428 51.2057 31.9724 50.7867C33.5479 52.6582 35.2511 54.3651 37.0606 55.8928C36.681 56.0957 36.3373 56.3201 36.0365 56.5672ZM49.253 55.8928C51.066 54.3698 52.7693 52.6582 54.3412 50.7867C55.1612 51.2057 55.8893 51.67 56.5123 52.1808C54.5035 53.9282 52.3945 55.4202 50.2771 56.572C49.9763 56.3249 49.6373 56.0993 49.253 55.8928ZM46.7512 63.5126C46.4027 63.4339 46.0673 63.2524 45.7451 62.9791C46.3144 62.886 46.8527 62.7631 47.36 62.6175C48.0212 62.8824 48.6705 63.0459 49.3676 63.1068C48.507 63.2799 47.6285 63.4112 46.7512 63.5126ZM50.2496 60.4905C48.9355 61.8094 46.1461 62.6616 43.155 62.6616C40.1627 62.6616 37.3781 61.8094 36.0592 60.4905C35.5471 59.9785 35.2869 59.4318 35.2869 58.8708C35.2869 56.7749 38.8163 55.0717 43.155 55.0717C46.1461 55.0717 48.9355 55.9275 50.2496 57.2476C50.7664 57.7596 51.0266 58.3063 51.0266 58.8708C51.0266 59.4318 50.7664 59.9785 50.2496 60.4905ZM16.0608 46.0255C16.0787 44.9668 16.3473 43.938 16.8366 42.9461C16.9214 43.0953 17.0049 43.2409 17.098 43.3913C18.337 45.4037 19.7895 47.2704 21.4224 48.9773C21.0297 49.7543 20.8041 50.5528 20.7468 51.3692C19.0567 49.8557 17.4549 48.0868 16.0608 46.0255ZM21.0738 51.6604C21.0953 50.8261 21.303 50.0192 21.6778 49.2422C23.4741 51.0696 25.4865 52.7155 27.6922 54.149C27.4141 54.7052 27.2601 55.2746 27.2208 55.857C25.1821 54.7804 23.0719 53.3995 21.0738 51.6604ZM29.1436 59.5022C28.7915 59.1537 28.5038 58.792 28.2699 58.4256C30.6224 59.2766 32.9786 59.8018 35.0793 60.0405C35.1986 60.2649 35.349 60.4774 35.534 60.6886C33.6279 60.7734 31.5534 60.4774 29.5458 59.877C29.4086 59.7541 29.2677 59.6299 29.1436 59.5022ZM34.2187 62.4277C33.8833 62.3131 33.5527 62.189 33.2352 62.0612C34.3428 62.1854 35.4851 62.1138 37.1979 61.9156C37.5774 62.1138 37.9868 62.2904 38.4332 62.4408C37.4927 62.7583 36.5533 62.8562 35.4063 62.7499C35.4015 62.7499 35.392 62.7499 35.392 62.7499C34.9993 62.6533 34.6066 62.5423 34.2187 62.4277ZM52.0901 62.4277C51.7022 62.5423 51.3131 62.6485 50.9204 62.7499C50.9168 62.7499 50.9168 62.7499 50.9121 62.7499C49.765 62.8562 48.834 62.7583 47.8983 62.4456C48.3435 62.2904 48.7588 62.1138 49.1336 61.9204C50.8321 62.1138 51.9708 62.1854 53.0748 62.0612C52.7561 62.189 52.4255 62.3131 52.0901 62.4277ZM56.763 59.877C54.7554 60.4774 52.6857 60.7734 50.7879 60.6886C50.9693 60.4774 51.1197 60.2649 51.2427 60.0405C53.335 59.8018 55.6911 59.2814 58.0425 58.4292C57.805 58.792 57.5173 59.1537 57.1688 59.5022C57.0411 59.6299 56.9002 59.7541 56.763 59.877ZM59.0892 55.8618C59.0534 55.2746 58.8947 54.71 58.6166 54.149C60.8271 52.7155 62.8395 51.0732 64.6358 49.2422C65.0189 50.0276 65.2183 50.8404 65.2362 51.6652C63.2369 53.3995 61.1279 54.7852 59.0892 55.8618ZM65.5668 51.374C65.5095 50.5576 65.2839 49.7591 64.8876 48.982C66.5288 47.2704 67.9802 45.4037 69.2203 43.3913C69.3086 43.2409 69.3922 43.0953 69.4805 42.9461C69.9747 43.9475 70.2349 44.98 70.248 46.0339C68.8539 48.0904 67.2569 49.8605 65.5668 51.374ZM70.5703 45.5362C70.4867 44.53 70.1907 43.5501 69.693 42.5928C70.2313 41.6523 70.7254 40.6998 71.1575 39.7282C71.7006 40.8192 71.9787 41.9304 71.9918 43.0738C71.5502 43.9344 71.0739 44.7544 70.5703 45.5362ZM69.4101 31.7551C68.1043 30.6475 66.5419 29.6413 64.7814 28.7497C65.2362 26.3757 65.4868 24.0279 65.5178 21.7733C67.3488 22.7043 68.9518 23.763 70.2838 24.9243C70.2838 27.0202 70.0284 29.1782 69.5032 31.3839C69.4757 31.5081 69.4411 31.631 69.4101 31.7551ZM54.0631 3.76936C55.0024 4.61202 55.8009 5.64924 56.4682 6.87146C54.5525 6.34271 52.5055 5.93212 50.369 5.64446C50.0563 4.52011 49.6636 3.53541 49.1778 2.75482C50.8858 2.99234 52.5222 3.33251 54.0631 3.76936ZM32.2374 3.78248C33.7771 3.34564 35.423 3.00189 37.1358 2.75959C36.65 3.54019 36.2621 4.5237 35.9482 5.64446C33.8129 5.9357 31.7659 6.34629 29.8502 6.87146C30.5079 5.66237 31.3016 4.62515 32.2374 3.78248ZM16.8104 31.3839C16.29 29.1782 16.0346 27.0155 16.0298 24.9195C17.3487 23.7773 18.9505 22.7222 20.7957 21.7864C20.8303 24.0243 21.0774 26.3447 21.5274 28.7008C19.7633 29.5888 18.2009 30.5854 16.8903 31.6883C16.8641 31.5868 16.8366 31.4854 16.8104 31.3839ZM12.9181 39.5349C12.9181 38.321 13.2141 37.1382 13.7751 36.009C14.1057 37.1203 14.5115 38.2243 14.9794 39.3093C14.4328 40.3202 14.1105 41.361 14.0091 42.4209C13.6116 41.5914 13.2499 40.7261 12.9277 39.8213C12.9229 39.7282 12.9181 39.6316 12.9181 39.5349ZM14.5509 44.9406C14.459 44.5873 14.397 44.234 14.3612 43.8771C14.7849 44.6577 15.2349 45.4073 15.7123 46.1186C15.7123 46.1222 15.7123 46.127 15.7123 46.1318C15.7123 46.639 15.7696 47.1415 15.8794 47.6405C15.39 46.762 14.9484 45.862 14.5509 44.9406ZM18.1078 51.0601C18.0863 51.0386 18.0636 51.0207 18.0374 51.0123C17.5695 50.3761 17.1326 49.7232 16.7185 49.0572C16.3556 48.2671 16.1396 47.4602 16.0787 46.6438C17.4728 48.6287 19.0567 50.3415 20.7241 51.806C20.7289 52.6141 20.9055 53.4126 21.2457 54.1896C20.0891 53.2717 19.0209 52.2345 18.1078 51.0601ZM23.5445 56.7797C23.0898 56.3464 22.6923 55.9012 22.3617 55.4429C24.0602 56.5935 25.8959 57.5161 27.7543 58.2311C28.0097 58.7121 28.3547 59.1752 28.7915 59.6299C27.3699 59.1406 26.0069 58.5008 24.7751 57.7321C24.3609 57.4242 23.9504 57.1103 23.5445 56.7797ZM62.769 56.7797C62.3537 57.1151 61.9311 57.4409 61.5027 57.7548C60.2757 58.5223 58.9126 59.1537 57.5006 59.6383C57.9327 59.1931 58.2812 58.7204 58.5462 58.2358C60.4034 57.5257 62.2391 56.603 63.9387 55.4512C63.6117 55.906 63.219 56.3512 62.769 56.7797ZM68.2714 51.0123C68.2499 51.0207 68.2273 51.0386 68.2094 51.0601C67.2915 52.2393 66.2197 53.2753 65.0631 54.198C65.4033 53.4174 65.5799 52.6177 65.5847 51.8108C67.2521 50.3451 68.836 48.6335 70.2313 46.6569C70.1692 47.4734 69.9484 48.2766 69.5915 49.0656C69.1762 49.728 68.7393 50.3761 68.2714 51.0123ZM70.4294 47.6405C70.5392 47.1463 70.5977 46.639 70.5977 46.1318C71.0739 45.4168 71.5239 44.6756 71.9476 43.8902C71.9118 44.2423 71.8498 44.5921 71.7626 44.9442C71.3604 45.862 70.9188 46.7668 70.4294 47.6405ZM71.6027 19.8313C71.025 19.0817 70.328 18.362 69.5378 17.6745C69.2645 16.8223 68.9422 15.9844 68.5722 15.168C69.1415 15.7147 69.6488 16.2792 70.0809 16.8712C70.6455 17.8285 71.1491 18.8215 71.6027 19.8313ZM62.0541 8.90651C60.4917 8.16888 58.7706 7.52912 56.9265 6.99917C56.3261 5.83424 55.6112 4.82806 54.778 3.97226C56.0038 4.35182 57.1652 4.79822 58.2418 5.29594C58.6608 5.52988 59.0761 5.7686 59.4855 6.02402C60.4571 6.81894 61.3176 7.78455 62.0541 8.90651ZM47.872 1.76176C48.0701 1.92051 48.2551 2.10193 48.4366 2.31319C46.7823 2.11506 45.0743 2.00883 43.3269 2.00047V1.41324C44.8618 1.41801 46.38 1.53617 47.872 1.76176ZM42.9819 1.40846V2.00047C41.2441 2.00883 39.5313 2.11864 37.877 2.31797C38.0537 2.10551 38.2434 1.92051 38.4416 1.76176C39.924 1.53617 41.4422 1.41801 42.9819 1.40846ZM16.2542 16.8533C16.6827 16.2757 17.1768 15.7147 17.7378 15.1811C17.3618 16.0059 17.0395 16.8533 16.7662 17.7187C15.9629 18.411 15.2707 19.1438 14.693 19.8934C15.1609 18.8478 15.6813 17.8333 16.2542 16.8533ZM12.005 31.976C12.0623 31.1058 12.2652 30.2548 12.6102 29.4253C12.7248 31.4687 13.0733 33.5073 13.6331 35.5149C13.0602 36.5688 12.72 37.655 12.6138 38.771C12.2079 36.7503 11.9967 34.6722 11.9967 32.5668C11.9967 32.3686 12.0003 32.1693 12.005 31.976ZM11.4667 32.4916C11.4667 32.5143 11.4715 32.531 11.4799 32.5536C11.4799 32.5584 11.4751 32.562 11.4751 32.5668C11.4751 41.0257 14.7717 48.982 20.7551 54.9654C26.7397 60.9488 34.6913 64.2407 43.155 64.2407C60.6111 64.2407 74.8158 50.0455 74.8337 32.593C74.8468 32.562 74.8552 32.5274 74.8552 32.4916C74.8552 32.2135 74.8373 31.9401 74.811 31.6668C74.5866 23.5433 71.3258 15.9355 65.5537 10.1681C59.5703 4.18472 51.6186 0.888062 43.155 0.888062C34.6949 0.888062 26.7397 4.18472 20.7551 10.1681C14.9484 15.9749 11.6828 23.6352 11.4978 31.8208C11.4751 32.0464 11.4667 32.2672 11.4667 32.4916Z" fill="#231F20"/>
<mask id="mask0_7_534" style="mask-type:luminance" maskUnits="userSpaceOnUse" x="0" y="17" width="88" height="24">
<path d="M0 17.6458H88V40.2569H0V17.6458Z" fill="white"/>
</mask>
<g mask="url(#mask0_7_534)">
<path d="M76.6908 38.7363C76.2098 38.7757 75.9006 39.098 75.9985 39.4501C76.0952 39.8081 76.5631 40.0636 77.0441 40.0242C80.4064 39.7413 83.1075 39.234 84.9647 38.5107C86.9376 37.7432 88.0178 36.7192 88.0178 35.4444C88.0178 32.7959 82.9702 29.7248 74.8157 26.9056C66.9429 24.183 56.0837 21.6061 44.1026 19.8277C38.0488 18.9313 32.2945 18.3226 27.0655 17.9872C19.4934 17.5014 13.0063 17.5993 8.32512 18.2342C3.35626 18.9098 0.324575 20.2383 0.0118578 22.1886C-0.00604564 22.3031 -0.0155945 22.4177 -0.0155945 22.5275C-0.0155945 23.6268 0.805586 24.7738 2.32382 25.934C3.78475 27.0416 5.91171 28.1851 8.58532 29.3142C9.02694 29.5004 9.56047 29.4073 9.77651 29.0982C9.99254 28.7938 9.81231 28.3963 9.37069 28.2066C6.85941 27.1479 4.87807 26.0892 3.55917 25.083C2.39424 24.1962 1.76283 23.3702 1.76283 22.6421C1.76283 22.5717 1.77238 22.506 1.78074 22.4488C2.00155 21.0761 4.557 20.0831 8.78823 19.5102C13.3071 18.8919 19.6343 18.8083 27.0655 19.2798C32.2372 19.6116 37.9294 20.2156 43.8997 21.1024C55.7352 22.8546 66.4404 25.3921 74.1759 28.0657C81.6238 30.6427 86.2358 33.2685 86.2358 35.3286C86.2358 36.1188 85.454 36.7991 84.0253 37.3541C82.3436 38.0082 79.8418 38.4713 76.6908 38.7363Z" fill="#231F20"/>
</g>
<mask id="mask1_7_534" style="mask-type:luminance" maskUnits="userSpaceOnUse" x="68" y="0" width="16" height="16">
<path d="M68.2916 0H83.5694V15.2014H68.2916V0Z" fill="white"/>
</mask>
<g mask="url(#mask1_7_534)">
<path fill-rule="evenodd" clip-rule="evenodd" d="M75.8661 0.164734H75.9102C76.2098 4.11428 79.3608 7.2689 83.3104 7.56491V7.61265C79.3608 7.90866 76.2098 11.0633 75.9102 15.0128H75.8661C75.5653 11.0633 72.4154 7.90866 68.4659 7.61265V7.56491C72.4154 7.2689 75.5653 4.11428 75.8661 0.164734Z" fill="#231F20"/>
</g>
<path fill-rule="evenodd" clip-rule="evenodd" d="M83.4298 13.7906H83.4513C83.5755 15.4723 84.9158 16.8139 86.5928 16.9369V16.9595C84.9158 17.0825 83.5755 18.4241 83.4513 20.101H83.4298C83.3057 18.4241 81.9641 17.0825 80.2836 16.9595V16.9369C81.9641 16.8139 83.3057 15.4723 83.4298 13.7906Z" fill="#231F20"/>
<path d="M10.3603 34.4776L17.3583 33.5621C17.5349 33.5394 17.6567 33.3807 17.634 33.204L17.2676 30.4027C17.2437 30.2249 17.0861 30.1043 16.9095 30.127L13.7405 30.5412C13.5603 30.565 13.3908 30.4445 13.367 30.2678L12.5696 24.1734C12.547 23.9932 12.387 23.8595 12.2092 23.8834L9.04144 24.2976C8.86479 24.3203 8.72753 24.4802 8.7514 24.6604L9.99869 34.2031C10.0226 34.3797 10.1801 34.5015 10.3603 34.4776Z" stroke="white" stroke-width="11.2698"/>
<path d="M18.5148 33.4535L21.6933 33.1253C21.8711 33.1074 21.9964 32.9522 21.9785 32.7744L20.9891 23.2019C20.9712 23.0217 20.8041 22.8976 20.6262 22.9155L17.4477 23.2437C17.2663 23.2628 17.141 23.4168 17.1601 23.5982L18.1483 33.1707C18.1674 33.3485 18.3369 33.4726 18.5148 33.4535Z" stroke="white" stroke-width="11.2698"/>
<path d="M22.8368 32.9964L29.8741 32.4617C30.0519 32.4486 30.182 32.297 30.1677 32.1191L29.9541 29.3011C29.9409 29.1233 29.7893 28.9932 29.6115 29.0075L26.4258 29.2486C26.2444 29.2629 26.0809 29.134 26.0666 28.9562L25.6011 22.8272C25.5868 22.6469 25.4352 22.5037 25.2573 22.518L22.0705 22.7591C21.8926 22.7734 21.747 22.9262 21.7613 23.1065L22.4906 32.7028C22.5038 32.8807 22.6553 33.0108 22.8368 32.9964Z" stroke="white" stroke-width="11.2698"/>
<path d="M30.9543 32.3758L38.2769 32.118C39.7891 32.0642 40.8514 30.9232 40.7989 29.4085L40.7476 27.975C40.6951 26.4592 39.554 25.3957 38.0418 25.4494L34.5672 25.5724C34.3846 25.5783 34.239 25.4423 34.233 25.2632C34.2271 25.0818 34.362 24.9362 34.5446 24.9302L40.3143 24.7261C40.4922 24.7202 40.6282 24.5745 40.6223 24.3967L40.5411 22.0883C40.5339 21.9069 40.3883 21.7708 40.2105 21.778L32.8879 22.0358C31.3756 22.0895 30.3086 23.2294 30.3623 24.7452L30.4136 26.1823C30.4661 27.6946 31.6108 28.7568 33.1218 28.7043L36.5975 28.5814C36.7754 28.5754 36.9222 28.7115 36.9281 28.8929C36.9341 29.0707 36.798 29.2176 36.6202 29.2235L30.8505 29.4264C30.669 29.4324 30.533 29.5792 30.5389 29.7571L30.6201 32.0678C30.6273 32.2457 30.7729 32.3817 30.9543 32.3758Z" stroke="white" stroke-width="11.2698"/>
<path d="M41.6618 32.0416L44.8571 32.0631C45.0349 32.0643 45.1769 31.9246 45.1781 31.7456L45.1972 28.9204C45.1984 28.7425 45.3405 28.6017 45.5219 28.6029C45.7009 28.6041 45.8406 28.7593 45.8394 28.9407L45.8203 31.7504C45.8191 31.9294 45.9719 32.0714 46.1497 32.0726L49.3449 32.0941C49.5275 32.0953 49.6696 31.9545 49.6707 31.7766L49.7352 22.154C49.7364 21.9714 49.5836 21.8294 49.4022 21.8282L46.207 21.8067C46.0291 21.8055 45.8871 21.9451 45.8859 22.1277L45.8668 24.9494C45.8656 25.1284 45.7236 25.268 45.5446 25.2669C45.3631 25.2657 45.2235 25.1236 45.2247 24.9458L45.2438 22.123C45.245 21.9415 45.0922 21.7995 44.9131 21.7983L41.7179 21.7768C41.5365 21.7756 41.3945 21.9153 41.3933 22.0967L41.3288 31.7205C41.3276 31.8984 41.4828 32.0404 41.6618 32.0416Z" stroke="white" stroke-width="11.2698"/>
<path d="M52.7382 32.2242L55.8391 32.3638C57.3537 32.4307 58.5044 31.3791 58.5724 29.8645L58.7968 24.8419C58.8648 23.3272 57.8121 22.1754 56.2974 22.1086L53.1965 21.969C51.6854 21.9021 50.5313 22.9537 50.4632 24.4683L50.2388 29.4909C50.1708 31.0055 51.2259 32.1573 52.7382 32.2242ZM54.4223 29.3465C54.2397 29.3381 54.106 29.1913 54.1132 29.0123L54.2803 25.2943C54.2886 25.1128 54.4354 24.9792 54.6169 24.9863C54.7947 24.9947 54.9296 25.1415 54.9212 25.3229L54.7553 29.0409C54.747 29.2199 54.6002 29.3536 54.4223 29.3465Z" stroke="white" stroke-width="11.2698"/>
<path d="M61.5182 32.7255L64.6119 32.9821C66.123 33.1062 67.313 32.0988 67.4383 30.5878L67.8525 25.5771C67.9778 24.0661 66.9704 22.8761 65.4594 22.7508L62.3656 22.4953C60.8569 22.37 59.6645 23.3774 59.5392 24.8885L59.1239 29.8991C58.9985 31.4102 60.0095 32.6001 61.5182 32.7255ZM63.3097 29.9122C63.1283 29.8979 62.9994 29.7451 63.0149 29.5673L63.3217 25.8588C63.3372 25.6774 63.4888 25.5485 63.6702 25.564C63.848 25.5783 63.9769 25.7311 63.9614 25.9113L63.6547 29.621C63.6403 29.7988 63.4876 29.9277 63.3097 29.9122Z" stroke="white" stroke-width="11.2698"/>
<path d="M67.9753 33.2625L77.5239 34.4585C77.7018 34.4812 77.8581 34.3582 77.8808 34.1816L78.1684 31.8875C78.1899 31.7109 78.0682 31.5533 77.8903 31.5306L72.1624 30.8133C71.9821 30.7906 71.8592 30.6331 71.8819 30.4564C71.9046 30.2762 72.0585 30.1783 72.2423 30.1759L77.8283 30.1652C78.1505 30.1676 78.4119 29.942 78.4525 29.6221L79.0768 24.633C79.0994 24.4527 78.9777 24.2952 78.7998 24.2725L69.2512 23.0765C69.071 23.0539 68.9135 23.1768 68.8908 23.357L68.6043 25.6475C68.5816 25.8253 68.7046 25.9817 68.8848 26.0044L74.6128 26.7229C74.7906 26.7444 74.9124 26.902 74.8897 27.0822C74.8682 27.2588 74.7142 27.3567 74.5328 27.3591L68.9469 27.3698C68.6222 27.3698 68.3596 27.5966 68.3202 27.9141L67.6948 32.9056C67.6733 33.0823 67.7951 33.2398 67.9753 33.2625Z" stroke="white" stroke-width="11.2698"/>
<path d="M10.3596 34.4775L17.3575 33.5632C17.5354 33.5393 17.6571 33.3806 17.6332 33.2028L17.268 30.4038C17.2441 30.226 17.0854 30.1042 16.9075 30.1281L13.7398 30.5423C13.562 30.565 13.3913 30.4456 13.3674 30.2666L12.5701 24.1733C12.5474 23.9943 12.3875 23.8606 12.2096 23.8833L9.04069 24.2975C8.86284 24.3214 8.72916 24.4813 8.75184 24.6591L10.0003 34.2018C10.023 34.3796 10.1817 34.5014 10.3596 34.4775Z" fill="#231F20"/>
<path d="M18.5142 33.4542L21.6927 33.1259C21.8718 33.1068 21.9971 32.9517 21.9792 32.7738L20.9897 23.2013C20.9718 23.0223 20.8035 22.8982 20.6245 22.9161L17.4472 23.2443C17.2681 23.2634 17.1428 23.4174 17.1607 23.5964L18.1502 33.1689C18.1681 33.3479 18.3364 33.4721 18.5142 33.4542Z" fill="#231F20"/>
<path d="M22.8359 32.9963L29.872 32.4616C30.0523 32.4485 30.1824 32.2969 30.1681 32.1179L29.9544 29.3034C29.9401 29.1244 29.7897 28.9943 29.6107 29.0074L26.4238 29.2497C26.2448 29.2628 26.0813 29.1339 26.0669 28.9549L25.6014 22.8271C25.5883 22.648 25.4355 22.5048 25.2565 22.5179L22.0708 22.7602C21.8918 22.7745 21.7486 22.9261 21.7629 23.1052L22.4922 32.7015C22.5053 32.8806 22.6569 33.0107 22.8359 32.9963Z" fill="#231F20"/>
<path d="M30.9533 32.3755L38.2759 32.1177C39.7882 32.064 40.8528 30.9229 40.7991 29.4094L40.749 27.9736C40.6953 26.4601 39.5542 25.3966 38.0408 25.4492L34.5651 25.5721C34.3861 25.5781 34.2404 25.442 34.2333 25.263C34.2273 25.0827 34.3634 24.9371 34.5424 24.9311L40.3134 24.727C40.4924 24.7211 40.6285 24.5755 40.6225 24.3952L40.5413 22.088C40.5354 21.9078 40.3885 21.7717 40.2095 21.7777L32.8869 22.0367C31.3747 22.0892 30.31 23.2315 30.3637 24.7438L30.4138 26.1808C30.4675 27.6931 31.6098 28.7578 33.1221 28.704L36.5977 28.5823C36.7768 28.5751 36.9224 28.7112 36.9296 28.8914C36.9355 29.0705 36.7995 29.2161 36.6204 29.2232L30.8495 29.4262C30.6704 29.4321 30.5344 29.5789 30.5403 29.758L30.6215 32.0663C30.6275 32.2454 30.7743 32.3814 30.9533 32.3755Z" fill="#231F20"/>
<path d="M41.6606 32.042L44.8558 32.0635C45.0349 32.0647 45.1769 31.9239 45.1793 31.7448L45.1984 28.922C45.1996 28.7418 45.3416 28.6022 45.5207 28.6034C45.7009 28.6045 45.8405 28.7597 45.8394 28.9387L45.8203 31.7496C45.8191 31.9287 45.9718 32.0707 46.1521 32.0719L49.3461 32.0934C49.5263 32.0946 49.6683 31.9549 49.6695 31.7747L49.7352 22.1521C49.7364 21.973 49.5824 21.8298 49.4034 21.8286L46.2082 21.8071C46.0291 21.8059 45.8871 21.9468 45.8859 22.1258L45.8668 24.9486C45.8656 25.1289 45.7236 25.2685 45.5433 25.2673C45.3643 25.2661 45.2235 25.1241 45.2247 24.945L45.2438 22.1222C45.245 21.942 45.0922 21.8 44.9119 21.7988L41.7179 21.7773C41.5377 21.7761 41.3957 21.9157 41.3945 22.096L41.33 31.7186C41.3288 31.8988 41.4816 32.0409 41.6606 32.042Z" fill="#231F20"/>
<path d="M52.7372 32.2246L55.8393 32.3631C57.3516 32.4311 58.5034 31.3784 58.5714 29.8649L58.7958 24.8411C58.8638 23.3277 57.8111 22.1759 56.2988 22.109L53.1967 21.9706C51.6833 21.9026 50.5315 22.9553 50.4646 24.4675L50.239 29.4925C50.1722 31.0048 51.2249 32.1566 52.7372 32.2246ZM54.4201 29.3457C54.2411 29.3373 54.1062 29.1905 54.1146 29.0115L54.2805 25.2935C54.2888 25.1145 54.4356 24.9796 54.6159 24.9879C54.7949 24.9951 54.9298 25.1431 54.9214 25.3221L54.7555 29.0401C54.7472 29.2192 54.6004 29.354 54.4201 29.3457Z" fill="#231F20"/>
<path d="M61.5173 32.7251L64.6122 32.9818C66.1209 33.1071 67.3121 32.0985 67.4374 30.5886L67.8516 25.5768C67.9769 24.0681 66.9684 22.8769 65.4597 22.7516L62.3647 22.495C60.8561 22.3709 59.6649 23.3794 59.5407 24.8881L59.1254 29.9011C59 31.4098 60.0086 32.5998 61.5173 32.7251ZM63.3089 29.9119C63.1298 29.8975 63.0009 29.7448 63.0152 29.5657L63.322 25.8585C63.3375 25.6795 63.4891 25.5494 63.6681 25.5649C63.8472 25.5792 63.9773 25.732 63.9617 25.911L63.655 29.6194C63.6395 29.7985 63.4879 29.9274 63.3089 29.9119Z" fill="#231F20"/>
<path d="M67.9745 33.2628L77.5231 34.4587C77.7022 34.4814 77.8597 34.3585 77.8812 34.1806L78.1689 31.889C78.1915 31.7099 78.0686 31.5524 77.8908 31.5309L72.1616 30.8124C71.9826 30.7909 71.8608 30.6333 71.8823 30.4543C71.905 30.2764 72.0589 30.1798 72.2404 30.1762L77.8287 30.1654C78.1521 30.1666 78.4123 29.9411 78.4529 29.6224L79.0784 24.632C79.0998 24.453 78.9781 24.2954 78.7991 24.274L69.2505 23.0768C69.0726 23.0553 68.9151 23.1771 68.8924 23.3561L68.6059 25.6478C68.5832 25.8256 68.7062 25.9832 68.884 26.0058L74.6132 26.7232C74.791 26.7458 74.914 26.9034 74.8913 27.0812C74.8698 27.2603 74.7146 27.357 74.5332 27.3593L68.9461 27.3713C68.6226 27.3689 68.3612 27.5957 68.3219 27.9132L67.6964 32.9047C67.6737 33.0825 67.7967 33.2401 67.9745 33.2628Z" fill="#231F20"/>
<path d="M23.1136 37.7421L21.5703 37.8925L21.211 34.2163L25.4363 33.8021L25.5246 34.7116L22.8426 34.9742L22.8987 35.5507L25.1665 35.3287L25.2357 36.0365L22.9679 36.2585L23.1136 37.7421Z" stroke="#231F20" stroke-width="2.73212"/>
<path d="M28.764 37.3339C27.8533 37.3996 27.1706 37.2611 26.7135 36.9174C26.3088 36.613 26.0856 36.175 26.0439 35.6009C26.0021 35.0291 26.1596 34.5636 26.5153 34.2032C26.9176 33.7974 27.574 33.561 28.4847 33.4954C29.3954 33.4285 30.0793 33.567 30.5365 33.9108C30.9411 34.2151 31.1631 34.6532 31.2049 35.2249C31.2467 35.799 31.0903 36.2657 30.7346 36.6249C30.3312 37.0308 29.6747 37.2671 28.764 37.3339ZM28.6924 36.3457C29.066 36.3182 29.3322 36.1905 29.4909 35.9649C29.6186 35.7811 29.6735 35.5722 29.6568 35.3383C29.6401 35.1031 29.5554 34.9062 29.4014 34.7451C29.2116 34.5422 28.9299 34.4538 28.5563 34.4813C28.1839 34.5087 27.9166 34.6364 27.7566 34.8644C27.6277 35.0458 27.5728 35.2535 27.5895 35.4887C27.6075 35.7226 27.6922 35.9219 27.845 36.0843C28.0371 36.2848 28.3188 36.3719 28.6924 36.3457Z" stroke="#231F20" stroke-width="2.73213"/>
<path d="M34.3094 37.0045C33.3975 37.0463 32.7172 36.8899 32.2696 36.5342C31.8733 36.2191 31.662 35.7739 31.6358 35.1998C31.6095 34.6269 31.779 34.165 32.1442 33.8152C32.5572 33.4202 33.2197 33.2018 34.1315 33.16C35.0446 33.117 35.7238 33.2746 36.1714 33.6302C36.5676 33.9453 36.7789 34.3894 36.8052 34.9611C36.8314 35.5352 36.6619 35.9983 36.2967 36.348C35.8837 36.7431 35.2213 36.9627 34.3094 37.0045ZM34.264 36.0138C34.6376 35.9971 34.9062 35.8766 35.0721 35.6546C35.2046 35.4755 35.2654 35.2678 35.2547 35.0327C35.244 34.7976 35.164 34.5982 35.0148 34.4335C34.831 34.2246 34.5517 34.1292 34.1769 34.1471C33.8033 34.1638 33.5336 34.2843 33.3665 34.5087C33.234 34.6866 33.1731 34.893 33.1838 35.1282C33.1946 35.3633 33.2746 35.5638 33.4226 35.7309C33.61 35.9362 33.8892 36.0317 34.264 36.0138Z" stroke="#231F20" stroke-width="2.73212"/>
<path d="M40.2187 36.7347L38.6694 36.7681L38.6097 33.9883L37.1631 34.0193L37.144 33.105L41.5865 33.0096L41.6056 33.9238L40.159 33.9549L40.2187 36.7347Z" stroke="#231F20" stroke-width="2.73213"/>
<path d="M48.008 36.7323L46.7154 36.7204L45.8262 34.313L44.8928 36.7037L43.6013 36.6918L41.8587 32.9845L43.4283 32.9988L44.3342 35.3526L45.3487 33.0156L46.3275 33.0251L47.3002 35.3788L48.2479 33.0418L49.8187 33.0561L48.008 36.7323Z" stroke="#231F20" stroke-width="2.73213"/>
<path d="M54.6444 36.9674L50.1995 36.7872L50.3487 33.0966L54.5907 33.2673L54.5537 34.1804L51.861 34.0718L51.8371 34.6507L54.1132 34.7426L54.0846 35.4528L51.8084 35.3609L51.7858 35.9374L54.6814 36.0531L54.6444 36.9674Z" stroke="#231F20" stroke-width="2.73213"/>
<path d="M61.0121 37.3828L59.4449 37.2778L59.1382 36.65L56.8143 36.4936L56.4264 37.0737L54.8592 36.9687L57.466 33.444L58.9018 33.5407L61.0121 37.3828ZM58.6786 35.7035L58.1141 34.5433L57.3967 35.6175L58.6786 35.7035Z" stroke="#231F20" stroke-width="2.73213"/>
<path d="M66.4488 37.908L64.9903 37.7683C64.933 37.6693 64.8972 37.5475 64.884 37.4007C64.8709 37.2873 64.8447 37.1751 64.8077 37.0641C64.7695 36.9531 64.6955 36.8564 64.5856 36.7741C64.4758 36.6917 64.3052 36.6368 64.0748 36.6094L63.0734 36.5139L62.9707 37.575L61.4286 37.427L61.7819 33.7495L64.2908 33.9895C64.89 34.0479 65.3698 34.1387 65.7291 34.264C66.0884 34.3893 66.3438 34.5552 66.4942 34.7641C66.6458 34.973 66.7054 35.2308 66.6756 35.5399C66.6517 35.7989 66.5718 36.0102 66.4381 36.1749C66.3044 36.3396 66.1063 36.4614 65.8437 36.5389C66.0776 36.6631 66.2244 36.7991 66.2841 36.9471C66.3426 37.0951 66.3724 37.2551 66.3736 37.4258C66.376 37.5773 66.4011 37.7385 66.4488 37.908ZM63.1605 35.6068L64.0414 35.6879C64.2884 35.7118 64.483 35.7201 64.6274 35.7106C64.7707 35.7022 64.8781 35.6819 64.9497 35.6497C65.0201 35.6187 65.0679 35.5793 65.0917 35.5339C65.1144 35.4898 65.1287 35.442 65.1335 35.3919C65.1383 35.343 65.1335 35.2928 65.1192 35.2439C65.1049 35.1938 65.0655 35.1472 65.0022 35.1019C64.9389 35.0565 64.8363 35.0159 64.6966 34.9801C64.557 34.9443 64.3648 34.9157 64.119 34.8918L63.2369 34.8071L63.1605 35.6068Z" stroke="#231F20" stroke-width="2.73213"/>
<path d="M23.1134 37.7421L21.5713 37.8949L21.2132 34.2187L25.4337 33.8033L25.5196 34.7152L22.8412 34.9778L22.8985 35.5507L25.1663 35.3263L25.2379 36.0329L22.9701 36.2573L23.1134 37.7421Z" fill="#FEFEFE"/>
<path d="M28.7609 37.3376C27.8502 37.402 27.1687 37.2612 26.7175 36.9175C26.3093 36.6155 26.0849 36.1762 26.0443 35.5997C26.0025 35.0304 26.1601 34.5661 26.517 34.2056C26.918 33.7986 27.5733 33.5635 28.484 33.499C29.3971 33.4322 30.0798 33.5707 30.5322 33.9144C30.9392 34.2176 31.1636 34.6532 31.2053 35.2226C31.2459 35.7991 31.0884 36.267 30.7327 36.6262C30.3316 37.0344 29.674 37.2708 28.7609 37.3376ZM28.6893 36.3493C29.0617 36.3207 29.3267 36.1941 29.4866 35.9674C29.6167 35.7836 29.674 35.5735 29.6585 35.3372C29.6418 35.1056 29.5558 34.9075 29.4007 34.7451C29.2097 34.5446 28.928 34.4587 28.5556 34.4873C28.1832 34.5136 27.917 34.6389 27.7583 34.8645C27.6306 35.0459 27.5745 35.2536 27.5912 35.4852C27.6067 35.7215 27.6915 35.922 27.8442 36.0867C28.0352 36.2872 28.3169 36.3756 28.6893 36.3493Z" fill="#FEFEFE"/>
<path d="M34.3081 37.0053C33.3974 37.047 32.7182 36.8895 32.2694 36.5326C31.8744 36.2175 31.6631 35.7723 31.6345 35.1958C31.6082 34.6265 31.7789 34.1669 32.1453 33.816C32.5583 33.4221 33.2207 33.2037 34.1314 33.1619C35.0445 33.1214 35.7237 33.2789 36.1701 33.6346C36.5675 33.9473 36.7788 34.3877 36.805 34.9571C36.8337 35.5336 36.663 35.9979 36.2942 36.3512C35.8836 36.7462 35.2212 36.9647 34.3081 37.0053ZM34.2603 36.0122C34.6327 35.9967 34.9013 35.8773 35.0672 35.6541C35.2033 35.4727 35.2653 35.265 35.2534 35.0287C35.2438 34.7971 35.1627 34.599 35.0099 34.4367C34.8249 34.2302 34.5468 34.1347 34.1744 34.1502C33.802 34.1693 33.5322 34.2911 33.3675 34.5131C33.2362 34.6885 33.1766 34.8926 33.1861 35.1242C33.198 35.3605 33.278 35.5622 33.4248 35.7305C33.6086 35.9382 33.8879 36.0313 34.2603 36.0122Z" fill="#FEFEFE"/>
<path d="M40.2196 36.7351L38.6679 36.7685L38.6106 33.9899L37.164 34.0185L37.1401 33.1018L41.585 33.0063L41.6089 33.923L40.1623 33.9564L40.2196 36.7351Z" fill="#FEFEFE"/>
<path d="M48.0069 36.7327L46.7131 36.7184L45.8251 34.3169L44.8941 36.704L43.6003 36.6897L41.8576 32.9849L43.4284 32.9992L44.3355 35.3529L45.3477 33.0183L46.3264 33.0278L47.3003 35.3768L48.2457 33.0422L49.8164 33.0565L48.0069 36.7327Z" fill="#FEFEFE"/>
<path d="M54.6436 36.9667L50.1987 36.7853L50.3467 33.0947L54.5863 33.2666L54.5481 34.1785L51.8602 34.0735L51.8411 34.6512L54.1137 34.7419L54.085 35.4532L51.8124 35.3625L51.7886 35.9402L54.6818 36.0548L54.6436 36.9667Z" fill="#FEFEFE"/>
<path d="M61.0086 37.381L59.4426 37.276L59.1419 36.6458L56.8168 36.493L56.4253 37.0755L54.8593 36.9705L57.4661 33.447L58.8984 33.5425L61.0086 37.381ZM58.674 35.7053L58.1154 34.5403L57.3945 35.6193L58.674 35.7053Z" fill="#FEFEFE"/>
<path d="M66.4467 37.9076L64.9905 37.7691C64.9332 37.67 64.8962 37.5471 64.8807 37.4015C64.864 37.2869 64.8377 37.1747 64.7996 37.0625C64.7637 36.9515 64.6909 36.8548 64.5799 36.7713C64.4713 36.6889 64.303 36.6352 64.0739 36.609L63.0713 36.5135L62.971 37.5734L61.4289 37.4254L61.7822 33.7491L64.2887 33.9926C64.8867 34.0499 65.3653 34.1406 65.7258 34.2648C66.0886 34.3889 66.344 34.556 66.4944 34.7661C66.6436 34.9738 66.7045 35.2316 66.6759 35.5395C66.6496 35.7973 66.5684 36.0098 66.4324 36.1745C66.2987 36.3368 66.1006 36.4586 65.8404 36.5373C66.0755 36.6615 66.2235 36.7987 66.2844 36.9479C66.344 37.0947 66.3727 37.2535 66.3703 37.4254C66.3727 37.5746 66.3989 37.7357 66.4467 37.9076ZM63.162 35.6064L64.0404 35.6875C64.2887 35.7102 64.4844 35.7185 64.6277 35.7114C64.7709 35.7018 64.8771 35.6815 64.9476 35.6493C65.0168 35.6183 65.0633 35.5801 65.086 35.5347C65.1111 35.4906 65.1266 35.4428 65.1338 35.3915C65.1361 35.3414 65.1302 35.2912 65.1147 35.2435C65.1015 35.1934 65.0633 35.1468 65.0001 35.105C64.9356 35.0609 64.8342 35.0215 64.6945 34.9857C64.5573 34.9475 64.3651 34.9177 64.1168 34.895L63.2384 34.809L63.162 35.6064Z" fill="#FEFEFE"/>
</svg>
