<svg width="28" height="28" viewBox="0 0 28 28" fill="none" xmlns="http://www.w3.org/2000/svg">
<path d="M26 2.8V25.2C26 25.6419 25.6419 26 25.2 26H2.8C2.35817 26 2 25.6419 2 25.2V2.8C2 2.35817 2.35817 2 2.8 2H25.2C25.6419 2 26 2.35817 26 2.8Z" stroke="#FEFEFE" stroke-width="3" stroke-linecap="round" stroke-linejoin="round"/>
<path d="M2 19.3333L11.3333 15.3333L26 22" stroke="#FEFEFE" stroke-width="3" stroke-linecap="round" stroke-linejoin="round"/>
<path d="M19.3334 11.3333C17.8606 11.3333 16.6667 10.1394 16.6667 8.66667C16.6667 7.19391 17.8606 6 19.3334 6C20.8062 6 22 7.19391 22 8.66667C22 10.1394 20.8062 11.3333 19.3334 11.3333Z" stroke="#FEFEFE" stroke-width="3" stroke-linecap="round" stroke-linejoin="round"/>
</svg>
