<svg width="22" height="20" viewBox="0 0 22 20" fill="none" xmlns="http://www.w3.org/2000/svg">
<path d="M21.1705 4.43891C20.9788 4.10673 20.7043 3.82991 20.3737 3.63545C20.0431 3.44098 19.6677 3.33552 19.2843 3.32935H5.08181L4.43826 0.821729C4.37324 0.579664 4.22818 0.366745 4.0267 0.217651C3.82522 0.0685559 3.5792 -0.00792979 3.3287 0.000650738H1.10957C0.815291 0.000650738 0.533068 0.117551 0.324984 0.325635C0.1169 0.533719 0 0.815941 0 1.11022C0 1.40449 0.1169 1.68671 0.324984 1.8948C0.533068 2.10288 0.815291 2.21978 1.10957 2.21978H2.48543L5.54783 13.6039C5.61285 13.846 5.75791 14.0589 5.95939 14.208C6.16087 14.3571 6.4069 14.4336 6.65739 14.425H16.6435C16.8484 14.4244 17.0491 14.367 17.2234 14.2593C17.3977 14.1516 17.5388 13.9977 17.631 13.8147L21.2704 6.53599C21.4281 6.20536 21.5015 5.84082 21.4841 5.4749C21.4667 5.10898 21.359 4.75306 21.1705 4.43891Z" fill="#231720"/>
<path d="M6.10263 19.9729C7.02182 19.9729 7.76697 19.2277 7.76697 18.3085C7.76697 17.3893 7.02182 16.6442 6.10263 16.6442C5.18343 16.6442 4.43828 17.3893 4.43828 18.3085C4.43828 19.2277 5.18343 19.9729 6.10263 19.9729Z" fill="#231720"/>
<path d="M17.1983 19.9729C18.1175 19.9729 18.8626 19.2277 18.8626 18.3085C18.8626 17.3893 18.1175 16.6442 17.1983 16.6442C16.2791 16.6442 15.5339 17.3893 15.5339 18.3085C15.5339 19.2277 16.2791 19.9729 17.1983 19.9729Z" fill="#231720"/>
</svg>
